<?xml version="1.0" encoding="utf-8"?>
<!-- Generator: Adobe Illustrator 19.0.0, SVG Export Plug-In . SVG Version: 6.00 Build 0)  -->
<svg version="1.1" id="Layer_1" xmlns="http://www.w3.org/2000/svg" xmlns:xlink="http://www.w3.org/1999/xlink" x="0px" y="0px"
	 viewBox="0 0 200 60" style="enable-background:new 0 0 200 60;" xml:space="preserve">
<style type="text/css">
	.st0{enable-background:new    ;}
	.st1{fill:#8CDBB3;}
</style>
<g class="st0">
	<path class="st1" d="M14.4,16.3l6.6,18.6l6.5-18.6h6.9v25.6h-5.3v-7l0.5-12.1l-6.9,19.1h-3.6l-6.9-19.1l0.5,12.1v7H7.5V16.3H14.4z"
		/>
	<path class="st1" d="M45.8,34.7l3.5-11.8h5.4l-7.6,22l-0.4,1c-1.1,2.5-3,3.7-5.6,3.7c-0.7,0-1.5-0.1-2.2-0.3v-3.8l0.8,0
		c1,0,1.7-0.1,2.2-0.4s0.8-0.8,1.1-1.5l0.6-1.6l-6.7-19.1h5.5L45.8,34.7z"/>
	<path class="st1" d="M72.5,31.5H62.4v10.5h-5.3V16.3h16.7v4.3H62.4v6.6h10.1V31.5z"/>
	<path class="st1" d="M81.8,41.9h-5.1v-27h5.1V41.9z"/>
	<path class="st1" d="M94.8,42.3c-2.8,0-5.1-0.9-6.8-2.6s-2.6-4-2.6-6.8v-0.5c0-1.9,0.4-3.6,1.1-5.1s1.8-2.7,3.1-3.5
		s2.9-1.2,4.6-1.2c2.6,0,4.6,0.8,6.1,2.5c1.5,1.6,2.2,4,2.2,7v2.1H90.5c0.2,1.2,0.7,2.2,1.5,3s1.9,1.1,3.1,1.1c2,0,3.5-0.7,4.6-2.1
		l2.5,2.8c-0.8,1.1-1.8,1.9-3.1,2.5C97.8,42,96.4,42.3,94.8,42.3z M94.2,26.6c-1,0-1.8,0.3-2.5,1s-1,1.7-1.2,2.9h7.1v-0.4
		c0-1.1-0.3-2-0.9-2.6S95.3,26.6,94.2,26.6z"/>
	<path class="st1" d="M114.2,42.3c-2.8,0-5.1-0.9-6.8-2.6s-2.6-4-2.6-6.8v-0.5c0-1.9,0.4-3.6,1.1-5.1s1.8-2.7,3.1-3.5
		s2.9-1.2,4.6-1.2c2.6,0,4.6,0.8,6.1,2.5s2.2,4,2.2,7v2.1h-12.1c0.2,1.2,0.7,2.2,1.5,3s1.9,1.1,3.1,1.1c2,0,3.5-0.7,4.6-2.1l2.5,2.8
		c-0.8,1.1-1.8,1.9-3.1,2.5S115.8,42.3,114.2,42.3z M113.6,26.6c-1,0-1.8,0.3-2.5,1s-1,1.7-1.2,2.9h7.1v-0.4c0-1.1-0.3-2-0.9-2.6
		S114.7,26.6,113.6,26.6z"/>
	<path class="st1" d="M131,18.2v4.7h3.3v3.7H131v9.5c0,0.7,0.1,1.2,0.4,1.5s0.8,0.5,1.5,0.5c0.6,0,1.1,0,1.5-0.1v3.8
		c-1,0.3-2,0.5-3.1,0.5c-3.6,0-5.4-1.8-5.4-5.4V26.6h-2.8v-3.7h2.8v-4.7H131z"/>
	<path class="st1" d="M137.4,41.9V16.3h9c3.1,0,5.5,0.6,7.1,1.8s2.4,2.9,2.4,5.2c0,1.3-0.3,2.4-1,3.3s-1.5,1.7-2.7,2.1
		c1.3,0.3,2.3,1,3.1,2c0.8,1,1.1,2.2,1.1,3.7c0,2.5-0.8,4.3-2.4,5.6s-3.8,1.9-6.7,1.9H137.4z M142.7,27.1h3.9c2.7,0,4-1.1,4-3.2
		c0-1.2-0.3-2-1-2.5s-1.7-0.8-3.2-0.8h-3.7V27.1z M142.7,30.8v6.9h4.5c1.2,0,2.2-0.3,2.9-0.9s1-1.4,1-2.5c0-2.3-1.2-3.5-3.6-3.6
		H142.7z"/>
	<path class="st1" d="M171.5,40c-1.3,1.5-3,2.3-5.2,2.3c-2,0-3.6-0.6-4.7-1.8s-1.6-2.9-1.6-5.2V22.9h5.1v12.3c0,2,0.9,3,2.7,3
		c1.7,0,2.9-0.6,3.6-1.8V22.9h5.1v19h-4.8L171.5,40z"/>
	<path class="st1" d="M187.3,34.7l3.5-11.8h5.4l-7.6,22l-0.4,1c-1.1,2.5-3,3.7-5.6,3.7c-0.7,0-1.5-0.1-2.2-0.3v-3.8l0.8,0
		c1,0,1.7-0.1,2.2-0.4s0.8-0.8,1.1-1.5L185,42l-6.7-19.1h5.5L187.3,34.7z"/>
</g>
</svg>
