<?xml version="1.0" encoding="utf-8"?>
<!-- Generator: Adobe Illustrator 19.0.0, SVG Export Plug-In . SVG Version: 6.00 Build 0)  -->
<svg version="1.1" id="Layer_1" xmlns="http://www.w3.org/2000/svg" xmlns:xlink="http://www.w3.org/1999/xlink" x="0px" y="0px"
	 viewBox="0 0 445 300" style="enable-background:new 0 0 445 300;" xml:space="preserve">
<style type="text/css">
	.st0{fill:none;stroke:#C0EBD5;stroke-width:5;stroke-miterlimit:10;}
	.st1{fill:none;stroke:#C0EBD5;stroke-width:5;stroke-miterlimit:10;stroke-dasharray:4.8673,4.8673;}
	.st2{fill:#C0EBD5;}
	.st3{fill:none;stroke:#C0EBD5;stroke-width:5;stroke-miterlimit:10;stroke-dasharray:5.0472,5.0472;}
	.st4{fill:none;stroke:#C0EBD5;stroke-width:5;stroke-miterlimit:10;stroke-dasharray:5.1038,5.1038;}
	.st5{fill:#73B493;}
	.st6{fill:#8CDBB3;}
	.st7{fill-rule:evenodd;clip-rule:evenodd;fill:#FFFFFF;}
	.st8{fill-rule:evenodd;clip-rule:evenodd;fill:#E8E5E0;}
	.st9{fill-rule:evenodd;clip-rule:evenodd;fill:#2E3235;}
	.st10{fill-rule:evenodd;clip-rule:evenodd;fill:#474C52;}
	.st11{fill-rule:evenodd;clip-rule:evenodd;fill:#5A5F63;}
	.st12{fill-rule:evenodd;clip-rule:evenodd;fill:#B2B1AF;}
	.st13{fill-rule:evenodd;clip-rule:evenodd;fill:#8CDBB3;}
	.st14{fill-rule:evenodd;clip-rule:evenodd;fill:#73B493;}
	.st15{fill:#1C1D1E;}
	.st16{fill:#474C52;}
	.st17{fill:#2E3235;}
	.st18{enable-background:new    ;}
	.st19{fill-rule:evenodd;clip-rule:evenodd;fill:#1C1D1E;}
	.st20{fill-rule:evenodd;clip-rule:evenodd;fill:#505559;}
	.st21{fill-rule:evenodd;clip-rule:evenodd;fill:url(#XMLID_450_);}
	.st22{fill-rule:evenodd;clip-rule:evenodd;fill:url(#XMLID_456_);}
	.st23{fill-rule:evenodd;clip-rule:evenodd;fill:url(#XMLID_458_);}
	.st24{fill:#B2B1AF;}
	.st25{fill-rule:evenodd;clip-rule:evenodd;fill:#D5D0C8;}
	.st26{fill:#DFF5EA;}
	.st27{fill:#054665;}
	.st28{fill:#333333;}
	.st29{fill:#FFFFFF;}
	.st30{fill:#1D71B8;}
	.st31{fill:none;stroke:#FFFFFF;stroke-linecap:round;stroke-linejoin:round;stroke-miterlimit:10;}
	.st32{fill:#232426;}
	.st33{fill:none;stroke:#C0EBD5;stroke-width:3.6695;stroke-miterlimit:10;}
	.st34{opacity:0.11;}
	.st35{opacity:0.51;}
	.st36{opacity:0.75;}
	.st37{opacity:0.66;}
	.st38{opacity:0.38;fill:#8D8180;}
	.st39{opacity:0.38;}
	.st40{fill:#786E69;}
	.st41{opacity:0.87;}
	.st42{fill:#FFE0D5;}
	.st43{fill:#6B625E;}
	.st44{opacity:0.42;fill:#232426;}
	.st45{opacity:0.1;}
	.st46{fill:#1F1F21;}
	.st47{opacity:0.7;}
	.st48{opacity:0.62;}
	.st49{opacity:0.87;fill:#DFF5EA;}
</style>
<g id="XMLID_139_">
	<g id="XMLID_480_">
		<line id="XMLID_494_" class="st0" x1="257.3" y1="99.9" x2="258.2" y2="102.2"/>
		<line id="XMLID_484_" class="st1" x1="259.9" y1="106.8" x2="304.9" y2="222.4"/>
		<line id="XMLID_482_" class="st0" x1="305.8" y1="224.7" x2="306.7" y2="227"/>
	</g>
</g>
<g id="XMLID_142_">
	<g id="XMLID_492_">
		<line id="XMLID_524_" class="st0" x1="174.6" y1="56.1" x2="145.8" y2="62.1"/>
		<g id="XMLID_520_">
			<polygon id="XMLID_522_" class="st2" points="175.1,62.3 172.6,50.4 179.8,55.1 			"/>
		</g>
		<g id="XMLID_506_">
			<polygon id="XMLID_518_" class="st2" points="147.8,67.8 145.4,55.9 140.6,63.1 			"/>
		</g>
	</g>
</g>
<g id="XMLID_144_">
	<g id="XMLID_498_">
		<line id="XMLID_504_" class="st0" x1="276.7" y1="85.1" x2="278.7" y2="86.5"/>
		<line id="XMLID_502_" class="st3" x1="282.8" y1="89.5" x2="313.4" y2="111.8"/>
		<line id="XMLID_500_" class="st0" x1="315.5" y1="113.2" x2="317.5" y2="114.7"/>
	</g>
</g>
<g id="XMLID_148_">
	<g id="XMLID_510_">
		<line id="XMLID_516_" class="st0" x1="206" y1="70.3" x2="204.3" y2="72.1"/>
		<line id="XMLID_514_" class="st4" x1="200.9" y1="75.9" x2="106.7" y2="179.9"/>
		<line id="XMLID_512_" class="st0" x1="105" y1="181.8" x2="103.3" y2="183.7"/>
	</g>
</g>
<path id="XMLID_5_" class="st5" d="M224.1,154.1c-3.6-2.1-5.7-3.2-9.8-2.5c-2.5,0.4-9.6,3.4-9.6,3.4s-2.5,9.8-2.5,15.5
	c0,9.9,13.6,45.6,13.6,45.6l8.6-4.9c0,0,17.9-14,17.9-25.6C242.3,174,234.1,159.9,224.1,154.1z M224.1,187.8
	c-5.8-3.4-10.6-11.6-10.6-18.3c0-6.8,3.9-8.7,8.1-5.8c5.6,3.8,10.8,12.1,10.8,18.9C232.3,189.3,229.9,191.1,224.1,187.8z"/>
<path id="XMLID_2_" class="st6" d="M215.8,157.1c-10.1-5.8-18.2-1.1-18.2,10.5c0,11.6,18.2,48.5,18.2,48.5s18.2-15.9,18.2-27.5
	C234,177,225.8,162.9,215.8,157.1z M215.8,190.8c-5.8-3.4-10.6-11.6-10.6-18.3c0-6.8,4.7-9.5,10.6-6.1c5.9,3.4,10.6,11.6,10.6,18.3
	C226.3,191.4,221.6,194.1,215.8,190.8z"/>
<g id="XMLID_120_">
	<g id="XMLID_187_">
		<path id="XMLID_118_" class="st7" d="M302.2,133.4l0.9-0.5l0.1-0.1l0.1,0l0.1,0l0.1,0l0.2,0l0.2,0.1l0.2,0.1l1.9,1.1l0.2,0.1
			l0.2,0.1c0.3,0.3,0.5,0.5,0.7,0.8l0.1,0.2l0.1,0.2l0.1,0.2l0.1,0.2l0.1,0.2l0.1,0.2l0,0.2l0,0.2l0,0.2v5.2l0,0.2l0,0.2l0,0.2
			l-0.1,0.2l-0.1,0.1l-0.1,0.1l-0.1,0.1l-0.1,0.1l-0.1,0.1l-0.9,0.5l0.1-0.1l-3.9-10.7L302.2,133.4z"/>
		<path id="XMLID_117_" class="st8" d="M303.2,133.5l1.9,1.1c0.9,0.5,1.6,1.9,1.6,3v5.2c0,1.2-0.7,1.7-1.6,1.2l-1.9-1.1
			c-0.9-0.5-1.6-1.9-1.6-3v-5.2C301.6,133.5,302.3,133,303.2,133.5z"/>
	</g>
	<g id="XMLID_183_">
		<polygon id="XMLID_116_" class="st9" points="389.5,118.5 422.2,137.4 422.2,140.6 389.5,121.7 		"/>
		<polygon id="XMLID_115_" class="st10" points="423.7,136.5 422.2,137.4 422.2,140.6 423.7,139.7 		"/>
		<polygon id="XMLID_114_" class="st11" points="423.7,136.5 422.2,137.4 389.5,118.5 391,117.6 		"/>
	</g>
	<polygon id="XMLID_113_" class="st12" points="413.9,138.4 400.1,137.3 400.1,138.4 351.1,153.9 351.1,152.9 352.3,174.2 
		352.3,179.6 413.9,143.9 	"/>
	<g id="XMLID_176_">
		<polygon id="XMLID_112_" class="st9" points="404.3,142.2 401.5,140.6 401,140.4 400.5,140.2 400,140.2 399.4,140.2 398.7,140.3 
			398.1,140.4 397.4,140.7 396.7,141.1 396.4,141.3 396,141.5 395.7,141.8 395.4,142 395,142.3 394.7,142.6 394.4,142.9 
			394.1,143.2 393.8,143.5 393.5,143.9 393.2,144.2 392.9,144.6 392.7,145 392.4,145.3 392.2,145.7 391.9,146.1 391.7,146.5 
			391.5,146.9 391.3,147.3 391.1,147.8 390.9,148.2 390.8,148.6 390.6,149 390.5,149.4 390.4,149.9 390.3,150.3 390.2,150.7 
			390.1,151.1 390,151.6 390,152 390,152.4 390,152.8 390,153.6 390.1,154.3 390.3,154.9 390.5,155.5 390.8,156 391.1,156.5 
			391.5,156.9 391.9,157.2 393.1,157.8 393.1,157.8 396.5,159.8 406.1,143.2 		"/>
		<path id="XMLID_111_" class="st10" d="M401.3,143.7c-3.7,2.2-6.8,7.4-6.8,11.7c0,4.3,3,6.1,6.8,3.9c3.7-2.2,6.8-7.4,6.8-11.7
			C408.1,143.3,405,141.6,401.3,143.7z"/>
		<path id="XMLID_110_" class="st7" d="M401.3,148.3c1.5-0.9,2.8-0.2,2.8,1.6c0,1.8-1.3,4-2.8,4.9c-1.5,0.9-2.8,0.2-2.8-1.6
			C398.5,151.4,399.8,149.2,401.3,148.3z"/>
		<path id="XMLID_109_" class="st8" d="M401.3,148.9c1.3-0.7,2.3-0.1,2.3,1.3c0,1.5-1,3.2-2.3,4c-1.3,0.7-2.3,0.1-2.3-1.3
			C399,151.4,400,149.6,401.3,148.9z"/>
		<path id="XMLID_108_" class="st9" d="M401.3,149.9c0.8-0.4,1.4-0.1,1.4,0.8c0,0.9-0.6,1.9-1.4,2.4c-0.8,0.4-1.4,0.1-1.4-0.8
			C399.9,151.4,400.5,150.4,401.3,149.9z"/>
	</g>
	<polygon id="XMLID_107_" class="st13" points="364.8,123.5 332.1,104.6 332.1,146.1 364.8,165 	"/>
	<polygon id="XMLID_106_" class="st14" points="364.8,123.5 424.6,88.8 424.6,133.3 364.8,167.9 	"/>
	<g id="XMLID_169_">
		<g id="XMLID_171_">
			<polygon id="XMLID_105_" class="st8" points="425.9,131.1 366.1,165.7 366.1,168.7 425.9,134 			"/>
			<polygon id="XMLID_104_" class="st7" points="425.9,131.1 366.1,165.7 364.8,165 424.6,130.3 			"/>
		</g>
		<polygon id="XMLID_103_" class="st8" points="366.1,168.7 366.1,165.7 364.8,165 364.8,167.9 		"/>
	</g>
	<polygon id="XMLID_102_" class="st13" points="424.6,88.8 364.8,123.5 332.1,104.6 391.9,70 	"/>
	<g id="XMLID_166_">
		<polygon id="XMLID_101_" class="st15" points="325.7,144.7 329.6,150.2 360.5,168.2 356.6,162.7 		"/>
	</g>
	<g id="XMLID_160_">
		<polygon id="XMLID_100_" class="st9" points="355.7,166.8 352.9,165.2 352.4,165 351.9,164.8 351.4,164.8 350.8,164.8 
			350.1,164.9 349.5,165.1 348.8,165.3 348.1,165.7 347.8,165.9 347.4,166.1 347.1,166.4 346.8,166.6 346.4,166.9 346.1,167.2 
			345.8,167.5 345.5,167.8 345.2,168.2 344.9,168.5 344.6,168.9 344.4,169.2 344.1,169.6 343.8,170 343.6,170.4 343.4,170.7 
			343.1,171.1 342.9,171.6 342.7,172 342.5,172.4 342.4,172.8 342.2,173.2 342,173.6 341.9,174.1 341.8,174.5 341.7,174.9 
			341.6,175.3 341.5,175.8 341.5,176.2 341.4,176.6 341.4,177 341.4,177.4 341.4,178.2 341.5,178.9 341.7,179.6 341.9,180.1 
			342.2,180.7 342.5,181.1 342.9,181.5 343.4,181.8 344.5,182.5 344.5,182.5 347.9,184.4 357.5,167.9 		"/>
		<path id="XMLID_99_" class="st10" d="M352.7,168.3c-3.7,2.2-6.8,7.4-6.8,11.7c0,4.3,3,6.1,6.8,3.9c3.7-2.2,6.8-7.4,6.8-11.7
			C359.5,167.9,356.4,166.2,352.7,168.3z"/>
		<path id="XMLID_98_" class="st7" d="M352.7,172.9c1.5-0.9,2.8-0.2,2.8,1.6c0,1.8-1.3,4-2.8,4.9c-1.5,0.9-2.8,0.2-2.8-1.6
			C349.9,176,351.2,173.8,352.7,172.9z"/>
		<path id="XMLID_97_" class="st8" d="M352.7,173.5c1.3-0.7,2.3-0.1,2.3,1.3c0,1.5-1,3.2-2.3,4c-1.3,0.7-2.3,0.1-2.3-1.3
			C350.4,176,351.4,174.2,352.7,173.5z"/>
		<path id="XMLID_96_" class="st9" d="M352.7,174.6c0.8-0.4,1.4-0.1,1.4,0.8c0,0.9-0.6,1.9-1.4,2.4c-0.8,0.4-1.4,0.1-1.4-0.8
			C351.3,176.1,352,175,352.7,174.6z"/>
	</g>
	<g id="XMLID_158_">
		<polygon id="XMLID_95_" class="st6" points="302.7,143.5 302.7,165.7 333.7,183.7 333.6,161.5 		"/>
	</g>
	<g id="XMLID_156_">
		<polygon id="XMLID_94_" class="st6" points="302.7,143.5 333.6,161.5 344.9,140 314,122 		"/>
	</g>
	<g id="XMLID_154_">
		<path id="XMLID_93_" class="st16" d="M342.2,139l-26-15.1c-1.1-0.6-2.4-0.2-3,0.9l-8.8,16.8c-0.5,1-0.2,2.3,0.8,2.9l26,15.1
			c1.1,0.6,2.4,0.2,3-0.9l8.8-16.8C343.6,140.9,343.2,139.6,342.2,139z"/>
	</g>
	<g id="XMLID_152_">
		<polygon id="XMLID_92_" class="st6" points="314,122 344.9,140 363,129.5 332.1,111.5 		"/>
	</g>
	<g id="XMLID_150_">
		<polygon id="XMLID_91_" class="st5" points="344.9,140 333.6,161.5 333.7,183.7 342.5,178.6 346.3,168.6 356.6,162.7 360.5,168.2 
			363.1,166.6 363,129.5 		"/>
	</g>
	<path id="XMLID_90_" class="st2" d="M352.2,136.7l-6.6,3.6c-0.1,0-0.2,0.1-0.2,0.2l-9.9,18.7c-0.2,0.4,0.3,0.9,0.7,0.7l16.5-9.7
		c0.2-0.1,0.2-0.3,0.2-0.4v-12.5C352.9,136.8,352.5,136.5,352.2,136.7z"/>
	<path id="XMLID_89_" class="st16" d="M335.4,159.2l16.4-9.6c0.2-0.1,0.2-0.3,0.2-0.4v-12.4l-6.5,3.5c-0.1,0-0.2,0.1-0.2,0.2
		L335.4,159.2C335.5,159.2,335.5,159.2,335.4,159.2z"/>
	<g id="XMLID_145_">
		<polygon id="XMLID_88_" class="st16" points="372.1,171.6 392.6,159.6 392.6,153.3 372.1,165.3 		"/>
		<polygon id="XMLID_87_" class="st17" points="372.1,171.6 372.1,165.3 366.5,168.5 		"/>
	</g>
	<g id="XMLID_140_" class="st18">
		<g id="XMLID_143_">
			<polygon id="XMLID_86_" class="st6" points="319.7,124.2 340.3,136.1 354.9,121.6 334.3,109.6 			"/>
		</g>
		<g id="XMLID_141_">
			<polygon id="XMLID_85_" class="st5" points="340.3,136.1 354.9,127.7 354.9,121.6 			"/>
		</g>
	</g>
	<g id="XMLID_136_">
		<path id="XMLID_84_" class="st7" d="M337.7,153.9l0.9-0.5l0.1-0.1l0.1,0l0.1,0l0.1,0l0.2,0l0.2,0.1l0.2,0.1l1.9,1.1l0.2,0.1
			l0.2,0.1c0.3,0.3,0.5,0.5,0.7,0.8l0.1,0.2l0.1,0.2l0.1,0.2l0.1,0.2l0.1,0.2l0.1,0.2l0,0.2l0,0.2l0,0.2v5.2l0,0.2l0,0.2l0,0.2
			l-0.1,0.2l-0.1,0.1l-0.1,0.1l-0.1,0.1l-0.1,0.1l-0.1,0.1l-0.9,0.5l0.1-0.1l-3.9-10.7L337.7,153.9z"/>
		<path id="XMLID_83_" class="st8" d="M338.7,154l1.9,1.1c0.9,0.5,1.6,1.9,1.6,3v5.2c0,1.2-0.7,1.7-1.6,1.2l-1.9-1.1
			c-0.9-0.5-1.6-1.9-1.6-3v-5.2C337.1,154,337.8,153.5,338.7,154z"/>
	</g>
	<g id="XMLID_132_">
		<path id="XMLID_82_" class="st9" d="M326.6,169.1c-1.7-1-3.1-0.2-3.1,1.8c0,2,1.4,4.4,3.1,5.4c1.7,1,3.1,0.2,3.1-1.8
			C329.7,172.6,328.3,170.1,326.6,169.1z"/>
		<polygon id="XMLID_81_" class="st10" points="328.8,176.6 329.9,175.9 330.1,175.8 330.3,175.6 330.5,175.4 330.6,175.2 
			330.7,174.9 330.8,174.6 330.8,174.3 330.8,173.9 330.8,173.5 330.8,173.2 330.7,172.8 330.6,172.4 330.5,172 330.3,171.6 
			330.1,171.2 329.9,170.8 329.7,170.5 329.5,170.1 329.2,169.8 328.9,169.5 328.6,169.2 328.3,168.9 328,168.7 327.7,168.5 
			327.4,168.3 327.1,168.2 326.8,168.1 326.5,168.1 326.2,168.1 326,168.1 325.7,168.2 325.5,168.3 324.4,168.9 324.6,168.8 
			324.9,168.7 325.1,168.7 325.4,168.7 325.7,168.8 326,168.8 326.3,169 326.6,169.1 326.9,169.3 327.2,169.6 327.5,169.8 
			327.8,170.1 328.1,170.4 328.4,170.8 328.6,171.1 328.8,171.5 329,171.8 329.2,172.2 329.4,172.6 329.5,173 329.6,173.4 
			329.7,173.8 329.7,174.2 329.7,174.5 329.7,174.9 329.7,175.2 329.6,175.5 329.5,175.8 329.4,176 329.2,176.3 329,176.4 		"/>
		<path id="XMLID_80_" class="st7" d="M326.6,170.1c-1.3-0.7-2.3-0.1-2.3,1.3c0,1.5,1,3.3,2.3,4c1.3,0.7,2.3,0.1,2.3-1.3
			C328.9,172.6,327.9,170.8,326.6,170.1z"/>
	</g>
	<g id="XMLID_128_">
		<path id="XMLID_79_" class="st9" d="M307.7,158c-1.7-1-3.1-0.2-3.1,1.8c0,2,1.4,4.4,3.1,5.4c1.7,1,3.1,0.2,3.1-1.8
			C310.9,161.4,309.5,159,307.7,158z"/>
		<polygon id="XMLID_78_" class="st10" points="310,165.4 311,164.8 311.3,164.7 311.4,164.5 311.6,164.3 311.7,164 311.8,163.8 
			311.9,163.5 311.9,163.1 312,162.8 311.9,162.4 311.9,162 311.8,161.6 311.7,161.2 311.6,160.8 311.4,160.5 311.3,160.1 
			311,159.7 310.8,159.3 310.6,159 310.3,158.7 310.1,158.4 309.8,158.1 309.5,157.8 309.2,157.6 308.8,157.4 308.5,157.2 
			308.2,157.1 307.9,157 307.6,156.9 307.4,156.9 307.1,157 306.9,157 306.6,157.1 305.5,157.8 305.8,157.7 306,157.6 306.3,157.6 
			306.5,157.6 306.8,157.6 307.1,157.7 307.4,157.8 307.7,158 308.1,158.2 308.4,158.4 308.7,158.7 309,159 309.2,159.3 
			309.5,159.6 309.7,160 310,160.3 310.2,160.7 310.3,161.1 310.5,161.5 310.6,161.9 310.7,162.3 310.8,162.6 310.9,163 
			310.9,163.4 310.9,163.8 310.8,164.1 310.7,164.4 310.6,164.7 310.5,164.9 310.3,165.1 310.2,165.3 		"/>
		<path id="XMLID_77_" class="st7" d="M307.7,158.9c-1.3-0.7-2.3-0.1-2.3,1.3c0,1.5,1,3.3,2.3,4c1.3,0.7,2.3,0.1,2.3-1.3
			C310.1,161.5,309,159.7,307.7,158.9z"/>
	</g>
	<path id="XMLID_76_" class="st10" d="M313.5,164.5L313.5,164.5c0-0.8,0.6-1.1,1.4-0.6l5.7,3.2c0.8,0.5,1.4,1.5,1.4,2.3l0,0
		c0,0.8-0.6,1.1-1.4,0.6l-5.7-3.2C314.2,166.3,313.5,165.2,313.5,164.5z"/>
	<g id="XMLID_121_">
		<g id="XMLID_123_">
			<path id="XMLID_124_" class="st9" d="M303.4,167l27.8,16h0l1,0.6l0.2,0.1l0.2,0.1l0.2,0.1l0.2,0.1l0.2,0.1l0.2,0l0.2,0l0.2,0
				l0.2,0l0.2,0l0.2,0l0.2,0l0.2,0l0.2-0.1l0.2-0.1l0.2-0.1l2.3-1.3l0.3-0.2l0.2-0.2l0.1-0.3l0-0.3v3.8l0,0.3l-0.1,0.3l-0.2,0.2
				l-0.3,0.2l-2.3,1.3l-0.2,0.1l-0.2,0.1l-0.2,0.1l-0.2,0l-0.2,0l-0.2,0l-0.2,0l-0.2,0l-0.2,0l-0.2,0l-0.2,0l-0.2-0.1l-0.2-0.1
				l-0.2-0.1l-0.2-0.1l-0.2-0.1l-1-0.6h0l-28.4-16.4v0l-1.6-0.9l-0.3-0.2l-0.2-0.3l-0.2-0.3l-0.1-0.3v-3.8l0.1,0.3l0.2,0.3l0.2,0.3
				l0.3,0.2l1.6,0.9v0l0,0v-1.8L303.4,167z M302.7,170.5L302.7,170.5v-3.8V170.5z"/>
		</g>
		<path id="XMLID_73_" class="st10" d="M337.6,180.5l-3.9,2.2l-31-17.8l0,0h0v-2.1l-1.8,1.1c-0.9,0.5-0.8,1.4,0.2,2l1.6,0.9v0
			l28.4,16.4h0l1,0.6c1,0.6,2.5,0.6,3.4,0.1l2.3-1.3C338.7,181.9,338.6,181.1,337.6,180.5z"/>
	</g>
</g>
<g id="XMLID_122_">
	<path id="XMLID_72_" class="st19" d="M41.9,215.5l8-4.6l0.5-2.1l-4.7-1.1c0,0-5.3,0.3-5.4,0.5c-0.1,0.2,0,1.1,0,1.3
		C40.3,209.7,41.9,215.5,41.9,215.5z"/>
	<g id="XMLID_214_">
		<polygon id="XMLID_71_" class="st9" points="56.8,217.3 56.8,217 56.8,216.6 56.7,216.3 56.7,216 56.6,215.7 56.5,215.3 56.4,215 
			56.3,214.7 56.2,214.3 56.1,214 55.9,213.7 55.8,213.3 55.6,213 55.4,212.7 55.3,212.4 55.1,212.1 54.9,211.8 54.7,211.5 
			54.5,211.2 54.3,210.9 54.1,210.6 53.8,210.4 53.6,210.1 53.3,209.8 53.1,209.6 52.8,209.4 52.6,209.2 52.3,209 52.1,208.8 
			51.8,208.6 51.5,208.4 51,208.1 50.5,207.9 49.9,207.8 49.5,207.7 49,207.7 48.6,207.8 48.1,207.9 47.8,208 46,209.1 44.2,210.1 
			51.7,223.1 52.2,222.8 52.2,222.8 54,221.8 54.4,221.5 54.4,221.5 55.3,221 55.6,220.8 55.9,220.5 56.2,220.2 56.4,219.8 
			56.6,219.3 56.7,218.8 56.8,218.2 56.8,217.6 		"/>
		<path id="XMLID_70_" class="st10" d="M48,210.5c2.9,1.7,5.3,5.8,5.3,9.2c0,3.4-2.4,4.8-5.3,3.1c-2.9-1.7-5.3-5.8-5.3-9.2
			S45.1,208.8,48,210.5z"/>
		<path id="XMLID_69_" class="st8" d="M48,212.6c1.9,1.1,3.4,3.7,3.4,5.9c0,2.2-1.5,3.1-3.4,2c-1.9-1.1-3.4-3.7-3.4-5.9
			C44.6,212.4,46.1,211.5,48,212.6z"/>
		<path id="XMLID_68_" class="st12" d="M48,213c1.7,1,3.1,3.4,3.1,5.4c0,2-1.4,2.8-3.1,1.8c-1.7-1-3.1-3.4-3.1-5.4
			C44.9,212.8,46.2,212,48,213z"/>
		<path id="XMLID_67_" class="st9" d="M48.4,214.7c0.4,0.2,0.8,0.6,1,1.1c0.3,0.5,0.4,1,0.4,1.4c0,0.5-0.2,0.8-0.4,0.9
			c-0.1,0.1-0.3,0.2-0.4,0.3c-0.3,0.2-0.6,0.1-1-0.1c-0.4-0.2-0.8-0.6-1-1.1c-0.3-0.5-0.4-1-0.4-1.4c0-0.5,0.2-0.8,0.4-0.9
			c0.1-0.1,0.3-0.2,0.4-0.3C47.6,214.4,48,214.4,48.4,214.7z"/>
		<path id="XMLID_66_" class="st10" d="M48,214.9c0.4,0.2,0.8,0.6,1,1.1c0.3,0.5,0.4,1,0.4,1.4c0,0.5-0.2,0.8-0.4,0.9
			c-0.3,0.2-0.6,0.1-1-0.1c-0.4-0.2-0.8-0.6-1-1.1c-0.3-0.5-0.4-1-0.4-1.4c0-0.5,0.2-0.8,0.4-0.9C47.2,214.6,47.6,214.7,48,214.9z"
			/>
		<path id="XMLID_65_" class="st9" d="M47.5,215.5c0.2,0.1,0.3,0.4,0.3,0.6c0,0.2-0.1,0.3-0.3,0.2c-0.2-0.1-0.3-0.4-0.3-0.6
			C47.2,215.5,47.3,215.4,47.5,215.5z"/>
		<path id="XMLID_64_" class="st9" d="M48.4,216.1c0.2,0.1,0.3,0.4,0.3,0.6c0,0.2-0.1,0.3-0.3,0.2c-0.2-0.1-0.3-0.4-0.3-0.6
			C48.1,216.1,48.2,216,48.4,216.1z"/>
		<path id="XMLID_63_" class="st9" d="M47.5,216.6c0.2,0.1,0.3,0.4,0.3,0.6c0,0.2-0.1,0.3-0.3,0.2c-0.2-0.1-0.3-0.4-0.3-0.6
			C47.2,216.5,47.3,216.5,47.5,216.6z"/>
		<path id="XMLID_62_" class="st9" d="M48.4,217.2c0.2,0.1,0.3,0.4,0.3,0.6c0,0.2-0.1,0.3-0.3,0.2c-0.2-0.1-0.3-0.4-0.3-0.6
			C48.1,217.1,48.2,217.1,48.4,217.2z"/>
		<path id="XMLID_215_" class="st7" d="M48,211.2c2.6,1.5,4.6,5.1,4.6,8c0,3-2.1,4.2-4.6,2.7c-2.6-1.5-4.6-5.1-4.6-8
			C43.3,210.9,45.4,209.7,48,211.2L48,211.2z M48,212c-2.2-1.3-4-0.2-4,2.3c0,2.5,1.8,5.6,4,6.9c2.2,1.3,4,0.2,4-2.3
			C52,216.4,50.2,213.3,48,212z"/>
	</g>
	<path id="XMLID_59_" class="st19" d="M42.1,216l8-4.6l0.5-2.1l-4.7-1.1c0,0-5.3,0.3-5.4,0.5s0,1.1,0,1.3
		C40.5,210.2,42.1,216,42.1,216z"/>
	<g id="XMLID_202_">
		<polygon id="XMLID_58_" class="st9" points="57,217.8 57,217.5 57,217.2 56.9,216.8 56.9,216.5 56.8,216.2 56.7,215.8 56.6,215.5 
			56.5,215.2 56.4,214.8 56.3,214.5 56.1,214.2 56,213.8 55.8,213.5 55.7,213.2 55.5,212.9 55.3,212.6 55.1,212.3 54.9,212 
			54.7,211.7 54.5,211.4 54.3,211.1 54,210.9 53.8,210.6 53.6,210.4 53.3,210.1 53.1,209.9 52.8,209.7 52.5,209.5 52.3,209.3 
			52,209.1 51.7,208.9 51.2,208.7 50.7,208.4 50.2,208.3 49.7,208.2 49.2,208.2 48.8,208.3 48.4,208.4 48,208.6 46.2,209.6 
			44.4,210.6 51.9,223.6 52.4,223.4 52.4,223.4 54.2,222.3 54.6,222.1 54.6,222.1 55.5,221.6 55.8,221.3 56.1,221 56.4,220.7 
			56.6,220.3 56.8,219.8 56.9,219.3 57,218.7 57,218.1 		"/>
		<path id="XMLID_57_" class="st10" d="M48.2,211c2.9,1.7,5.3,5.8,5.3,9.2c0,3.4-2.4,4.8-5.3,3.1c-2.9-1.7-5.3-5.8-5.3-9.2
			C42.9,210.7,45.3,209.3,48.2,211z"/>
		<path id="XMLID_56_" class="st8" d="M48.2,213.2c1.9,1.1,3.4,3.7,3.4,5.9c0,2.2-1.5,3.1-3.4,2c-1.9-1.1-3.4-3.7-3.4-5.9
			C44.8,212.9,46.3,212.1,48.2,213.2z"/>
		<path id="XMLID_55_" class="st12" d="M48.2,213.5c1.7,1,3.1,3.4,3.1,5.4c0,2-1.4,2.8-3.1,1.8c-1.7-1-3.1-3.4-3.1-5.4
			C45.1,213.3,46.5,212.5,48.2,213.5z"/>
		<path id="XMLID_54_" class="st9" d="M48.6,215.2c0.4,0.2,0.8,0.6,1,1.1c0.3,0.5,0.4,1,0.4,1.4c0,0.5-0.2,0.8-0.4,0.9
			c-0.1,0.1-0.3,0.2-0.4,0.3c-0.3,0.2-0.6,0.1-1-0.1c-0.4-0.2-0.8-0.6-1-1.1c-0.3-0.5-0.4-1-0.4-1.4c0-0.5,0.2-0.8,0.4-0.9
			c0.1-0.1,0.3-0.2,0.4-0.3C47.8,214.9,48.2,214.9,48.6,215.2z"/>
		<path id="XMLID_53_" class="st10" d="M48.2,215.4c0.4,0.2,0.8,0.6,1,1.1c0.3,0.5,0.4,1,0.4,1.4c0,0.5-0.2,0.8-0.4,0.9
			c-0.3,0.2-0.6,0.1-1-0.1c-0.4-0.2-0.8-0.6-1-1.1c-0.3-0.5-0.4-1-0.4-1.4c0-0.5,0.2-0.8,0.4-0.9C47.4,215.2,47.8,215.2,48.2,215.4z
			"/>
		<path id="XMLID_52_" class="st9" d="M47.7,216c0.2,0.1,0.3,0.4,0.3,0.6c0,0.2-0.1,0.3-0.3,0.2c-0.2-0.1-0.3-0.4-0.3-0.6
			C47.4,216,47.5,215.9,47.7,216z"/>
		<path id="XMLID_51_" class="st9" d="M48.6,216.6c0.2,0.1,0.3,0.4,0.3,0.6c0,0.2-0.1,0.3-0.3,0.2c-0.2-0.1-0.3-0.4-0.3-0.6
			C48.3,216.6,48.5,216.5,48.6,216.6z"/>
		<path id="XMLID_50_" class="st9" d="M47.7,217.1c0.2,0.1,0.3,0.4,0.3,0.6c0,0.2-0.1,0.3-0.3,0.2c-0.2-0.1-0.3-0.4-0.3-0.6
			C47.4,217,47.5,217,47.7,217.1z"/>
		<path id="XMLID_49_" class="st9" d="M48.6,217.7c0.2,0.1,0.3,0.4,0.3,0.6c0,0.2-0.1,0.3-0.3,0.2c-0.2-0.1-0.3-0.4-0.3-0.6
			C48.3,217.7,48.5,217.6,48.6,217.7z"/>
	</g>
	<path id="XMLID_48_" class="st19" d="M90.1,243l8-4.6l0.5-2.1l-4.7-1.1c0,0-5.3,0.3-5.4,0.5c-0.1,0.2,0,1.1,0,1.3
		C88.5,237.2,90.1,243,90.1,243z"/>
	<g id="XMLID_190_">
		<polygon id="XMLID_47_" class="st9" points="105,244.8 105,244.5 105,244.2 104.9,243.8 104.9,243.5 104.8,243.2 104.7,242.8 
			104.6,242.5 104.5,242.2 104.4,241.8 104.3,241.5 104.1,241.2 104,240.8 103.8,240.5 103.7,240.2 103.5,239.9 103.3,239.6 
			103.1,239.3 102.9,239 102.7,238.7 102.5,238.4 102.3,238.1 102,237.9 101.8,237.6 101.6,237.4 101.3,237.1 101.1,236.9 
			100.8,236.7 100.5,236.5 100.3,236.3 100,236.1 99.7,235.9 99.2,235.7 98.7,235.4 98.2,235.3 97.7,235.2 97.2,235.2 96.8,235.3 
			96.4,235.4 96,235.6 94.2,236.6 92.4,237.6 99.9,250.6 100.4,250.4 100.4,250.4 102.2,249.3 102.6,249.1 102.6,249.1 103.5,248.6 
			103.8,248.3 104.1,248 104.4,247.7 104.6,247.3 104.8,246.8 104.9,246.3 105,245.7 105,245.1 		"/>
		<path id="XMLID_46_" class="st10" d="M96.2,238c2.9,1.7,5.3,5.8,5.3,9.2c0,3.4-2.4,4.8-5.3,3.1c-2.9-1.7-5.3-5.8-5.3-9.2
			C90.9,237.7,93.3,236.3,96.2,238z"/>
		<path id="XMLID_45_" class="st8" d="M96.2,240.2c1.9,1.1,3.4,3.7,3.4,5.9c0,2.2-1.5,3.1-3.4,2c-1.9-1.1-3.4-3.7-3.4-5.9
			C92.8,239.9,94.3,239.1,96.2,240.2z"/>
		<path id="XMLID_44_" class="st12" d="M96.2,240.5c1.7,1,3.1,3.4,3.1,5.4c0,2-1.4,2.8-3.1,1.8c-1.7-1-3.1-3.4-3.1-5.4
			C93.1,240.3,94.5,239.5,96.2,240.5z"/>
		<path id="XMLID_43_" class="st9" d="M96.6,242.2c0.4,0.2,0.8,0.6,1,1.1c0.3,0.5,0.4,1,0.4,1.4c0,0.5-0.2,0.8-0.4,0.9
			c-0.1,0.1-0.3,0.2-0.4,0.3c-0.3,0.2-0.6,0.1-1-0.1c-0.4-0.2-0.8-0.6-1-1.1c-0.3-0.5-0.4-1-0.4-1.4c0-0.5,0.2-0.8,0.4-0.9
			c0.1-0.1,0.3-0.2,0.4-0.3C95.8,241.9,96.2,241.9,96.6,242.2z"/>
		<path id="XMLID_42_" class="st10" d="M96.2,242.4c0.4,0.2,0.8,0.6,1,1.1c0.3,0.5,0.4,1,0.4,1.4c0,0.5-0.2,0.8-0.4,0.9
			c-0.3,0.2-0.6,0.1-1-0.1c-0.4-0.2-0.8-0.6-1-1.1c-0.3-0.5-0.4-1-0.4-1.4c0-0.5,0.2-0.8,0.4-0.9C95.4,242.2,95.8,242.2,96.2,242.4z
			"/>
		<path id="XMLID_41_" class="st9" d="M95.7,243c0.2,0.1,0.3,0.4,0.3,0.6c0,0.2-0.1,0.3-0.3,0.2c-0.2-0.1-0.3-0.4-0.3-0.6
			C95.4,243,95.5,242.9,95.7,243z"/>
		<path id="XMLID_40_" class="st9" d="M96.6,243.6c0.2,0.1,0.3,0.4,0.3,0.6c0,0.2-0.1,0.3-0.3,0.2c-0.2-0.1-0.3-0.4-0.3-0.6
			C96.3,243.6,96.5,243.5,96.6,243.6z"/>
		<path id="XMLID_39_" class="st9" d="M95.7,244.1c0.2,0.1,0.3,0.4,0.3,0.6c0,0.2-0.1,0.3-0.3,0.2c-0.2-0.1-0.3-0.4-0.3-0.6
			C95.4,244,95.5,244,95.7,244.1z"/>
		<path id="XMLID_38_" class="st9" d="M96.6,244.7c0.2,0.1,0.3,0.4,0.3,0.6c0,0.2-0.1,0.3-0.3,0.2c-0.2-0.1-0.3-0.4-0.3-0.6
			C96.3,244.7,96.5,244.6,96.6,244.7z"/>
	</g>
	<path id="XMLID_37_" class="st6" d="M125.4,217.4c-1,0.6-2.1,1.2-3.1,1.8c-2.5,2-4.5,5.4-5,8.5c-0.6-2.5-2.6-3.6-5.1-2.7
		c-1,0.6-2,1.1-3,1.7l-5.5-10.5l-4.7-2.7c-0.1-0.3-0.2-0.7-0.3-1c-0.3-1.1-1-2.2-2.5-3.1c-7.4-4.3-25.9-14.7-33.3-19
		c-7.4-4.3-9.2-5.3-16.6-9.6c-1.5-0.9-2.1-1.9-4-2c-0.1,0-0.1,0-0.2,0c-0.7,2.6-3.6,9.1-3.6,12.6c0,0.7,0,1.5,0,2.2
		c0,4.9,0,9.8,0,14.7c0,1.3,0,2.5,0,3.7c0,1.1,1,2.2,2.5,3.1l0.4,0.2l0.4,0.2l0.1,0.1V213l0,0c0-3.9,2.7-5.4,6.1-3.5
		c3.4,1.9,6.1,6.6,6.1,10.5v2.5l1,0.6l0.3,0.2l0.3,0.2l0.1,0l4.4,2.5l28.5,16.1l0.2,0.1l1.4,0.8v-2.5l0,0c0-3.9,2.7-5.4,6.1-3.5
		c3.4,1.9,6.1,6.6,6.1,10.5v2.5l11.6,5.7l0-4.8c2.8-2-1.2-7.9,1.9-9.7c3.2-1.8,6.4-3.7,9.6-5.5c1.3-0.8,1.8-1.8,1.8-2.9
		c0-5.6,0-12.7,0-18.4C127.2,215.6,126.7,216.6,125.4,217.4z"/>
	<g id="XMLID_184_">
		<polygon id="XMLID_36_" class="st9" points="41.6,211.8 41.6,215.8 40.4,216.5 40.4,212.5 		"/>
		<polygon id="XMLID_35_" class="st10" points="40.4,212.5 40.4,216.5 40.3,216.4 40.1,216.3 40,216.3 39.9,216.2 39.7,216.1 
			39.6,216 39.5,215.9 39.3,215.8 39.2,215.7 39.1,215.6 39,215.5 38.8,215.4 38.7,215.3 38.6,215.2 38.5,215.1 38.4,215 
			38.3,214.9 38.2,214.7 38.1,214.6 38,214.5 37.9,214.3 37.8,214.2 37.8,214 37.7,213.9 37.6,213.7 37.6,213.6 37.5,213.4 
			37.4,213.2 37.4,213 37.4,212.9 37.3,212.7 37.3,212.5 37.3,212.4 37.3,212.2 37.3,212.1 37.3,208.2 37.3,208.3 37.3,208.4 
			37.3,208.5 37.3,208.7 37.4,208.9 37.4,209.1 37.4,209.3 37.5,209.5 37.6,209.6 37.6,209.8 37.7,209.9 37.8,210.1 37.8,210.3 
			37.9,210.4 38,210.5 38.1,210.7 38.2,210.8 38.3,210.9 38.4,211 38.5,211.2 38.6,211.3 38.7,211.4 38.8,211.5 39,211.6 
			39.1,211.7 39.2,211.8 39.3,211.9 39.5,212 39.6,212.1 39.7,212.2 39.9,212.2 40,212.3 40.1,212.4 40.3,212.5 		"/>
		<path id="XMLID_34_" class="st20" d="M41.6,211.8l-1.2,0.7c-1.5-0.7-2.9-1.9-3.1-4c-0.1-1.3,0.4-2.4,1.2-3.3v2.8v0.3
			c0,1.1,1,2.2,2.5,3.1L41.6,211.8z"/>
	</g>
	<g id="XMLID_180_">
		<linearGradient id="XMLID_450_" gradientUnits="userSpaceOnUse" x1="49.99" y1="192.1657" x2="50.84" y2="194.501">
			<stop  offset="0" style="stop-color:#A6A69D"/>
			<stop  offset="1" style="stop-color:#FFFFFF"/>
		</linearGradient>
		<path id="XMLID_33_" class="st21" d="M45.9,185.8l1.7,1l7.5,4.3c0.2,0.1,0.5,0.4,0.6,0.7c0.2,0.3,0.3,0.6,0.3,1v4.6v3.4
			c0,0.3-0.1,0.5-0.3,0.7c-0.2,0.1-0.4,0.1-0.6,0l-7.5-4.3l-1.7-1c-0.2-0.1-0.4-0.4-0.6-0.7c-0.2-0.3-0.3-0.6-0.3-1V191v-4.6
			c0-0.3,0.1-0.5,0.3-0.7C45.5,185.7,45.7,185.7,45.9,185.8z"/>
		<path id="XMLID_32_" class="st10" d="M55.9,201.2c-0.1,0-0.2,0-0.3-0.1l-7.5-4.3l-1.7-1c-0.2-0.1-0.5-0.4-0.6-0.7
			c-0.2-0.3-0.3-0.6-0.3-1v-3.4v-4.6c0-0.2,0-0.3,0.1-0.5c0.1,0,0.2,0,0.3,0.1l1.7,1l7.5,4.3c0.2,0.1,0.5,0.4,0.6,0.7
			c0.2,0.3,0.3,0.6,0.3,1v4.6v3.4C56,200.9,55.9,201.1,55.9,201.2z"/>
	</g>
	<g id="XMLID_177_">
		<linearGradient id="XMLID_456_" gradientUnits="userSpaceOnUse" x1="63.654" y1="199.8966" x2="64.5849" y2="202.4542">
			<stop  offset="0" style="stop-color:#A6A69D"/>
			<stop  offset="1" style="stop-color:#FFFFFF"/>
		</linearGradient>
		<path id="XMLID_31_" class="st22" d="M58.6,193.1l1.7,1l9.5,5.4c0.2,0.1,0.5,0.4,0.6,0.7c0.2,0.3,0.3,0.6,0.3,1v4.6v3.4
			c0,0.3-0.1,0.5-0.3,0.7c-0.2,0.1-0.4,0.1-0.6,0l-9.5-5.4l-1.7-1c-0.2-0.1-0.4-0.4-0.6-0.7c-0.2-0.3-0.3-0.6-0.3-1v-3.4v-4.6
			c0-0.3,0.1-0.5,0.3-0.7C58.2,193,58.4,193,58.6,193.1z"/>
		<path id="XMLID_30_" class="st10" d="M70.6,209.6c-0.1,0-0.2,0-0.3-0.1l-9.5-5.4l-1.7-1c-0.2-0.1-0.5-0.4-0.6-0.7
			c-0.2-0.3-0.3-0.6-0.3-1v-3.4v-4.6c0-0.2,0-0.3,0.1-0.5c0.1,0,0.2,0,0.3,0.1l1.7,1l9.5,5.4c0.2,0.1,0.5,0.4,0.6,0.7
			c0.2,0.3,0.3,0.6,0.3,1v4.6v3.4C70.7,209.3,70.6,209.5,70.6,209.6z"/>
	</g>
	<g id="XMLID_173_">
		<linearGradient id="XMLID_458_" gradientUnits="userSpaceOnUse" x1="78.6567" y1="208.5366" x2="79.5876" y2="211.0942">
			<stop  offset="0" style="stop-color:#A6A69D"/>
			<stop  offset="1" style="stop-color:#FFFFFF"/>
		</linearGradient>
		<path id="XMLID_29_" class="st23" d="M73.7,201.8l1.7,1l9.5,5.4c0.2,0.1,0.5,0.4,0.6,0.7c0.2,0.3,0.3,0.6,0.3,1v4.6v3.4
			c0,0.3-0.1,0.5-0.3,0.7c-0.2,0.1-0.4,0.1-0.6,0l-9.5-5.4l-1.7-1c-0.2-0.1-0.4-0.4-0.6-0.7c-0.2-0.3-0.3-0.6-0.3-1V207v-4.6
			c0-0.3,0.1-0.5,0.3-0.7C73.2,201.6,73.4,201.6,73.7,201.8z"/>
		<path id="XMLID_28_" class="st10" d="M85.6,218.3c-0.1,0-0.2,0-0.3-0.1l-9.5-5.4l-1.7-1c-0.2-0.1-0.5-0.4-0.6-0.7
			c-0.2-0.3-0.3-0.6-0.3-1v-3.4v-4.6c0-0.2,0-0.3,0.1-0.5c0.1,0,0.2,0,0.3,0.1l1.7,1l9.5,5.4c0.2,0.1,0.5,0.4,0.6,0.7
			c0.2,0.3,0.3,0.6,0.3,1v4.6v3.4C85.7,218,85.6,218.1,85.6,218.3z"/>
	</g>
	<g id="XMLID_168_">
		<path id="XMLID_27_" class="st9" d="M142.4,210.2l-0.8-0.5l-0.1,0l-0.1,0l-0.1,0l-0.1,0l-0.1,0l-0.1,0.1l-0.1,0.1l-1.8,1l-0.1,0.1
			l-0.1,0.1c-0.3,0.3-0.4,0.4-0.6,0.8l-0.1,0.2l-0.1,0.2l-0.1,0.2l-0.1,0.2l-0.1,0.2l0,0.2l0,0.2l0,0.2l0,0.2v4.7l0,0.2l0,0.2l0,0.2
			l0,0.1l0.1,0.1l0.1,0.1l0.1,0.1l0.1,0.1l0.1,0.1l0.8,0.5l-0.1-0.1l3.6-9.7L142.4,210.2z"/>
		<path id="XMLID_26_" class="st19" d="M141.5,210.3l-1.8,1c-0.8,0.5-1.4,1.7-1.4,2.7v4.7c0,1,0.6,1.5,1.4,1.1l1.8-1
			c0.8-0.5,1.4-1.7,1.4-2.7v-4.7C142.9,210.3,142.3,209.8,141.5,210.3z"/>
	</g>
	<g id="XMLID_165_">
		<polygon id="XMLID_25_" class="st5" points="142,219.4 141.9,239.5 113.9,255.8 114,235.7 		"/>
	</g>
	<g id="XMLID_163_">
		<polygon id="XMLID_24_" class="st24" points="142,219.4 114,235.7 103.7,216.2 131.8,199.9 		"/>
	</g>
	<g id="XMLID_161_">
		<path id="XMLID_23_" class="st16" d="M106.1,215.3l23.5-13.7c1-0.6,2.2-0.2,2.7,0.8l8,15.2c0.5,0.9,0.2,2.1-0.7,2.6l-23.5,13.7
			c-1,0.6-2.2,0.2-2.7-0.8l-8-15.2C104.9,217,105.2,215.8,106.1,215.3z"/>
	</g>
	<path id="XMLID_22_" class="st16" d="M111,233.6l-19-11.1c-0.1-0.1-0.2-0.2-0.2-0.4v-11.2l10.1,5.5c0.1,0,0.1,0.1,0.2,0.2
		L111,233.6C111,233.6,111,233.6,111,233.6z"/>
	<g id="XMLID_153_">
		<path id="XMLID_21_" class="st9" d="M110.2,228.8l-0.8-0.5l-0.1,0l-0.1,0l-0.1,0l-0.1,0l-0.1,0l-0.1,0.1l-0.1,0.1l-1.8,1l-0.1,0.1
			l-0.1,0.1c-0.3,0.3-0.4,0.4-0.6,0.8l-0.1,0.2l-0.1,0.2l-0.1,0.2l-0.1,0.2l-0.1,0.2l0,0.2l0,0.2l0,0.2l0,0.2v4.7l0,0.2l0,0.2l0,0.2
			l0,0.1l0.1,0.1l0.1,0.1l0.1,0.1l0.1,0.1l0.1,0.1l0.8,0.5l-0.1-0.1l3.6-9.7L110.2,228.8z"/>
		<path id="XMLID_20_" class="st19" d="M109.3,228.8l-1.8,1c-0.8,0.5-1.4,1.7-1.4,2.7v4.7c0,1,0.6,1.5,1.4,1.1l1.8-1
			c0.8-0.5,1.4-1.7,1.4-2.7v-4.7C110.8,228.9,110.1,228.4,109.3,228.8z"/>
	</g>
	<g id="XMLID_147_">
		<path id="XMLID_19_" class="st9" d="M120.3,242.6c1.6-0.9,2.8-0.2,2.8,1.6c0,1.8-1.3,4-2.8,4.9c-1.6,0.9-2.8,0.2-2.8-1.6
			C117.5,245.7,118.7,243.5,120.3,242.6z"/>
		<polygon id="XMLID_18_" class="st10" points="118.3,249.3 117.3,248.7 117.1,248.6 116.9,248.4 116.8,248.3 116.7,248 
			116.6,247.8 116.5,247.5 116.5,247.2 116.5,246.9 116.5,246.6 116.5,246.2 116.6,245.9 116.7,245.5 116.8,245.1 116.9,244.8 
			117.1,244.4 117.3,244.1 117.5,243.8 117.7,243.5 117.9,243.2 118.2,242.9 118.5,242.6 118.7,242.4 119,242.2 119.3,242 
			119.6,241.8 119.9,241.7 120.1,241.7 120.4,241.6 120.6,241.6 120.9,241.6 121.1,241.7 121.3,241.8 122.3,242.4 122.1,242.3 
			121.9,242.2 121.6,242.2 121.4,242.2 121.1,242.2 120.9,242.3 120.6,242.4 120.3,242.6 120,242.8 119.7,243 119.4,243.2 
			119.2,243.5 118.9,243.7 118.7,244 118.5,244.4 118.3,244.7 118.1,245 117.9,245.4 117.8,245.7 117.7,246.1 117.6,246.4 
			117.5,246.8 117.5,247.1 117.5,247.5 117.5,247.8 117.5,248.1 117.6,248.4 117.7,248.6 117.8,248.8 117.9,249 118.1,249.2 		"/>
		<path id="XMLID_17_" class="st7" d="M120.3,243.4c1.2-0.7,2.1-0.1,2.1,1.2c0,1.3-0.9,3-2.1,3.6c-1.2,0.7-2.1,0.1-2.1-1.2
			C118.2,245.7,119.1,244.1,120.3,243.4z"/>
	</g>
	<g id="XMLID_138_">
		<path id="XMLID_16_" class="st9" d="M137.4,232.5c1.6-0.9,2.8-0.2,2.8,1.6c0,1.8-1.3,4-2.8,4.9c-1.6,0.9-2.8,0.2-2.8-1.6
			C134.6,235.6,135.8,233.4,137.4,232.5z"/>
		<polygon id="XMLID_15_" class="st10" points="135.4,239.2 134.4,238.6 134.2,238.5 134,238.4 133.9,238.2 133.8,238 133.7,237.7 
			133.6,237.4 133.6,237.1 133.6,236.8 133.6,236.5 133.6,236.1 133.7,235.8 133.8,235.4 133.9,235.1 134,234.7 134.2,234.4 
			134.4,234 134.6,233.7 134.8,233.4 135,233.1 135.3,232.8 135.6,232.5 135.8,232.3 136.1,232.1 136.4,231.9 136.7,231.8 
			137,231.6 137.2,231.6 137.5,231.5 137.7,231.5 138,231.6 138.2,231.6 138.4,231.7 139.4,232.3 139.2,232.2 139,232.1 
			138.7,232.1 138.5,232.1 138.2,232.1 138,232.2 137.7,232.3 137.4,232.5 137.1,232.7 136.8,232.9 136.5,233.1 136.3,233.4 
			136,233.7 135.8,234 135.6,234.3 135.4,234.6 135.2,234.9 135,235.3 134.9,235.6 134.8,236 134.7,236.3 134.6,236.7 134.6,237 
			134.6,237.4 134.6,237.7 134.6,238 134.7,238.3 134.8,238.5 134.9,238.7 135,238.9 135.2,239.1 		"/>
		<path id="XMLID_14_" class="st7" d="M137.4,233.3c1.2-0.7,2.1-0.1,2.1,1.2c0,1.3-0.9,3-2.1,3.6c-1.2,0.7-2.1,0.1-2.1-1.2
			C135.3,235.6,136.2,234,137.4,233.3z"/>
	</g>
	<path id="XMLID_13_" class="st10" d="M132.2,238.3L132.2,238.3c0-0.7-0.6-1-1.3-0.6l-5.1,2.9c-0.7,0.4-1.3,1.3-1.3,2.1l0,0
		c0,0.7,0.6,1,1.3,0.6l5.1-2.9C131.6,240,132.2,239,132.2,238.3z"/>
	<g id="XMLID_129_">
		<g id="XMLID_131_">
			<path id="XMLID_133_" class="st9" d="M142,238.7v1.6l0,0v0l1.4-0.8l0.3-0.2l0.2-0.2l0.1-0.2l0.1-0.2v3.4l-0.1,0.2l-0.1,0.2
				l-0.2,0.2l-0.3,0.2l-1.4,0.8v0l-25.7,14.8h0l-0.9,0.5l-0.2,0.1l-0.2,0.1l-0.2,0.1l-0.2,0.1l-0.2,0l-0.2,0l-0.2,0l-0.2,0l-0.2,0
				l-0.2,0l-0.2,0l-0.2,0l-0.2,0l-0.2-0.1l-0.2-0.1l-0.2-0.1l-2.1-1.2l-0.3-0.2l-0.2-0.2l-0.1-0.2l0-0.2v-3.4l0,0.2l0.1,0.2l0.2,0.2
				l0.3,0.2l2.1,1.2l0.2,0.1l0.2,0.1l0.2,0.1l0.2,0l0.2,0l0.2,0l0.2,0l0.2,0l0.2,0l0.2,0l0.2,0l0.2,0l0.2-0.1l0.2-0.1l0.2-0.1
				l0.2-0.1l0.9-0.5h0l25.1-14.5L142,238.7z M142,240.4v3.4v0V240.4z"/>
		</g>
		<path id="XMLID_10_" class="st10" d="M110.4,252.8l3.5,2l28.1-16.2l0,0h0v-1.9l1.7,1c0.8,0.5,0.7,1.3-0.2,1.8l-1.4,0.8v0
			l-25.7,14.8h0l-0.9,0.5c-0.9,0.5-2.3,0.6-3.1,0.1l-2.1-1.2C109.4,254.2,109.5,253.4,110.4,252.8z"/>
	</g>
	<path id="XMLID_9_" class="st19" d="M93.2,228.2l-2.2-1.3c-0.2-0.1-0.4-0.5-0.4-0.7l0,0c0-0.3,0.2-0.4,0.4-0.3l2.2,1.3
		c0.2,0.1,0.4,0.5,0.4,0.7l0,0C93.6,228.2,93.4,228.3,93.2,228.2z"/>
	<path id="XMLID_8_" class="st25" d="M88.8,205.1c-0.2-0.1-0.4-0.2-0.6-0.3V242l0.4,0.2l0.2,0.1l0,0V205.1z"/>
	<path id="XMLID_119_" class="st26" d="M131.8,199.9l-12.8-7.4c0,0,0,0,0,0l-19-11.1l-27-15.3c-1.5-0.9-3.4-1.3-5.2-1.4
		c-1.8-0.1-3.6,0.3-4.9,1l-9.4,5.4l-9.4,5.4c-1.3,0.8-1.9,1.8-1.7,2.9c0.1,1.1,1,2.2,2.5,3l16.3,9.4l29.8,17c0,0,0.1,0,0.1,0l13,7.4
		L131.8,199.9z"/>
</g>
<g id="XMLID_192_">
	<polygon id="XMLID_193_" class="st27" points="299.3,231 294.5,257.8 290.4,263.4 290.4,275.4 375.4,227.3 375.4,187.9 	"/>
	<g id="XMLID_194_">
		<g id="XMLID_195_">
			<g id="XMLID_262_" class="st18">
				<path id="XMLID_265_" class="st28" d="M347.3,273.4c-0.1-0.1-0.2-0.1-0.3-0.2c0,0,0,0-0.1,0c0,0-0.1,0-0.1,0
					c-0.1,0-0.1,0-0.2-0.1c-0.1,0-0.1,0-0.2,0c0,0-0.1,0-0.1,0c0,0,0,0-0.1,0c-0.1,0-0.3,0-0.4-0.1c0,0,0,0,0,0c0,0-0.1,0-0.1,0
					c-0.1,0-0.2,0-0.3,0c0,0-0.1,0-0.1,0c-0.1,0-0.1,0-0.2,0c-0.1,0-0.1,0-0.2,0c-0.1,0-0.1,0-0.2,0c-0.1,0-0.2,0-0.3,0.1
					c-0.1,0-0.1,0-0.2,0c-0.1,0-0.2,0.1-0.3,0.1c0,0,0,0,0,0c-0.1,0-0.3,0.1-0.4,0.2c-0.1,0-0.1,0.1-0.2,0.1c-0.1,0-0.1,0-0.2,0.1
					c-0.2,0.1-0.4,0.2-0.6,0.3c-0.2,0.1-0.4,0.3-0.7,0.4c-0.1,0-0.1,0.1-0.2,0.1c-0.1,0.1-0.3,0.2-0.4,0.3c-0.1,0.1-0.2,0.1-0.2,0.2
					c-0.1,0.1-0.3,0.2-0.4,0.3c-0.1,0.1-0.2,0.1-0.2,0.2c0,0-0.1,0.1-0.1,0.1c-0.1,0-0.1,0.1-0.1,0.2c-0.2,0.2-0.3,0.3-0.5,0.5
					c0,0.1-0.1,0.1-0.1,0.2c0,0-0.1,0.1-0.1,0.1c-0.1,0.1-0.2,0.2-0.3,0.3c-0.1,0.1-0.1,0.1-0.2,0.2c0,0.1-0.1,0.1-0.1,0.2
					c-0.1,0.1-0.1,0.2-0.2,0.3c0,0.1-0.1,0.1-0.1,0.2c-0.1,0.1-0.1,0.2-0.2,0.3c0,0.1-0.1,0.1-0.1,0.2c0,0,0,0.1-0.1,0.1
					c-0.1,0.2-0.2,0.4-0.4,0.6c0,0,0,0,0,0c0,0,0,0.1-0.1,0.1c-0.1,0.1-0.2,0.3-0.2,0.4c0,0.1-0.1,0.1-0.1,0.2
					c0,0.1-0.1,0.1-0.1,0.2c0,0.1-0.1,0.1-0.1,0.2c-0.1,0.2-0.2,0.3-0.2,0.5c0,0,0,0.1,0,0.1c0,0,0,0,0,0c-0.1,0.2-0.2,0.4-0.3,0.6
					c0,0,0,0.1,0,0.1c0,0.1-0.1,0.1-0.1,0.2c0,0.1-0.1,0.2-0.1,0.3c0,0.1-0.1,0.2-0.1,0.2c0,0.1-0.1,0.2-0.1,0.3
					c0,0.1,0,0.1-0.1,0.2c0,0.1-0.1,0.2-0.1,0.3c0,0.1-0.1,0.2-0.1,0.3c0,0,0,0.1,0,0.1c0,0.1,0,0.2,0,0.2c0,0.2-0.1,0.4-0.1,0.5
					c0,0,0,0.1,0,0.2c0,0.1,0,0.2,0,0.3c0,0.1,0,0.2,0,0.2c0,0.3,0,0.5,0,0.8c0,2.1,0.7,3.7,1.9,4.4l4.3,2.5c-1.2-0.7-2-2.2-1.9-4.4
					c0-0.2,0-0.5,0-0.8c0-0.1,0-0.2,0-0.2c0-0.2,0-0.3,0.1-0.5c0-0.2,0.1-0.4,0.1-0.5c0-0.1,0-0.2,0.1-0.4c0-0.1,0.1-0.2,0.1-0.4
					c0-0.2,0.1-0.3,0.1-0.5c0-0.1,0.1-0.2,0.1-0.3c0.1-0.2,0.1-0.4,0.2-0.5c0-0.1,0.1-0.1,0.1-0.2c0.1-0.2,0.2-0.5,0.3-0.7
					c0,0,0-0.1,0-0.1c0.1-0.2,0.2-0.4,0.3-0.7c0-0.1,0.1-0.1,0.1-0.2c0.1-0.2,0.2-0.4,0.3-0.6c0,0,0-0.1,0.1-0.1
					c0.1-0.2,0.3-0.5,0.4-0.7c0-0.1,0.1-0.1,0.1-0.2c0.1-0.2,0.2-0.3,0.3-0.5c0.1-0.1,0.1-0.2,0.2-0.3c0.1-0.1,0.2-0.3,0.3-0.4
					c0.1-0.1,0.2-0.2,0.3-0.3c0.1-0.1,0.2-0.2,0.3-0.3c0.2-0.2,0.3-0.3,0.5-0.5c0.1-0.1,0.2-0.2,0.3-0.3c0.1-0.1,0.2-0.1,0.2-0.2
					c0.1-0.1,0.3-0.2,0.4-0.3c0.1-0.1,0.2-0.1,0.2-0.2c0.1-0.1,0.3-0.2,0.4-0.3c0.1,0,0.1-0.1,0.2-0.1c0.2-0.1,0.4-0.3,0.7-0.4
					c0.2-0.1,0.4-0.2,0.6-0.3c0.1,0,0.1,0,0.2-0.1c0.2-0.1,0.4-0.2,0.6-0.2c0,0,0,0,0,0c0.2-0.1,0.3-0.1,0.5-0.1
					c0.1,0,0.2,0,0.3-0.1c0.1,0,0.2,0,0.4-0.1c0.1,0,0.1,0,0.2,0c0.1,0,0.3,0,0.4,0c0,0,0.1,0,0.1,0c0.2,0,0.3,0,0.5,0.1
					c0,0,0.1,0,0.1,0c0.1,0,0.3,0.1,0.4,0.1c0,0,0.1,0,0.1,0c0.2,0.1,0.3,0.1,0.4,0.2L347.3,273.4
					C347.3,273.4,347.3,273.4,347.3,273.4z"/>
				<g id="XMLID_197_">
					<path id="XMLID_264_" class="st16" d="M346.7,276.4c-3.8,2.1-6.9,7.4-6.9,11.7c0,4.3,3,6.1,6.8,4c3.8-2.1,6.9-7.3,6.9-11.7
						C353.6,276.1,350.5,274.3,346.7,276.4z"/>
				</g>
			</g>
		</g>
		<g id="XMLID_196_">
			<g id="XMLID_258_" class="st18">
				<g id="XMLID_199_">
					<path id="XMLID_260_" class="st29" d="M346.7,280.2c-2,1.1-3.6,3.8-3.6,6.1c0,2.2,1.6,3.2,3.5,2.1c2-1.1,3.6-3.8,3.6-6.1
						C350.2,280,348.7,279.1,346.7,280.2z"/>
				</g>
			</g>
		</g>
	</g>
	<g id="XMLID_198_">
		<g id="XMLID_200_">
			<g id="XMLID_252_" class="st18">
				<path id="XMLID_255_" class="st28" d="M394.7,247.4c-0.1-0.1-0.2-0.1-0.3-0.2c0,0,0,0-0.1,0c0,0-0.1,0-0.1,0
					c-0.1,0-0.1,0-0.2-0.1c-0.1,0-0.1,0-0.2,0c0,0-0.1,0-0.1,0c0,0,0,0-0.1,0c-0.1,0-0.3,0-0.4-0.1c0,0,0,0,0,0c0,0-0.1,0-0.1,0
					c-0.1,0-0.2,0-0.3,0c0,0-0.1,0-0.1,0c-0.1,0-0.1,0-0.2,0c-0.1,0-0.1,0-0.2,0c-0.1,0-0.1,0-0.2,0c-0.1,0-0.2,0-0.3,0.1
					c-0.1,0-0.1,0-0.2,0c-0.1,0-0.2,0.1-0.3,0.1c0,0,0,0,0,0c-0.1,0-0.3,0.1-0.4,0.2c-0.1,0-0.1,0.1-0.2,0.1c-0.1,0-0.1,0-0.2,0.1
					c-0.2,0.1-0.4,0.2-0.6,0.3c-0.2,0.1-0.4,0.3-0.7,0.4c-0.1,0-0.1,0.1-0.2,0.1c-0.1,0.1-0.3,0.2-0.4,0.3c-0.1,0.1-0.2,0.1-0.2,0.2
					c-0.1,0.1-0.3,0.2-0.4,0.3c-0.1,0.1-0.2,0.1-0.2,0.2c0,0-0.1,0.1-0.1,0.1c-0.1,0-0.1,0.1-0.1,0.2c-0.2,0.2-0.3,0.3-0.5,0.5
					c0,0.1-0.1,0.1-0.1,0.2c0,0-0.1,0.1-0.1,0.1c-0.1,0.1-0.2,0.2-0.3,0.3c-0.1,0.1-0.1,0.1-0.2,0.2c0,0.1-0.1,0.1-0.1,0.2
					c-0.1,0.1-0.1,0.2-0.2,0.3c0,0.1-0.1,0.1-0.1,0.2c-0.1,0.1-0.1,0.2-0.2,0.3c0,0.1-0.1,0.1-0.1,0.2c0,0,0,0.1-0.1,0.1
					c-0.1,0.2-0.2,0.4-0.4,0.6c0,0,0,0,0,0c0,0,0,0.1-0.1,0.1c-0.1,0.1-0.2,0.3-0.2,0.4c0,0.1-0.1,0.1-0.1,0.2
					c0,0.1-0.1,0.1-0.1,0.2c0,0.1-0.1,0.1-0.1,0.2c-0.1,0.2-0.2,0.3-0.2,0.5c0,0,0,0.1,0,0.1c0,0,0,0,0,0c-0.1,0.2-0.2,0.4-0.3,0.6
					c0,0,0,0.1,0,0.1c0,0.1-0.1,0.1-0.1,0.2c0,0.1-0.1,0.2-0.1,0.3c0,0.1-0.1,0.2-0.1,0.2c0,0.1-0.1,0.2-0.1,0.3
					c0,0.1,0,0.1-0.1,0.2c0,0.1-0.1,0.2-0.1,0.3c0,0.1-0.1,0.2-0.1,0.3c0,0,0,0.1,0,0.1c0,0.1,0,0.2,0,0.2c0,0.2-0.1,0.4-0.1,0.5
					c0,0,0,0.1,0,0.1c0,0.1,0,0.2,0,0.3c0,0.1,0,0.2,0,0.2c0,0.3,0,0.5,0,0.8c0,2.1,0.7,3.7,1.9,4.4l4.3,2.5c-1.2-0.7-2-2.2-1.9-4.4
					c0-0.2,0-0.5,0-0.8c0-0.1,0-0.2,0-0.2c0-0.2,0-0.3,0.1-0.5c0-0.2,0.1-0.4,0.1-0.5c0-0.1,0-0.2,0.1-0.4c0-0.1,0.1-0.2,0.1-0.3
					c0-0.2,0.1-0.3,0.1-0.5c0-0.1,0.1-0.2,0.1-0.3c0.1-0.2,0.1-0.4,0.2-0.5c0-0.1,0.1-0.2,0.1-0.2c0.1-0.2,0.2-0.5,0.3-0.7
					c0,0,0-0.1,0-0.1c0.1-0.2,0.2-0.4,0.3-0.7c0-0.1,0.1-0.1,0.1-0.2c0.1-0.2,0.2-0.4,0.3-0.6c0,0,0-0.1,0.1-0.1
					c0.1-0.2,0.3-0.5,0.4-0.7c0-0.1,0.1-0.1,0.1-0.2c0.1-0.2,0.2-0.3,0.3-0.5c0.1-0.1,0.1-0.2,0.2-0.3c0.1-0.1,0.2-0.3,0.3-0.4
					c0.1-0.1,0.2-0.2,0.3-0.3c0.1-0.1,0.2-0.2,0.3-0.3c0.1-0.2,0.3-0.3,0.5-0.5c0.1-0.1,0.2-0.2,0.3-0.3c0.1-0.1,0.2-0.1,0.2-0.2
					c0.1-0.1,0.3-0.2,0.4-0.3c0.1-0.1,0.2-0.1,0.2-0.2c0.1-0.1,0.3-0.2,0.4-0.3c0.1,0,0.1-0.1,0.2-0.1c0.2-0.1,0.4-0.3,0.7-0.4
					c0.2-0.1,0.4-0.2,0.6-0.3c0.1,0,0.1,0,0.2-0.1c0.2-0.1,0.4-0.2,0.6-0.2c0,0,0,0,0,0c0.2-0.1,0.3-0.1,0.5-0.1
					c0.1,0,0.2,0,0.3-0.1c0.1,0,0.2,0,0.4-0.1c0.1,0,0.1,0,0.2,0c0.1,0,0.3,0,0.4,0c0,0,0.1,0,0.1,0c0.2,0,0.3,0,0.5,0.1
					c0,0,0.1,0,0.1,0c0.1,0,0.3,0.1,0.4,0.1c0,0,0.1,0,0.1,0c0.2,0.1,0.3,0.1,0.4,0.2L394.7,247.4
					C394.7,247.4,394.7,247.4,394.7,247.4z"/>
				<g id="XMLID_203_">
					<path id="XMLID_254_" class="st16" d="M394.2,250.4c-3.8,2.1-6.9,7.4-6.9,11.7c0,4.3,3,6.1,6.8,4c3.8-2.1,6.9-7.3,6.9-11.7
						C401,250.1,398,248.3,394.2,250.4z"/>
				</g>
			</g>
		</g>
		<g id="XMLID_201_">
			<g id="XMLID_248_" class="st18">
				<g id="XMLID_205_">
					<path id="XMLID_250_" class="st29" d="M394.1,254.2c-2,1.1-3.6,3.8-3.6,6.1c0,2.2,1.6,3.2,3.5,2.1c2-1.1,3.6-3.8,3.6-6.1
						C397.7,254,396.1,253.1,394.1,254.2z"/>
				</g>
			</g>
		</g>
	</g>
	<polygon id="XMLID_204_" class="st2" points="332.5,250.8 299,231 375.1,187.9 408.6,207.7 	"/>
	<polygon id="XMLID_206_" class="st6" points="290.3,263.5 290.3,275.3 323.6,295.1 323.6,283 	"/>
	<polygon id="XMLID_207_" class="st2" points="299,231 294.2,257.8 290.3,263.5 323.6,283 327.4,276.9 332.5,250.8 	"/>
	<path id="XMLID_208_" class="st30" d="M332.5,250.8"/>
	<polygon id="XMLID_209_" class="st6" points="327.3,276.9 294.2,257.8 299,231 332.5,250.8 	"/>
	<g id="XMLID_212_">
		<path id="XMLID_472_" class="st16" d="M297.8,257.5c-1-0.5-1.6-1.9-1.4-3l3.5-18.3c0.2-1.1,1.2-1.5,2.1-1l26.5,15.1
			c1,0.5,1.6,1.9,1.4,3l-3.5,18.4c-0.2,1.1-1.2,1.5-2.1,1L297.8,257.5z"/>
	</g>
	<polygon id="XMLID_213_" class="st29" points="299.9,272.4 292.3,268 292.3,272.8 299.9,277.1 	"/>
	<polygon id="XMLID_216_" class="st29" points="322.3,285.8 314.7,281.5 314.7,286.3 322.3,290.6 	"/>
	<polygon id="XMLID_217_" class="st5" points="332.5,250.8 327.3,276.9 323.6,283 323.6,295.1 408.6,247.1 408.6,207.7 	"/>
	<polygon id="XMLID_218_" class="st29" points="323.6,290.6 323.6,295.1 408.6,247.1 408.6,242.3 	"/>
	<g id="XMLID_221_">
		<path id="XMLID_470_" class="st16" d="M333.5,254.3c0.2-1.1,1.2-2.4,2.1-2.9l19.8-10.8c1-0.5,1.8-0.1,1.8,1v12.9
			c0,1.1-0.8,2.5-1.7,3l-23.9,14c-0.9,0.6-1.5,0.1-1.3-0.9L333.5,254.3z"/>
	</g>
	<polygon id="XMLID_222_" class="st5" points="357.3,259.4 351.6,262.8 351.6,261.6 357.3,258.2 	"/>
	<line id="XMLID_223_" class="st31" x1="359.2" y1="238.8" x2="359.2" y2="268"/>
	<line id="XMLID_224_" class="st31" x1="360.3" y1="237.7" x2="360.3" y2="266.9"/>
</g>
<g id="XMLID_449_">
	<path id="XMLID_448_" class="st32" d="M91.3,24.8L54.5,41.6c-1.3,0.6-1.9,2.1-1.3,3.5l11.5,25.8l41-18.7L93.9,25.8
		C93.5,24.8,92.3,24.4,91.3,24.8z"/>
	<path id="XMLID_447_" class="st16" d="M91.4,27.3L55.7,43.6c-0.3,0.2-0.5,0.5-0.3,0.9l10.1,22.7c0.2,0.3,0.5,0.5,0.9,0.3l35.7-16.3
		c0.3-0.2,0.5-0.5,0.3-0.9L92.3,27.6C92.1,27.3,91.7,27.1,91.4,27.3z"/>
	<path id="XMLID_446_" class="st33" d="M91.3,24.8L54.5,41.6c-1.3,0.6-1.9,2.1-1.3,3.5l11.5,25.8l41-18.7L93.9,25.8
		C93.5,24.8,92.3,24.4,91.3,24.8z"/>
	<g id="XMLID_800_" class="st34">
		<path id="XMLID_445_" class="st29" d="M93.9,25.8c-0.5-1-1.6-1.4-2.6-1l-9,4.1L81,63.5l24.7-11.3L93.9,25.8z"/>
	</g>
	<path id="XMLID_444_" class="st5" d="M133.5,65.9v-1.6l-8.7-2.7L106,53L72.5,68.3l-8,2.3v1.8l0,0c0,0.3,0.1,0.5,0.4,0.6l25.4,11.7
		c1.1,0.5,2.3,0.5,3.4,0l39.3-17.9C133.5,66.6,133.6,66.2,133.5,65.9z"/>
	<g id="XMLID_797_" class="st35">
		<path id="XMLID_443_" class="st5" d="M65.8,73.4l24.6,11.3c1.1,0.5,2.3,0.5,3.4,0v-3.1C93,81.9,92.6,82,92.4,82
			c-1.4,0.1-16.7-7-25.8-11.4"/>
	</g>
	<g id="XMLID_793_">
		<path id="XMLID_442_" class="st5" d="M64.9,73l25.4,11.7L64.8,72.9C64.8,72.9,64.9,73,64.9,73z"/>
		<path id="XMLID_441_" class="st5" d="M90.5,84.8L90.5,84.8c-0.1,0-0.1-0.1-0.2-0.1C90.4,84.7,90.5,84.7,90.5,84.8z"/>
		<path id="XMLID_440_" class="st6" d="M65.4,70.4l-0.9,0.3v1.8l0,0c0,0.2,0.1,0.4,0.3,0.5l25.6,11.8c0.1,0,0.1,0.1,0.2,0.1v-2.4
			C86.5,81,72.9,74.1,65.4,70.4z"/>
	</g>
	<path id="XMLID_439_" class="st6" d="M104.6,52.1L64.9,70.2c-0.5,0.2-0.5,1,0,1.3l25.4,11.6c1.1,0.5,2.3,0.5,3.4,0l39.3-17.9
		c0.5-0.2,0.5-1,0-1.3l-25.8-11.8C106.5,51.7,105.5,51.7,104.6,52.1z"/>
	<g id="XMLID_790_" class="st36">
		<path id="XMLID_438_" class="st2" d="M71.3,74.3c0,0,0.3,0.1,0.8,0.3c0.5,0.2,1.2,0.5,2,0.9c0.8,0.4,1.8,0.8,2.8,1.3
			c1,0.5,2.1,1,3.2,1.5c1.1,0.5,2.2,1,3.2,1.5c0.5,0.2,1,0.5,1.5,0.7c0.5,0.2,0.9,0.4,1.3,0.6c0.8,0.4,1.5,0.7,2,0.9
			c0.5,0.2,0.7,0.4,0.7,0.4c0,0,0.1,0.1,0,0.1c0,0-0.1,0-0.1,0c0,0-0.3-0.1-0.8-0.3c-0.5-0.2-1.2-0.5-2-0.9
			c-0.4-0.2-0.9-0.4-1.3-0.6c-0.5-0.2-1-0.4-1.5-0.7c-1-0.5-2.1-1-3.2-1.5c-1.1-0.5-2.2-1-3.2-1.5c-1-0.5-2-0.9-2.8-1.3
			c-0.8-0.4-1.5-0.7-2-0.9c-0.5-0.2-0.7-0.4-0.7-0.4C71.2,74.4,71.2,74.3,71.3,74.3C71.2,74.3,71.2,74.3,71.3,74.3z"/>
	</g>
	<g id="XMLID_788_" class="st37">
		<path id="XMLID_437_" class="st32" d="M68.7,68.4l1.2,0.5c0.1,0.1,0.2,0.1,0.4,0L103,54c0.1-0.1,0.1-0.3,0-0.3l-1.3-0.6
			c0,0-0.1,0-0.1,0l-32.8,15C68.6,68.1,68.6,68.3,68.7,68.4z"/>
	</g>
	<path id="XMLID_436_" class="st38" d="M109.2,66.8l-10.5,4.8c-0.2,0.1-0.2,0.4,0,0.5l6.8,3.2c0.4,0.2,0.8,0.2,1.2,0l9.9-4.5
		c0.2-0.1,0.2-0.4,0-0.5l-7.3-3.4C109.3,66.8,109.2,66.8,109.2,66.8z"/>
	<g id="XMLID_785_" class="st39">
		<path id="XMLID_435_" class="st40" d="M115.9,69.9c0,0-1-0.4-2.5-1.1c-0.7-0.3-1.6-0.7-2.5-1.2c-0.5-0.2-0.9-0.4-1.4-0.7l-0.1,0
			l0,0c0,0,0,0,0,0l0,0c0,0-0.1,0-0.1,0c-0.1,0.1-0.2,0.1-0.4,0.2c-0.2,0.1-0.5,0.2-0.7,0.3c-1,0.4-2,0.9-2.9,1.3
			c-0.9,0.4-1.8,0.8-2.5,1.1c-1.5,0.7-2.5,1.1-2.5,1.1c0,0-0.1,0-0.1,0c0,0,0-0.1,0-0.1c0,0,1-0.5,2.5-1.2c0.7-0.3,1.6-0.7,2.5-1.2
			c0.9-0.4,1.9-0.9,2.9-1.3c0.2-0.1,0.5-0.2,0.7-0.3c0.1-0.1,0.2-0.1,0.4-0.2c0.1,0,0.2-0.1,0.3,0c0,0,0,0,0,0c0,0,0,0,0,0l0,0
			l0.1,0c0.5,0.2,1,0.4,1.4,0.7c0.9,0.4,1.8,0.8,2.5,1.2C115,69.4,116,69.8,115.9,69.9C116,69.8,116,69.9,115.9,69.9
			C116,69.9,116,69.9,115.9,69.9z"/>
	</g>
	<g id="XMLID_783_" class="st41">
		<path id="XMLID_434_" class="st42" d="M100.9,79.9c0,0,1.4-0.7,3.6-1.7c1.1-0.5,2.4-1.1,3.7-1.7c1.4-0.6,2.8-1.3,4.3-2
			c1.5-0.7,2.9-1.3,4.3-1.9c1.4-0.6,2.6-1.2,3.7-1.7c2.2-1,3.6-1.6,3.6-1.6c0,0,0,0,0.1,0c0,0,0,0,0,0.1c0,0-1.4,0.7-3.6,1.7
			c-1.1,0.5-2.4,1.1-3.7,1.7c-1.4,0.6-2.8,1.3-4.3,2c-1.5,0.7-2.9,1.3-4.3,1.9c-1.4,0.6-2.6,1.2-3.7,1.7
			C102.4,79.3,100.9,79.9,100.9,79.9C100.9,79.9,100.9,79.9,100.9,79.9C100.8,79.9,100.9,79.9,100.9,79.9z"/>
	</g>
	<g id="XMLID_781_" class="st39">
		<path id="XMLID_433_" class="st43" d="M108.8,76.7c0,0,0.1-0.1,0.4-0.2c0.3-0.1,0.6-0.3,1.1-0.5c0.4-0.2,1-0.5,1.5-0.7
			c0.6-0.3,1.2-0.5,1.8-0.8c0.6-0.3,1.2-0.5,1.8-0.8c0.6-0.3,1.1-0.5,1.6-0.7c0.5-0.2,0.8-0.4,1.1-0.5c0.3-0.1,0.4-0.2,0.4-0.2
			c0,0,0.1,0,0.1,0c0,0,0,0.1,0,0.1c0,0-0.1,0.1-0.4,0.2c-0.3,0.1-0.6,0.3-1.1,0.5c-0.4,0.2-1,0.5-1.5,0.7c-0.6,0.3-1.2,0.5-1.8,0.8
			c-0.6,0.3-1.2,0.5-1.8,0.8c-0.6,0.3-1.1,0.5-1.6,0.7c-0.5,0.2-0.8,0.4-1.1,0.5c-0.3,0.1-0.4,0.2-0.4,0.2
			C108.8,76.9,108.7,76.9,108.8,76.7C108.7,76.8,108.7,76.7,108.8,76.7z"/>
	</g>
	<path id="XMLID_432_" class="st44" d="M65.8,72.4V73c0,0,0,0.1,0.1,0.1l1.2,0.5c0.1,0,0.1,0,0.1-0.1V73c0,0,0-0.1-0.1-0.1L66,72.4
		C65.9,72.3,65.8,72.4,65.8,72.4z"/>
	<path id="XMLID_431_" class="st44" d="M68.4,73.6v0.6c0,0,0,0.1,0.1,0.1l1.2,0.5c0.1,0,0.1,0,0.1-0.1v-0.6c0,0,0-0.1-0.1-0.1
		l-1.2-0.5C68.5,73.5,68.4,73.5,68.4,73.6z"/>
	<path id="XMLID_430_" class="st44" d="M70.9,74.7v0.6c0,0,0,0.1,0.1,0.1l1.2,0.5c0.1,0,0.1,0,0.1-0.1v-0.6c0,0,0-0.1-0.1-0.1
		L71,74.7C71,74.6,70.9,74.7,70.9,74.7z"/>
	<g id="XMLID_776_" class="st45">
		<path id="XMLID_429_" class="st29" d="M133.1,63.9l-19.3-8.8L81.9,79.3l8.4,3.9c1.1,0.5,2.3,0.5,3.4,0l39.3-17.9
			C133.6,65,133.6,64.2,133.1,63.9z"/>
	</g>
	<g id="XMLID_706_">
		<path id="XMLID_428_" class="st46" d="M116.1,62.3l-1.3,0.6c-0.2,0.1-0.6,0.1-0.8,0l-0.2-0.1c-0.1,0-0.1-0.1-0.1-0.1
			c-0.1,0.1,0,0.2,0.1,0.2L114,63c0.2,0.1,0.6,0.1,0.8,0l1.3-0.6c0.1-0.1,0.2-0.2,0.1-0.2C116.2,62.3,116.2,62.3,116.1,62.3z"/>
		<path id="XMLID_427_" class="st46" d="M107.4,66.4l-11.8,5.4c-0.2,0.1-0.6,0.1-0.8,0L93,71c-0.1,0-0.1-0.1-0.1-0.1
			c-0.1,0.1,0,0.2,0.1,0.3l1.7,0.8c0.2,0.1,0.6,0.1,0.8,0l11.8-5.4c0.2-0.1,0.2-0.2,0.1-0.3C107.5,66.4,107.4,66.4,107.4,66.4z"/>
		<path id="XMLID_426_" class="st46" d="M113.6,63.6l-1.4,0.7c-0.2,0.1-0.6,0.1-0.8,0l-1.7-0.8c-0.1,0-0.1-0.1-0.1-0.1
			c-0.1,0.1,0,0.2,0.1,0.3l1.7,0.8c0.2,0.1,0.6,0.1,0.8,0l1.4-0.6c0.2-0.1,0.2-0.2,0.1-0.3C113.7,63.5,113.7,63.6,113.6,63.6z"/>
		<path id="XMLID_425_" class="st46" d="M94.1,72.5l-1.8,0.8c-0.2,0.1-0.6,0.1-0.8,0l-1.7-0.8c-0.1,0-0.1-0.1-0.1-0.1
			c-0.1,0.1,0,0.2,0.1,0.3l1.7,0.8c0.2,0.1,0.6,0.1,0.8,0l1.8-0.8c0.2-0.1,0.2-0.2,0.1-0.3C94.2,72.4,94.1,72.5,94.1,72.5z"/>
		<path id="XMLID_424_" class="st46" d="M110.7,64.9l-1.9,0.9c-0.2,0.1-0.6,0.1-0.8,0l-1.7-0.8c-0.1,0-0.1-0.1-0.1-0.1
			c-0.1,0.1,0,0.2,0.1,0.3l1.7,0.8c0.2,0.1,0.6,0.1,0.8,0l1.9-0.9c0.2-0.1,0.2-0.2,0.1-0.3C110.8,64.8,110.8,64.9,110.7,64.9z"/>
		<path id="XMLID_423_" class="st46" d="M83,74.6c0,0-0.1,0.1-0.1,0.1l-3,1.3c-0.2,0.1-0.6,0.1-0.8,0l-1.4-0.6
			c-0.1,0-0.1-0.1-0.1-0.1c-0.1,0.1,0,0.2,0.1,0.3l1.4,0.6c0.2,0.1,0.6,0.1,0.8,0l3-1.3C83,74.8,83.1,74.7,83,74.6z"/>
		<path id="XMLID_422_" class="st46" d="M90.8,74l-1.6,0.7c-0.2,0.1-0.6,0.1-0.8,0l-1.7-0.8c-0.1,0-0.1-0.1-0.1-0.1
			c-0.1,0.1,0,0.2,0.1,0.3l1.7,0.8c0.2,0.1,0.6,0.1,0.8,0l1.6-0.7c0.2-0.1,0.2-0.2,0.1-0.3C90.9,73.9,90.9,74,90.8,74z"/>
		<path id="XMLID_421_" class="st46" d="M87.8,75.4L86.4,76c-0.2,0.1-0.6,0.1-0.8,0l-1.7-0.8c-0.1,0-0.1-0.1-0.1-0.1
			c-0.1,0.1,0,0.2,0.1,0.3l1.7,0.8c0.2,0.1,0.6,0.1,0.8,0l1.4-0.6c0.2-0.1,0.2-0.2,0.1-0.3C87.9,75.3,87.8,75.3,87.8,75.4z"/>
		<path id="XMLID_420_" class="st46" d="M84.9,76.7l-1.8,0.8c-0.2,0.1-0.6,0.1-0.8,0l-1.7-0.8c-0.1,0-0.1-0.1-0.1-0.1
			c-0.1,0.1,0,0.2,0.1,0.3l1.7,0.8c0.2,0.1,0.6,0.1,0.8,0l1.8-0.8c0.2-0.1,0.2-0.2,0.1-0.3C85,76.6,85,76.6,84.9,76.7z"/>
		<path id="XMLID_419_" class="st46" d="M96,62.3l1,0.4c0.2,0.1,0.4,0.1,0.4,0.1c0,0,0.2,0,0.4-0.1l1.5-0.7c0.2-0.1,0.2-0.2,0.1-0.3
			c0,0-0.1,0.1-0.1,0.1l-1.5,0.7c-0.2,0.1-0.4,0.1-0.4,0.1c0,0-0.2,0-0.4-0.1l-1-0.4c-0.1,0-0.1-0.1-0.1-0.1
			C95.8,62.2,95.9,62.3,96,62.3z"/>
		<path id="XMLID_418_" class="st46" d="M117,61.9c-0.2,0.1-0.6,0.1-0.9,0l-0.3-0.1c0,0-0.1,0-0.1-0.1c0,0,0,0.1,0,0.1
			c0.1,0,0.1,0,0.1,0l0.3,0.1c0.1,0,0.1,0.1,0.1,0.1c0.2,0.1,0.5,0,0.7,0l1.3-0.6c0.1-0.1,0.2-0.1,0.1-0.2c0,0-0.1,0-0.1,0.1
			L117,61.9z"/>
		<path id="XMLID_417_" class="st46" d="M92.9,63.7l1,0.5c0.2,0.1,0.4,0.1,0.4,0.1c0,0,0.2,0,0.4-0.1l1.6-0.7
			c0.2-0.1,0.2-0.2,0.1-0.3c0,0-0.1,0.1-0.1,0.1l-1.6,0.7c-0.2,0.1-0.4,0.1-0.4,0.1c0,0-0.2,0-0.4-0.1l-1-0.5
			c-0.1,0-0.1-0.1-0.1-0.1C92.7,63.6,92.8,63.7,92.9,63.7z"/>
		<path id="XMLID_416_" class="st46" d="M89.9,65.1l1,0.5c0.2,0.1,0.6,0.1,0.8,0l1.6-0.7c0.2-0.1,0.2-0.2,0.1-0.3
			c0,0-0.1,0.1-0.1,0.1l-1.6,0.7c-0.2,0.1-0.6,0.1-0.8,0l-1-0.5c-0.1,0-0.1-0.1-0.1-0.1C89.7,65,89.7,65.1,89.9,65.1z"/>
		<path id="XMLID_415_" class="st46" d="M105.6,59.1l-1.6,0.7c-0.2,0.1-0.6,0.1-0.8,0l-1-0.5c-0.1,0-0.1-0.1-0.1-0.1
			c-0.1,0.1,0,0.2,0.1,0.3l1,0.5c0.2,0.1,0.6,0.1,0.8,0l1.6-0.7c0.2-0.1,0.2-0.2,0.1-0.3C105.7,59.1,105.7,59.1,105.6,59.1z"/>
		<path id="XMLID_414_" class="st46" d="M99,61l1,0.5c0.2,0.1,0.4,0.1,0.4,0.1c0,0,0.2,0,0.4-0.1l1.7-0.8c0.2-0.1,0.2-0.2,0.1-0.3
			c0,0-0.1,0.1-0.1,0.1l-1.7,0.8c-0.2,0.1-0.4,0.1-0.4,0.1c0,0-0.2,0-0.4-0.1l-1-0.5c-0.1,0-0.1-0.1-0.1-0.1
			C98.8,60.8,98.8,60.9,99,61z"/>
		<path id="XMLID_413_" class="st46" d="M120.4,60.4C120.4,60.4,120.3,60.4,120.4,60.4l-1.3,0.6c-0.2,0.1-0.6,0.1-0.8,0l-0.4-0.2
			c0,0,0,0,0,0c-0.1,0-0.1,0.1,0,0.1c0.1,0,0.1,0,0.2,0.1l0.3,0.1c0.1,0,0.1,0.1,0.1,0.1c0.2,0.1,0.5,0.1,0.7,0l1.2-0.6
			C120.4,60.5,120.5,60.4,120.4,60.4z"/>
		<path id="XMLID_412_" class="st46" d="M109.2,60.1l-1.8,0.8c-0.2,0.1-0.6,0.1-0.8,0l-1.4-0.6c-0.1,0-0.1-0.1-0.1-0.1
			c-0.1,0.1,0,0.2,0.1,0.3l1.4,0.6c0.2,0.1,0.6,0.1,0.8,0l1.8-0.8c0.2-0.1,0.2-0.2,0.1-0.3C109.3,60,109.3,60.1,109.2,60.1z"/>
		<path id="XMLID_411_" class="st46" d="M87.3,62.2l0.5,0.2c0.2,0.1,0.6,0.1,0.8,0l2-0.9c0.2-0.1,0.2-0.2,0.1-0.3
			c0,0-0.1,0.1-0.1,0.1l-2,0.9c-0.2,0.1-0.6,0.1-0.8,0L87.3,62c-0.1,0-0.1-0.1-0.1-0.1C87.1,62,87.2,62.1,87.3,62.2z"/>
		<path id="XMLID_410_" class="st46" d="M97.1,57.7l0.5,0.2c0.2,0.1,0.6,0.1,0.8,0l2-0.9c0.2-0.1,0.2-0.2,0.1-0.3
			c0,0-0.1,0.1-0.1,0.1l-2,0.9c-0.2,0.1-0.6,0.1-0.8,0l-0.5-0.2c-0.1,0-0.1-0.1-0.1-0.1C96.9,57.5,96.9,57.6,97.1,57.7z"/>
		<path id="XMLID_409_" class="st46" d="M103.6,54.7l0.5,0.2c0.2,0.1,0.6,0.1,0.8,0l1.8-0.8c0.2-0.1,0.2-0.2,0.1-0.3
			c0,0-0.1,0.1-0.1,0.1l-1.8,0.8c-0.2,0.1-0.6,0.1-0.8,0l-0.5-0.2c-0.1,0-0.1-0.1-0.1-0.1C103.4,54.6,103.5,54.7,103.6,54.7z"/>
		<path id="XMLID_408_" class="st46" d="M100.6,56.1l0.5,0.2c0.2,0.1,0.6,0.1,0.8,0l1.6-0.7c0.2-0.1,0.2-0.2,0.1-0.3
			c0,0-0.1,0.1-0.1,0.1l-1.6,0.7c-0.2,0.1-0.6,0.1-0.8,0l-0.5-0.2c-0.1,0-0.1-0.1-0.1-0.1C100.4,56,100.4,56.1,100.6,56.1z"/>
		<path id="XMLID_407_" class="st46" d="M93.9,59.2l0.5,0.2c0.2,0.1,0.6,0.1,0.8,0l1.7-0.8c0.2-0.1,0.2-0.2,0.1-0.3
			c0,0-0.1,0.1-0.1,0.1l-1.7,0.8c-0.2,0.1-0.6,0.1-0.8,0L93.9,59c-0.1,0-0.1-0.1-0.1-0.1C93.7,59,93.8,59.1,93.9,59.2z"/>
		<path id="XMLID_406_" class="st46" d="M90.8,60.6l0.5,0.2c0.2,0.1,0.6,0.1,0.8,0l1.7-0.8c0.2-0.1,0.2-0.2,0.1-0.3
			c0,0-0.1,0.1-0.1,0.1l-1.7,0.8c-0.2,0.1-0.6,0.1-0.8,0l-0.5-0.2c-0.1,0-0.1-0.1-0.1-0.1C90.6,60.4,90.6,60.5,90.8,60.6z"/>
		<path id="XMLID_405_" class="st46" d="M117.5,58.9l-5.5,2.5c-0.2,0.1-0.4,0.1-0.4,0.1c0,0-0.2,0-0.4-0.1l-1.3-0.6
			c-0.1,0-0.1-0.1-0.1-0.1c-0.1,0.1,0,0.2,0.1,0.3l1.3,0.6c0.2,0.1,0.4,0.1,0.4,0.1s0.2,0,0.4-0.1l5.5-2.5c0.2-0.1,0.2-0.2,0.1-0.3
			C117.6,58.8,117.5,58.9,117.5,58.9z"/>
		<path id="XMLID_404_" class="st46" d="M81.5,72.7c0,0-0.1,0.1-0.1,0.1l-4.3,2c-0.2,0.1-0.4,0.1-0.4,0.1c0,0-0.2,0-0.4-0.1
			l-1.4-0.6c-0.1,0-0.1-0.1-0.1-0.1c-0.1,0.1,0,0.2,0.1,0.3l1.4,0.6c0.2,0.1,0.4,0.1,0.4,0.1c0,0,0.2,0,0.4-0.1l4.3-2
			C81.6,72.8,81.6,72.7,81.5,72.7z"/>
		<path id="XMLID_403_" class="st46" d="M109.3,55.2l-3.7,1.7c-0.2,0.1-0.6,0.1-0.8,0l-1.1-0.5c-0.1,0-0.1-0.1-0.1-0.1
			c-0.1,0.1,0,0.2,0.1,0.3l1.1,0.5c0.2,0.1,0.6,0.1,0.8,0l3.7-1.7c0.2-0.1,0.2-0.2,0.1-0.3C109.4,55.1,109.4,55.1,109.3,55.2z"/>
		<path id="XMLID_402_" class="st46" d="M114.6,57.6l-0.6,0.3c-0.2,0.1-0.6,0.1-0.8,0l-1.9-0.9c-0.2-0.1-0.5-0.2-0.6-0.2
			c-0.1,0-0.3,0.1-0.5,0.2c0,0-0.3,0.1-0.5,0.1c-0.2,0-0.2,0-0.4-0.1l-1-0.5c-0.1,0-0.1-0.1-0.1-0.1c-0.1,0.1,0,0.2,0.1,0.3l1,0.5
			c0.2,0.1,0.3,0.1,0.4,0.1c0.2,0,0.5-0.1,0.5-0.1c0.2-0.1,0.4-0.2,0.5-0.2c0.1,0,0.4,0.1,0.6,0.2l1.9,0.9c0.2,0.1,0.6,0.1,0.8,0
			l0.6-0.3c0.2-0.1,0.2-0.2,0.1-0.3C114.7,57.5,114.7,57.6,114.6,57.6z"/>
		<path id="XMLID_401_" class="st46" d="M71.5,69.4l0.5,0.2c0.2,0.1,0.6,0.1,0.8,0l1.7-0.8c0.2-0.1,0.2-0.2,0.1-0.3
			c0,0-0.1,0.1-0.1,0.1l-1.7,0.8c-0.2,0.1-0.6,0.1-0.8,0l-0.5-0.2c-0.1,0-0.1-0.1-0.1-0.1C71.3,69.2,71.3,69.3,71.5,69.4z"/>
		<path id="XMLID_400_" class="st46" d="M73.6,71.4c0,0-0.1,0.1-0.1,0.1l-1.7,0.8c-0.2,0.1-0.6,0.1-0.8,0l-1.1-0.5
			c-0.1,0-0.1-0.1-0.1-0.1c-0.1,0.1,0,0.2,0.1,0.3l1.1,0.5c0.2,0.1,0.6,0.1,0.8,0l1.7-0.8C73.6,71.6,73.6,71.5,73.6,71.4z"/>
		<path id="XMLID_399_" class="st46" d="M74.7,67.9l0.5,0.2c0.2,0.1,0.6,0.1,0.8,0l1.7-0.8c0.2-0.1,0.2-0.2,0.1-0.3
			c0,0-0.1,0.1-0.1,0.1L75.9,68c-0.2,0.1-0.6,0.1-0.8,0l-0.5-0.2c-0.1,0-0.1-0.1-0.1-0.1C74.5,67.8,74.5,67.9,74.7,67.9z"/>
		<path id="XMLID_398_" class="st46" d="M86.8,66.5l1,0.5c0.2,0.1,0.6,0.1,0.8,0l1.6-0.7c0.2-0.1,0.2-0.2,0.1-0.3
			c0,0-0.1,0.1-0.1,0.1l-1.6,0.7c-0.2,0.1-0.6,0.1-0.8,0l-1-0.5c-0.1,0-0.1-0.1-0.1-0.1C86.6,66.4,86.6,66.5,86.8,66.5z"/>
		<path id="XMLID_397_" class="st46" d="M78.1,71.7c0,0-0.1,0.1-0.1,0.1l-3.7,1.7c-0.2,0.1-0.6,0.1-0.8,0l-1-0.5
			c-0.1,0-0.1-0.1-0.1-0.1c-0.1,0.1,0,0.2,0.1,0.3l1,0.5c0.2,0.1,0.6,0.1,0.8,0l3.7-1.7C78.1,71.8,78.1,71.7,78.1,71.7z"/>
		<path id="XMLID_396_" class="st46" d="M84.2,63.6l0.5,0.2c0.2,0.1,0.6,0.1,0.8,0l1.7-0.8c0.2-0.1,0.2-0.2,0.1-0.3
			c0,0-0.1,0.1-0.1,0.1l-1.7,0.8c-0.2,0.1-0.6,0.1-0.8,0l-0.5-0.2c-0.1,0-0.1-0.1-0.1-0.1C84,63.4,84,63.5,84.2,63.6z"/>
		<path id="XMLID_395_" class="st46" d="M77.8,66.5l0.5,0.2c0.2,0.1,0.6,0.1,0.8,0l1.7-0.8c0.2-0.1,0.2-0.2,0.1-0.3
			c0,0-0.1,0.1-0.1,0.1l-1.7,0.8c-0.2,0.1-0.6,0.1-0.8,0l-0.5-0.2c-0.1,0-0.1-0.1-0.1-0.1C77.6,66.3,77.7,66.4,77.8,66.5z"/>
		<path id="XMLID_394_" class="st46" d="M81,65l0.5,0.2c0.2,0.1,0.6,0.1,0.8,0l1.7-0.8c0.2-0.1,0.2-0.2,0.1-0.3c0,0-0.1,0.1-0.1,0.1
			l-1.7,0.8c-0.2,0.1-0.6,0.1-0.8,0L81,64.9c-0.1,0-0.1-0.1-0.1-0.1C80.8,64.9,80.9,65,81,65z"/>
		<path id="XMLID_393_" class="st46" d="M71.5,70.1C71.5,70.1,71.5,70.1,71.5,70.1c-0.1,0-0.1,0-0.2,0l-2.1,1
			c-0.2,0.1-0.6,0.1-0.8,0l-0.5-0.2c-0.1,0-0.1-0.1-0.1-0.1c-0.1,0.1,0,0.2,0.1,0.3l0.5,0.2c0.2,0.1,0.6,0.1,0.8,0l2.1-1
			C71.5,70.2,71.5,70.1,71.5,70.1z"/>
		<path id="XMLID_392_" class="st46" d="M85.9,73.3L84.3,74c-0.2,0.1-0.6,0.1-0.8,0l-1.4-0.6c-0.1,0-0.1-0.1-0.1-0.1
			c-0.1,0.1,0,0.2,0.1,0.3l1.4,0.6c0.2,0.1,0.6,0.1,0.8,0l1.6-0.7c0.2-0.1,0.2-0.2,0.1-0.3C86,73.2,86,73.3,85.9,73.3z"/>
		<path id="XMLID_391_" class="st46" d="M80.7,71.6l1.4,0.6c0.2,0.1,0.6,0.1,0.8,0l1.6-0.7c0.2-0.1,0.2-0.2,0.1-0.3
			c0,0-0.1,0.1-0.1,0.1l-1.6,0.7c-0.2,0.1-0.6,0.1-0.8,0l-1.4-0.6c-0.1,0-0.1-0.1-0.1-0.1C80.5,71.4,80.6,71.5,80.7,71.6z"/>
		<path id="XMLID_390_" class="st46" d="M77.6,70.8l1,0.5c0.2,0.1,0.6,0.1,0.8,0l1.6-0.7c0.2-0.1,0.2-0.2,0.1-0.3
			c0,0-0.1,0.1-0.1,0.1l-1.6,0.7c-0.2,0.1-0.6,0.1-0.8,0l-1-0.5c-0.1,0-0.1-0.1-0.1-0.1C77.4,70.6,77.4,70.7,77.6,70.8z"/>
		<path id="XMLID_389_" class="st46" d="M89,71.9l-1.6,0.7c-0.2,0.1-0.4,0.1-0.4,0.1c0,0-0.1,0-0.4-0.1L85.2,72
			c-0.1,0-0.1-0.1-0.1-0.1c-0.1,0.1,0,0.2,0.1,0.3l1.4,0.6c0.2,0.1,0.4,0.1,0.4,0.1c0,0,0.2,0,0.4-0.1l1.6-0.7
			c0.2-0.1,0.2-0.2,0.1-0.3C89.1,71.8,89.1,71.9,89,71.9z"/>
		<path id="XMLID_388_" class="st46" d="M76.5,70.1l-1.6,0.7c-0.2,0.1-0.6,0.1-0.8,0L73,70.3c-0.1,0-0.1-0.1-0.1-0.1
			c-0.1,0.1,0,0.2,0.1,0.3l1.1,0.5c0.2,0.1,0.6,0.1,0.8,0l1.6-0.7c0.2-0.1,0.2-0.2,0.1-0.3C76.6,70,76.6,70.1,76.5,70.1z"/>
		<path id="XMLID_387_" class="st46" d="M79.1,67.7l1.1,0.5c0.2,0.1,0.6,0.1,0.8,0l1.7-0.8c0.2-0.1,0.2-0.2,0.1-0.3
			c0,0-0.1,0.1-0.1,0.1L81,68.1c-0.2,0.1-0.6,0.1-0.8,0l-1.1-0.5c-0.1,0-0.1-0.1-0.1-0.1C78.9,67.5,79,67.6,79.1,67.7z"/>
		<path id="XMLID_386_" class="st46" d="M77.6,69.7c0,0,0.2,0,0.4-0.1l1.6-0.7c0.2-0.1,0.2-0.2,0.1-0.3c0,0-0.1,0.1-0.1,0.1L78,69.4
			c-0.2,0.1-0.4,0.1-0.4,0.1s-0.2,0-0.4-0.1l-1.1-0.5c-0.1,0-0.1-0.1-0.1-0.1c-0.1,0.1,0,0.2,0.1,0.3l1.1,0.5
			C77.4,69.7,77.6,69.7,77.6,69.7z"/>
		<path id="XMLID_385_" class="st46" d="M92.1,70.5l-1.6,0.7c-0.2,0.1-0.6,0.1-0.8,0l-1.4-0.6c-0.1,0-0.1-0.1-0.1-0.1
			c-0.1,0.1,0,0.2,0.1,0.3l1.4,0.6c0.2,0.1,0.6,0.1,0.8,0l1.6-0.7c0.2-0.1,0.2-0.2,0.1-0.3C92.2,70.4,92.1,70.5,92.1,70.5z"/>
		<path id="XMLID_384_" class="st46" d="M107.4,63.5l-1.6,0.7c-0.2,0.1-0.6,0.1-0.8,0l-1.4-0.6c-0.1,0-0.1-0.1-0.1-0.1
			c-0.1,0.1,0,0.2,0.1,0.3l1.4,0.6c0.2,0.1,0.6,0.1,0.8,0l1.6-0.7c0.2-0.1,0.2-0.2,0.1-0.3C107.5,63.4,107.5,63.5,107.4,63.5z"/>
		<path id="XMLID_383_" class="st46" d="M110.5,62.1l-1.6,0.7c-0.2,0.1-0.6,0.1-0.8,0l-1.4-0.6c-0.1,0-0.1-0.1-0.1-0.1
			c-0.1,0.1,0,0.2,0.1,0.3l1.4,0.6c0.2,0.1,0.6,0.1,0.8,0l1.6-0.7c0.2-0.1,0.2-0.2,0.1-0.3C110.6,62,110.6,62.1,110.5,62.1z"/>
		<path id="XMLID_382_" class="st46" d="M115.8,61.5l1.3-0.6c0,0,0.1,0,0.2-0.1c0,0,0-0.1,0-0.1c0,0-0.1,0.1-0.1,0.1L115.8,61.5
			c-0.2,0-0.5,0-0.6-0.1l-0.4-0.2c-0.1,0-0.1-0.1-0.2-0.1c-0.1,0.1,0,0.2,0.2,0.3l0.4,0.2c0.1,0.1,0.4,0.1,0.5,0
			C115.7,61.6,115.7,61.6,115.8,61.5z"/>
		<path id="XMLID_381_" class="st46" d="M82.2,66.3l1.1,0.5c0.2,0.1,0.4,0.1,0.4,0.1s0.2,0,0.4-0.1l1.6-0.7c0.2-0.1,0.2-0.2,0.1-0.3
			c0,0-0.1,0.1-0.1,0.1l-1.6,0.7c-0.2,0.1-0.4,0.1-0.4,0.1s-0.2,0-0.4-0.1l-1.1-0.5c-0.1,0-0.1-0.1-0.1-0.1
			C82,66.1,82.1,66.2,82.2,66.3z"/>
		<path id="XMLID_380_" class="st46" d="M95.1,69.1l-1.6,0.7c-0.2,0.1-0.6,0.1-0.8,0l-1.4-0.6c-0.1,0-0.1-0.1-0.1-0.1
			c-0.1,0.1,0,0.2,0.1,0.3l1.4,0.6c0.2,0.1,0.6,0.1,0.8,0l1.6-0.7c0.2-0.1,0.2-0.2,0.1-0.3C95.3,69,95.2,69.1,95.1,69.1z"/>
		<path id="XMLID_379_" class="st46" d="M98.2,67.7l-1.6,0.7c-0.2,0.1-0.6,0.1-0.8,0l-1.4-0.6c-0.1,0-0.1-0.1-0.1-0.1
			c-0.1,0.1,0,0.2,0.1,0.3l1.4,0.6c0.2,0.1,0.6,0.1,0.8,0l1.6-0.7c0.2-0.1,0.2-0.2,0.1-0.3C98.3,67.6,98.3,67.7,98.2,67.7z"/>
		<path id="XMLID_378_" class="st46" d="M101.2,66.3L99.7,67c-0.2,0.1-0.4,0.1-0.4,0.1c0,0-0.2,0-0.4-0.1l-1.3-0.6
			c-0.1,0-0.1-0.1-0.1-0.1c-0.1,0.1,0,0.2,0.1,0.3l1.3,0.6c0.2,0.1,0.4,0.1,0.4,0.1c0,0,0.2,0,0.4-0.1l1.5-0.7
			c0.2-0.1,0.2-0.2,0.1-0.3C101.3,66.3,101.2,66.3,101.2,66.3z"/>
		<path id="XMLID_377_" class="st46" d="M104.4,64.9l-1.7,0.8c-0.2,0.1-0.6,0.1-0.8,0l-1.4-0.6c-0.1,0-0.1-0.1-0.1-0.1
			c-0.1,0.1,0,0.2,0.1,0.3l1.4,0.6c0.2,0.1,0.6,0.1,0.8,0l1.7-0.8c0.2-0.1,0.2-0.2,0.1-0.3C104.5,64.8,104.4,64.9,104.4,64.9z"/>
		<path id="XMLID_376_" class="st46" d="M83.7,67.9l1,0.5c0.2,0.1,0.3,0.1,0.4,0.1c0.1,0,0.2,0,0.4-0.1l1.6-0.7
			c0.2-0.1,0.2-0.2,0.1-0.3c0,0-0.1,0.1-0.1,0.1l-1.6,0.7c-0.2,0.1-0.3,0.1-0.4,0.1c-0.1,0-0.2,0-0.4-0.1l-1-0.5
			c-0.1,0-0.1-0.1-0.1-0.1C83.5,67.8,83.6,67.9,83.7,67.9z"/>
		<path id="XMLID_375_" class="st46" d="M96.8,65.8l-1.6,0.7c-0.2,0.1-0.3,0.1-0.4,0.1c-0.1,0-0.2,0-0.4-0.1L93,65.9
			c-0.1,0-0.1-0.1-0.1-0.1c-0.1,0.1,0,0.2,0.1,0.3l1.3,0.6c0.2,0.1,0.3,0.1,0.4,0.1c0.1,0,0.2,0,0.4-0.1l1.6-0.7
			c0.2-0.1,0.2-0.2,0.1-0.3C96.9,65.7,96.8,65.7,96.8,65.8z"/>
		<path id="XMLID_374_" class="st46" d="M99.7,64.4l-1.5,0.7c-0.2,0.1-0.6,0.1-0.8,0l-1.4-0.6c-0.1,0-0.1-0.1-0.1-0.1
			c-0.1,0.1,0,0.2,0.1,0.3l1.4,0.6c0.2,0.1,0.6,0.1,0.8,0l1.5-0.7c0.2-0.1,0.2-0.2,0.1-0.3C99.8,64.3,99.8,64.4,99.7,64.4z"/>
		<path id="XMLID_373_" class="st46" d="M106,61.6l-1.6,0.7c-0.2,0.1-0.6,0.1-0.8,0l-1.4-0.6c-0.1,0-0.1-0.1-0.1-0.1
			c-0.1,0.1,0,0.2,0.1,0.3l1.4,0.6c0.2,0.1,0.6,0.1,0.8,0l1.6-0.7c0.2-0.1,0.2-0.2,0.1-0.3C106.1,61.5,106,61.5,106,61.6z"/>
		<path id="XMLID_372_" class="st46" d="M93.7,67.2l-1.6,0.7c-0.2,0.1-0.6,0.1-0.8,0l-1.4-0.6c-0.1,0-0.1-0.1-0.1-0.1
			c-0.1,0.1,0,0.2,0.1,0.3l1.4,0.6c0.2,0.1,0.6,0.1,0.8,0l1.6-0.7c0.2-0.1,0.2-0.2,0.1-0.3C93.8,67.1,93.7,67.1,93.7,67.2z"/>
		<path id="XMLID_371_" class="st46" d="M102.9,62.9l-1.8,0.8c-0.2,0.1-0.6,0.1-0.8,0L99,63.1c-0.1,0-0.1-0.1-0.1-0.1
			c-0.1,0.1,0,0.2,0.1,0.3l1.3,0.6c0.2,0.1,0.6,0.1,0.8,0l1.8-0.8c0.2-0.1,0.2-0.2,0.1-0.3C103,62.9,103,62.9,102.9,62.9z"/>
		<path id="XMLID_370_" class="st46" d="M90.6,68.6L89,69.3c-0.2,0.1-0.6,0.1-0.8,0l-1.4-0.6c-0.1,0-0.1-0.1-0.1-0.1
			c-0.1,0.1,0,0.2,0.1,0.3l1.4,0.6c0.2,0.1,0.6,0.1,0.8,0l1.6-0.7c0.2-0.1,0.2-0.2,0.1-0.3C90.7,68.5,90.7,68.5,90.6,68.6z"/>
		<path id="XMLID_352_" class="st46" d="M80.6,69.4l1,0.5c0.2,0.1,0.6,0.1,0.8,0l1.6-0.7c0.2-0.1,0.2-0.2,0.1-0.3
			c0,0-0.1,0.1-0.1,0.1l-1.6,0.7c-0.2,0.1-0.6,0.1-0.8,0l-1-0.5c-0.1,0-0.1-0.1-0.1-0.1C80.4,69.2,80.5,69.3,80.6,69.4z"/>
		<path id="XMLID_351_" class="st46" d="M87.5,70l-1.6,0.7c-0.2,0.1-0.4,0.1-0.4,0.1c0,0-0.2,0-0.4-0.1l-1.3-0.6
			c-0.1,0-0.1-0.1-0.1-0.1c-0.1,0.1,0,0.2,0.1,0.3l1.3,0.6c0.2,0.1,0.4,0.1,0.4,0.1c0,0,0.2,0,0.4-0.1l1.6-0.7
			c0.2-0.1,0.2-0.2,0.1-0.3C87.7,69.9,87.6,69.9,87.5,70z"/>
		<path id="XMLID_350_" class="st46" d="M100.6,57.9l1.1,0.5c0.2,0.1,0.4,0.2,0.4,0.2c0,0,0.2-0.1,0.4-0.2l1.6-0.7
			c0.2-0.1,0.2-0.2,0.1-0.3c0,0-0.1,0.1-0.1,0.1l-1.6,0.7c-0.2,0.1-0.4,0.2-0.4,0.2c0,0-0.2-0.1-0.4-0.2l-1.1-0.5
			c-0.1,0-0.1-0.1-0.1-0.1C100.4,57.7,100.5,57.8,100.6,57.9z"/>
		<path id="XMLID_349_" class="st46" d="M88.3,63.5l1.1,0.5c0.2,0.1,0.6,0.1,0.8,0l1.6-0.7c0.2-0.1,0.2-0.2,0.1-0.3
			c0,0-0.1,0.1-0.1,0.1l-1.6,0.7c-0.2,0.1-0.6,0.1-0.8,0l-1.1-0.5c-0.1,0-0.1-0.1-0.1-0.1C88.1,63.3,88.2,63.4,88.3,63.5z"/>
		<path id="XMLID_348_" class="st46" d="M112.5,58.6l-1.9,0.9c-0.2,0.1-0.6,0.1-0.8,0l-1.4-0.6c-0.1,0-0.1-0.1-0.1-0.1
			c-0.1,0.1,0,0.2,0.1,0.3l1.4,0.6c0.2,0.1,0.6,0.1,0.8,0l1.9-0.9c0.2-0.1,0.2-0.2,0.1-0.3C112.6,58.5,112.6,58.5,112.5,58.6z"/>
		<path id="XMLID_347_" class="st46" d="M94.4,60.7l1.1,0.5c0.2,0.1,0.6,0.1,0.8,0l1.7-0.8c0.2-0.1,0.2-0.2,0.1-0.3
			c0,0-0.1,0.1-0.1,0.1l-1.7,0.8c-0.2,0.1-0.6,0.1-0.8,0l-1.1-0.5c-0.1,0-0.1-0.1-0.1-0.1C94.2,60.5,94.2,60.6,94.4,60.7z"/>
		<path id="XMLID_346_" class="st46" d="M91.4,62.1l1.1,0.5c0.2,0.1,0.6,0.1,0.8,0l1.5-0.7c0.2-0.1,0.2-0.2,0.1-0.3
			c0,0-0.1,0.1-0.1,0.1l-1.5,0.7c-0.2,0.1-0.6,0.1-0.8,0l-1.1-0.5c-0.1,0-0.1-0.1-0.1-0.1C91.2,61.9,91.3,62,91.4,62.1z"/>
		<path id="XMLID_345_" class="st46" d="M85.3,64.9l1.1,0.5c0.2,0.1,0.4,0.1,0.4,0.1c0,0,0.2,0,0.4-0.1l1.6-0.7
			c0.2-0.1,0.2-0.2,0.1-0.3c0,0-0.1,0.1-0.1,0.1l-1.6,0.7c-0.2,0.1-0.4,0.1-0.4,0.1c0,0-0.2,0-0.4-0.1l-1.1-0.5
			c-0.1,0-0.1-0.1-0.1-0.1C85.1,64.7,85.1,64.8,85.3,64.9z"/>
		<path id="XMLID_344_" class="st46" d="M97.6,59.3l1.1,0.5c0.2,0.1,0.6,0.1,0.8,0l1.6-0.7c0.2-0.1,0.2-0.2,0.1-0.3
			c0,0-0.1,0.1-0.1,0.1l-1.6,0.7c-0.2,0.1-0.6,0.1-0.8,0l-1.1-0.5c-0.1,0-0.1-0.1-0.1-0.1C97.4,59.1,97.4,59.2,97.6,59.3z"/>
		<path id="XMLID_343_" class="st46" d="M105.2,58.1l1,0.5c0.2,0.1,0.6,0.1,0.8,0l1.6-0.7c0.2-0.1,0.2-0.2,0.1-0.3
			c0,0-0.1,0.1-0.1,0.1l-1.6,0.7c-0.2,0.1-0.6,0.1-0.8,0l-1-0.5c-0.1,0-0.1-0.1-0.1-0.1C105,58,105.1,58.1,105.2,58.1z"/>
	</g>
	<g id="XMLID_567_">
		<g id="XMLID_704_" class="st47">
			<path id="XMLID_342_" class="st32" d="M113.8,62.4c-0.2,0.1-0.2,0.2,0,0.3l0.2,0.1c0.2,0.1,0.6,0.1,0.8,0l1.3-0.6
				c0.2-0.1,0.2-0.2,0-0.3l-0.3-0.1c-0.2-0.1-0.6-0.1-0.8,0L113.8,62.4z"/>
		</g>
		<g id="XMLID_702_" class="st47">
			<path id="XMLID_341_" class="st32" d="M93,70.7c-0.2,0.1-0.2,0.3,0,0.4l1.7,0.8c0.2,0.1,0.6,0.1,0.8,0l11.8-5.4
				c0.2-0.1,0.2-0.3,0-0.4l-1.7-0.8c-0.2-0.1-0.6-0.1-0.8,0L93,70.7z"/>
		</g>
		<g id="XMLID_700_" class="st47">
			<path id="XMLID_340_" class="st32" d="M109.7,63.1c-0.2,0.1-0.2,0.3,0,0.4l1.7,0.8c0.2,0.1,0.6,0.1,0.8,0l1.4-0.6
				c0.2-0.1,0.2-0.3,0-0.4l-1.7-0.8c-0.2-0.1-0.6-0.1-0.8,0L109.7,63.1z"/>
		</g>
		<g id="XMLID_698_" class="st47">
			<path id="XMLID_339_" class="st32" d="M89.7,72.2c-0.2,0.1-0.2,0.3,0,0.4l1.7,0.8c0.2,0.1,0.6,0.1,0.8,0l1.8-0.8
				c0.2-0.1,0.2-0.3,0-0.4l-1.7-0.8c-0.2-0.1-0.6-0.1-0.8,0L89.7,72.2z"/>
		</g>
		<g id="XMLID_696_" class="st47">
			<path id="XMLID_338_" class="st32" d="M106.3,64.6c-0.2,0.1-0.2,0.3,0,0.4l1.7,0.8c0.2,0.1,0.6,0.1,0.8,0l1.9-0.9
				c0.2-0.1,0.2-0.3,0-0.4l-1.7-0.8c-0.2-0.1-0.6-0.1-0.8,0L106.3,64.6z"/>
		</g>
		<g id="XMLID_694_" class="st47">
			<path id="XMLID_337_" class="st32" d="M81.5,73.7c-0.2-0.1-0.6-0.1-0.8,0l-3,1.4c-0.2,0.1-0.2,0.3,0,0.4l1.4,0.6
				c0.2,0.1,0.6,0.1,0.8,0l3-1.3c0.2-0.1,0.2-0.3,0-0.4L81.5,73.7z"/>
		</g>
		<g id="XMLID_692_" class="st47">
			<path id="XMLID_336_" class="st32" d="M86.7,73.6c-0.2,0.1-0.2,0.3,0,0.4l1.7,0.8c0.2,0.1,0.6,0.1,0.8,0l1.6-0.7
				c0.2-0.1,0.2-0.3,0-0.4l-1.7-0.8c-0.2-0.1-0.6-0.1-0.8,0L86.7,73.6z"/>
		</g>
		<g id="XMLID_690_" class="st47">
			<path id="XMLID_332_" class="st32" d="M83.9,74.8c-0.2,0.1-0.2,0.3,0,0.4l1.7,0.8c0.2,0.1,0.6,0.1,0.8,0l1.4-0.6
				c0.2-0.1,0.2-0.3,0-0.4l-1.7-0.8c-0.2-0.1-0.6-0.1-0.8,0L83.9,74.8z"/>
		</g>
		<g id="XMLID_688_" class="st47">
			<path id="XMLID_331_" class="st32" d="M80.6,76.3c-0.2,0.1-0.2,0.3,0,0.4l1.7,0.8c0.2,0.1,0.6,0.1,0.8,0l1.8-0.8
				c0.2-0.1,0.2-0.3,0-0.4l-1.7-0.8c-0.2-0.1-0.6-0.1-0.8,0L80.6,76.3z"/>
		</g>
		<g id="XMLID_686_" class="st47">
			<path id="XMLID_330_" class="st32" d="M98,61c-0.2,0-0.3,0-0.5,0.1L96,61.8c-0.2,0.1-0.2,0.3,0,0.4l1,0.4
				c0.2,0.1,0.4,0.1,0.4,0.1c0,0,0.2,0,0.4-0.1l1.5-0.7c0.2-0.1,0.2-0.3,0-0.4l-1-0.4C98.2,61.1,98.2,61,98,61z"/>
		</g>
		<g id="XMLID_684_" class="st47">
			<path id="XMLID_328_" class="st32" d="M115.8,61.5c-0.2,0.1-0.2,0.2,0,0.3l0.3,0.1c0.2,0.1,0.6,0.1,0.9,0l1.3-0.6
				c0.2-0.1,0.2-0.2,0-0.3l-0.3-0.1c-0.2-0.1-0.6-0.1-0.9,0L115.8,61.5z"/>
		</g>
		<g id="XMLID_682_" class="st47">
			<path id="XMLID_327_" class="st32" d="M92.9,63.2c-0.2,0.1-0.2,0.3,0,0.4l1,0.5c0.2,0.1,0.4,0.1,0.4,0.1c0,0,0.2,0,0.4-0.1
				l1.6-0.7c0.2-0.1,0.2-0.3,0-0.4l-1-0.5c-0.2-0.1-0.6-0.1-0.8,0L92.9,63.2z"/>
		</g>
		<g id="XMLID_680_" class="st47">
			<path id="XMLID_326_" class="st32" d="M91.9,63.8c0,0-0.2,0-0.4,0.1l-1.6,0.7c-0.2,0.1-0.2,0.3,0,0.4l1,0.5
				c0.2,0.1,0.6,0.1,0.8,0l1.6-0.7c0.2-0.1,0.2-0.3,0-0.4l-1-0.5C92.1,63.8,91.9,63.8,91.9,63.8z"/>
		</g>
		<g id="XMLID_678_" class="st47">
			<path id="XMLID_325_" class="st32" d="M105.6,59.1c0.2-0.1,0.2-0.3,0-0.4l-1-0.5c-0.2-0.1-0.6-0.1-0.8,0l-1.6,0.7
				c-0.2,0.1-0.2,0.3,0,0.4l1,0.5c0.2,0.1,0.6,0.1,0.8,0L105.6,59.1z"/>
		</g>
		<g id="XMLID_676_" class="st47">
			<path id="XMLID_324_" class="st32" d="M101.2,59.6c-0.1,0-0.3,0-0.5,0.1L99,60.5c-0.2,0.1-0.2,0.3,0,0.4l1,0.5
				c0.2,0.1,0.4,0.1,0.4,0.1c0,0,0.2,0,0.4-0.1l1.7-0.8c0.2-0.1,0.2-0.3,0-0.4l-0.9-0.4C101.4,59.6,101.3,59.6,101.2,59.6z"/>
		</g>
		<g id="XMLID_674_" class="st47">
			<path id="XMLID_323_" class="st32" d="M118.3,60.9c0.2,0.1,0.6,0.1,0.8,0l1.2-0.6c0.1-0.1,0.1-0.2,0-0.2L120,60
				c-0.2-0.1-0.6-0.1-0.8,0l-1.3,0.6c-0.1,0.1-0.1,0.1,0,0.2L118.3,60.9z"/>
		</g>
		<g id="XMLID_672_" class="st47">
			<path id="XMLID_322_" class="st32" d="M105.3,59.9c-0.2,0.1-0.2,0.3,0,0.4l1.4,0.6c0.2,0.1,0.6,0.1,0.8,0l1.8-0.8
				c0.2-0.1,0.2-0.3,0-0.4l-1.4-0.6c-0.2-0.1-0.6-0.1-0.8,0L105.3,59.9z"/>
		</g>
		<g id="XMLID_670_" class="st47">
			<path id="XMLID_321_" class="st32" d="M90.6,61.3c0.2-0.1,0.2-0.3,0-0.4l-0.5-0.2c-0.2-0.1-0.6-0.1-0.8,0l-2,0.9
				c-0.2,0.1-0.2,0.3,0,0.4l0.5,0.2c0.2,0.1,0.6,0.1,0.8,0L90.6,61.3z"/>
		</g>
		<g id="XMLID_668_" class="st47">
			<path id="XMLID_320_" class="st32" d="M100.4,56.9c0.2-0.1,0.2-0.3,0-0.4l-0.5-0.2c-0.2-0.1-0.6-0.1-0.8,0l-2,0.9
				c-0.2,0.1-0.2,0.3,0,0.4l0.5,0.2c0.2,0.1,0.6,0.1,0.8,0L100.4,56.9z"/>
		</g>
		<g id="XMLID_666_" class="st47">
			<path id="XMLID_319_" class="st32" d="M106.7,54c0.2-0.1,0.2-0.3,0-0.4l-0.5-0.2c-0.2-0.1-0.6-0.1-0.8,0l-1.8,0.8
				c-0.2,0.1-0.2,0.3,0,0.4l0.5,0.2c0.2,0.1,0.6,0.1,0.8,0L106.7,54z"/>
		</g>
		<g id="XMLID_664_" class="st47">
			<path id="XMLID_318_" class="st32" d="M103.4,55.5c0.2-0.1,0.2-0.3,0-0.4l-0.5-0.2c-0.2-0.1-0.6-0.1-0.8,0l-1.6,0.7
				c-0.2,0.1-0.2,0.3,0,0.4l0.5,0.2c0.2,0.1,0.6,0.1,0.8,0L103.4,55.5z"/>
		</g>
		<g id="XMLID_662_" class="st47">
			<path id="XMLID_317_" class="st32" d="M96.9,58.4c0.2-0.1,0.2-0.3,0-0.4l-0.5-0.2c-0.2-0.1-0.6-0.1-0.8,0l-1.7,0.8
				c-0.2,0.1-0.2,0.3,0,0.4l0.5,0.2c0.2,0.1,0.6,0.1,0.8,0L96.9,58.4z"/>
		</g>
		<g id="XMLID_660_" class="st47">
			<path id="XMLID_316_" class="st32" d="M93.7,59.9c0.2-0.1,0.2-0.3,0-0.4l-0.5-0.2c-0.2-0.1-0.6-0.1-0.8,0l-1.7,0.8
				c-0.2,0.1-0.2,0.3,0,0.4l0.5,0.2c0.2,0.1,0.6,0.1,0.8,0L93.7,59.9z"/>
		</g>
		<g id="XMLID_658_" class="st47">
			<path id="XMLID_315_" class="st32" d="M111.1,61.4c0.2,0.1,0.4,0.1,0.4,0.1c0,0,0.2,0,0.4-0.1l5.5-2.5c0.2-0.1,0.2-0.3,0-0.4
				l-1.4-0.6c-0.2-0.1-0.6-0.1-0.8,0l-5.5,2.5c-0.2,0.1-0.2,0.3,0,0.4L111.1,61.4z"/>
		</g>
		<g id="XMLID_656_" class="st47">
			<path id="XMLID_314_" class="st32" d="M81.4,72.8c0.2-0.1,0.2-0.3,0-0.4l-1.4-0.6c-0.2-0.1-0.6-0.1-0.8,0l-4.3,2
				c-0.2,0.1-0.2,0.3,0,0.4l1.4,0.6c0.2,0.1,0.4,0.1,0.4,0.1c0,0,0.2,0,0.4-0.1L81.4,72.8z"/>
		</g>
		<g id="XMLID_654_" class="st47">
			<path id="XMLID_313_" class="st32" d="M104.8,56.8c0.2,0.1,0.6,0.1,0.8,0l3.7-1.7c0.2-0.1,0.2-0.3,0-0.4l-1.1-0.5
				c-0.2-0.1-0.6-0.1-0.8,0l-3.7,1.7c-0.2,0.1-0.2,0.3,0,0.4L104.8,56.8z"/>
		</g>
		<g id="XMLID_652_" class="st47">
			<path id="XMLID_312_" class="st32" d="M109.3,57c0.2,0.1,0.3,0.1,0.4,0.1c0.2,0,0.5-0.1,0.5-0.1c0.2-0.1,0.4-0.2,0.5-0.2
				c0.1,0,0.4,0.1,0.6,0.2l1.9,0.9c0.2,0.1,0.6,0.1,0.8,0l0.6-0.3c0.2-0.1,0.2-0.3,0-0.4l-3.9-1.8c-0.2-0.1-0.6-0.1-0.8,0l-1.7,0.8
				c-0.2,0.1-0.2,0.3,0,0.4L109.3,57z"/>
		</g>
		<g id="XMLID_650_" class="st47">
			<path id="XMLID_311_" class="st32" d="M74.5,68.7c0.2-0.1,0.2-0.3,0-0.4L74,68.1c-0.2-0.1-0.6-0.1-0.8,0l-1.7,0.8
				c-0.2,0.1-0.2,0.3,0,0.4l0.5,0.2c0.2,0.1,0.6,0.1,0.8,0L74.5,68.7z"/>
		</g>
		<g id="XMLID_648_" class="st47">
			<path id="XMLID_310_" class="st32" d="M72.3,70.6c-0.2-0.1-0.6-0.1-0.8,0l-1.7,0.8c-0.2,0.1-0.2,0.3,0,0.4l1.1,0.5
				c0.2,0.1,0.6,0.1,0.8,0l1.7-0.8c0.2-0.1,0.2-0.3,0-0.4L72.3,70.6z"/>
		</g>
		<g id="XMLID_646_" class="st47">
			<path id="XMLID_309_" class="st32" d="M77.6,67.2c0.2-0.1,0.2-0.3,0-0.4l-0.5-0.2c-0.2-0.1-0.6-0.1-0.8,0l-1.7,0.8
				c-0.2,0.1-0.2,0.3,0,0.4l0.5,0.2c0.2,0.1,0.6,0.1,0.8,0L77.6,67.2z"/>
		</g>
		<g id="XMLID_644_" class="st47">
			<path id="XMLID_308_" class="st32" d="M86.8,66c-0.2,0.1-0.2,0.3,0,0.4l1,0.5c0.2,0.1,0.6,0.1,0.8,0l1.6-0.7
				c0.2-0.1,0.2-0.3,0-0.4l-1-0.5c-0.2-0.1-0.6-0.1-0.8,0L86.8,66z"/>
		</g>
		<g id="XMLID_642_" class="st47">
			<path id="XMLID_307_" class="st32" d="M76.9,70.9c-0.2-0.1-0.6-0.1-0.8,0l-3.7,1.7c-0.2,0.1-0.2,0.3,0,0.4l1,0.5
				c0.2,0.1,0.6,0.1,0.8,0l3.7-1.7c0.2-0.1,0.2-0.3,0-0.4L76.9,70.9z"/>
		</g>
		<g id="XMLID_640_" class="st47">
			<path id="XMLID_306_" class="st32" d="M87.2,62.9c0.2-0.1,0.2-0.3,0-0.4l-0.5-0.2c-0.2-0.1-0.6-0.1-0.8,0l-1.7,0.8
				c-0.2,0.1-0.2,0.3,0,0.4l0.5,0.2c0.2,0.1,0.6,0.1,0.8,0L87.2,62.9z"/>
		</g>
		<g id="XMLID_638_" class="st47">
			<path id="XMLID_305_" class="st32" d="M80.8,65.8c0.2-0.1,0.2-0.3,0-0.4l-0.5-0.2c-0.2-0.1-0.6-0.1-0.8,0L77.8,66
				c-0.2,0.1-0.2,0.3,0,0.4l0.5,0.2c0.2,0.1,0.6,0.1,0.8,0L80.8,65.8z"/>
		</g>
		<g id="XMLID_636_" class="st47">
			<path id="XMLID_304_" class="st32" d="M84,64.3c0.2-0.1,0.2-0.3,0-0.4l-0.5-0.2c-0.2-0.1-0.6-0.1-0.8,0L81,64.5
				c-0.2,0.1-0.2,0.3,0,0.4l0.5,0.2c0.2,0.1,0.6,0.1,0.8,0L84,64.3z"/>
		</g>
		<g id="XMLID_634_" class="st47">
			<path id="XMLID_303_" class="st32" d="M71.5,69.9c0,0,0-0.1-0.2-0.2l-0.5-0.2c-0.2-0.1-0.6-0.1-0.8,0l-2.1,1
				c-0.2,0.1-0.2,0.3,0,0.4l0.5,0.2c0.2,0.1,0.6,0.1,0.8,0l2.1-1C71.5,70,71.5,69.9,71.5,69.9z"/>
		</g>
		<g id="XMLID_632_" class="st47">
			<path id="XMLID_302_" class="st32" d="M84.2,72.2c0,0-0.2,0-0.4,0.1L82.2,73c-0.2,0.1-0.2,0.3,0,0.4l1.4,0.6
				c0.2,0.1,0.6,0.1,0.8,0l1.6-0.7c0.2-0.1,0.2-0.3,0-0.4l-1.3-0.6C84.4,72.2,84.2,72.2,84.2,72.2z"/>
		</g>
		<g id="XMLID_630_" class="st47">
			<path id="XMLID_301_" class="st32" d="M84.5,71.4c0.2-0.1,0.2-0.3,0-0.4l-1.4-0.6c-0.2-0.1-0.6-0.1-0.8,0l-1.6,0.7
				c-0.2,0.1-0.2,0.3,0,0.4l1.4,0.6c0.2,0.1,0.6,0.1,0.8,0L84.5,71.4z"/>
		</g>
		<g id="XMLID_628_" class="st47">
			<path id="XMLID_300_" class="st32" d="M80.1,69.5c-0.2-0.1-0.4-0.1-0.4-0.1c0,0-0.2,0-0.4,0.1l-1.6,0.7c-0.2,0.1-0.2,0.3,0,0.4
				l1,0.5c0.2,0.1,0.6,0.1,0.8,0l1.6-0.7c0.2-0.1,0.2-0.3,0-0.4L80.1,69.5z"/>
		</g>
		<g id="XMLID_626_" class="st47">
			<path id="XMLID_299_" class="st32" d="M85.2,71.6c-0.2,0.1-0.2,0.3,0,0.4l1.4,0.6c0.2,0.1,0.4,0.1,0.4,0.1c0,0,0.2,0,0.4-0.1
				l1.6-0.7c0.2-0.1,0.2-0.3,0-0.4l-1.4-0.6c-0.2-0.1-0.6-0.1-0.8,0L85.2,71.6z"/>
		</g>
		<g id="XMLID_624_" class="st47">
			<path id="XMLID_298_" class="st32" d="M75,69.1c0,0-0.2,0-0.4,0.1L73,70c-0.2,0.1-0.2,0.3,0,0.4l1.1,0.5c0.2,0.1,0.6,0.1,0.8,0
				l1.6-0.7c0.2-0.1,0.2-0.3,0-0.4l-1.1-0.5C75.2,69.1,75,69.1,75,69.1z"/>
		</g>
		<g id="XMLID_622_" class="st47">
			<path id="XMLID_297_" class="st32" d="M82.7,67.3c0.2-0.1,0.2-0.3,0-0.4l-1.1-0.5c-0.2-0.1-0.6-0.1-0.8,0l-1.6,0.7
				c-0.2,0.1-0.2,0.3,0,0.4l1.1,0.5c0.2,0.1,0.6,0.1,0.8,0L82.7,67.3z"/>
		</g>
		<g id="XMLID_620_" class="st47">
			<path id="XMLID_296_" class="st32" d="M77.6,69.5c0,0,0.2,0,0.4-0.1l1.6-0.7c0.2-0.1,0.2-0.3,0-0.4l-1.1-0.5
				c-0.2-0.1-0.6-0.1-0.8,0l-1.6,0.7c-0.2,0.1-0.2,0.3,0,0.4l1.1,0.5C77.4,69.5,77.6,69.5,77.6,69.5z"/>
		</g>
		<g id="XMLID_618_" class="st47">
			<path id="XMLID_295_" class="st32" d="M88.3,70.2c-0.2,0.1-0.2,0.3,0,0.4l1.4,0.6c0.2,0.1,0.6,0.1,0.8,0l1.6-0.7
				c0.2-0.1,0.2-0.3,0-0.4l-1.4-0.6c-0.2-0.1-0.6-0.1-0.8,0L88.3,70.2z"/>
		</g>
		<g id="XMLID_616_" class="st47">
			<path id="XMLID_294_" class="st32" d="M103.7,63.2c-0.2,0.1-0.2,0.3,0,0.4l1.4,0.6c0.2,0.1,0.6,0.1,0.8,0l1.6-0.7
				c0.2-0.1,0.2-0.3,0-0.4l-1.4-0.6c-0.2-0.1-0.6-0.1-0.8,0L103.7,63.2z"/>
		</g>
		<g id="XMLID_614_" class="st47">
			<path id="XMLID_293_" class="st32" d="M106.7,61.8c-0.2,0.1-0.2,0.3,0,0.4l1.4,0.6c0.2,0.1,0.6,0.1,0.8,0l1.6-0.7
				c0.2-0.1,0.2-0.3,0-0.4l-1.4-0.6c-0.2-0.1-0.6-0.1-0.8,0L106.7,61.8z"/>
		</g>
		<g id="XMLID_612_" class="st47">
			<path id="XMLID_292_" class="st32" d="M114.8,60.9c-0.2,0.1-0.2,0.3,0,0.4l0.4,0.2c0.2,0.1,0.5,0.1,0.6,0l1.3-0.6
				c0.2-0.1,0.2-0.3,0-0.4l-0.6-0.3c-0.1-0.1-0.3-0.1-0.4,0L114.8,60.9z"/>
		</g>
		<g id="XMLID_610_" class="st47">
			<path id="XMLID_291_" class="st32" d="M83.7,66.7c0,0,0.2,0,0.4-0.1l1.6-0.7c0.2-0.1,0.2-0.3,0-0.4L84.6,65
				c-0.2-0.1-0.6-0.1-0.8,0l-1.6,0.7c-0.2,0.1-0.2,0.3,0,0.4l1.1,0.5C83.5,66.7,83.7,66.7,83.7,66.7z"/>
		</g>
		<g id="XMLID_608_" class="st47">
			<path id="XMLID_290_" class="st32" d="M91.4,68.8c-0.2,0.1-0.2,0.3,0,0.4l1.4,0.6c0.2,0.1,0.6,0.1,0.8,0l1.6-0.7
				c0.2-0.1,0.2-0.3,0-0.4l-1.4-0.6c-0.2-0.1-0.6-0.1-0.8,0L91.4,68.8z"/>
		</g>
		<g id="XMLID_606_" class="st47">
			<path id="XMLID_289_" class="st32" d="M94.4,67.4c-0.2,0.1-0.2,0.3,0,0.4l1.4,0.6c0.2,0.1,0.6,0.1,0.8,0l1.6-0.7
				c0.2-0.1,0.2-0.3,0-0.4l-1.4-0.6c-0.2-0.1-0.6-0.1-0.8,0L94.4,67.4z"/>
		</g>
		<g id="XMLID_604_" class="st47">
			<path id="XMLID_288_" class="st32" d="M99.4,65.2c0,0-0.2,0-0.4,0.1L97.5,66c-0.2,0.1-0.2,0.3,0,0.4l1.3,0.6
				c0.2,0.1,0.4,0.1,0.4,0.1c0,0,0.2,0,0.4-0.1l1.5-0.7c0.2-0.1,0.2-0.3,0-0.4l-1.4-0.6C99.6,65.3,99.4,65.2,99.4,65.2z"/>
		</g>
		<g id="XMLID_602_" class="st47">
			<path id="XMLID_287_" class="st32" d="M102.6,63.8c0,0-0.2,0-0.4,0.1l-1.7,0.8c-0.2,0.1-0.2,0.3,0,0.4l1.4,0.6
				c0.2,0.1,0.6,0.1,0.8,0l1.7-0.8c0.2-0.1,0.2-0.3,0-0.4l-1.3-0.6C102.8,63.8,102.6,63.8,102.6,63.8z"/>
		</g>
		<g id="XMLID_600_" class="st47">
			<path id="XMLID_286_" class="st32" d="M85.8,66.6c0,0-0.2,0-0.4,0.1l-1.6,0.7c-0.2,0.1-0.2,0.3,0,0.4l1,0.5
				c0.2,0.1,0.3,0.1,0.4,0.1c0.1,0,0.2,0,0.4-0.1l1.6-0.7c0.2-0.1,0.2-0.3,0-0.4l-1-0.5C85.9,66.6,85.8,66.6,85.8,66.6z"/>
		</g>
		<g id="XMLID_598_" class="st47">
			<path id="XMLID_285_" class="st32" d="M94.7,66.6c0.1,0,0.2,0,0.4-0.1l1.6-0.7c0.2-0.1,0.2-0.3,0-0.4l-1.4-0.6
				c-0.2-0.1-0.6-0.1-0.8,0L93,65.5c-0.2,0.1-0.2,0.3,0,0.4l1.3,0.6C94.5,66.6,94.6,66.6,94.7,66.6z"/>
		</g>
		<g id="XMLID_596_" class="st47">
			<path id="XMLID_284_" class="st32" d="M99.7,64.4c0.2-0.1,0.2-0.3,0-0.4l-1.4-0.6c-0.2-0.1-0.6-0.1-0.8,0l-1.5,0.7
				c-0.2,0.1-0.2,0.3,0,0.4l1.4,0.6c0.2,0.1,0.6,0.1,0.8,0L99.7,64.4z"/>
		</g>
		<g id="XMLID_594_" class="st47">
			<path id="XMLID_283_" class="st32" d="M106,61.6c0.2-0.1,0.2-0.3,0-0.4l-1.4-0.6c-0.2-0.1-0.6-0.1-0.8,0l-1.6,0.7
				c-0.2,0.1-0.2,0.3,0,0.4l1.4,0.6c0.2,0.1,0.6,0.1,0.8,0L106,61.6z"/>
		</g>
		<g id="XMLID_592_" class="st47">
			<path id="XMLID_282_" class="st32" d="M93.7,67.2c0.2-0.1,0.2-0.3,0-0.4l-1.4-0.6c-0.2-0.1-0.6-0.1-0.8,0l-1.6,0.7
				c-0.2,0.1-0.2,0.3,0,0.4l1.4,0.6c0.2,0.1,0.6,0.1,0.8,0L93.7,67.2z"/>
		</g>
		<g id="XMLID_590_" class="st47">
			<path id="XMLID_281_" class="st32" d="M102.9,62.9c0.2-0.1,0.2-0.3,0-0.4l-1.4-0.6c-0.2-0.1-0.6-0.1-0.8,0L99,62.7
				c-0.2,0.1-0.2,0.3,0,0.4l1.3,0.6c0.2,0.1,0.6,0.1,0.8,0L102.9,62.9z"/>
		</g>
		<g id="XMLID_588_" class="st47">
			<path id="XMLID_280_" class="st32" d="M90.6,68.6c0.2-0.1,0.2-0.3,0-0.4l-1.2-0.6c-0.2-0.1-0.3-0.2-0.4-0.2c-0.1,0-0.2,0-0.5,0.1
				l-1.7,0.8c-0.2,0.1-0.2,0.3,0,0.4l1.4,0.6c0.2,0.1,0.6,0.1,0.8,0L90.6,68.6z"/>
		</g>
		<g id="XMLID_586_" class="st47">
			<path id="XMLID_279_" class="st32" d="M80.6,68.8c-0.2,0.1-0.2,0.3,0,0.4l1,0.5c0.2,0.1,0.6,0.1,0.8,0l1.6-0.7
				c0.2-0.1,0.2-0.3,0-0.4l-1-0.5c-0.2-0.1-0.6-0.1-0.8,0L80.6,68.8z"/>
		</g>
		<g id="XMLID_584_" class="st47">
			<path id="XMLID_278_" class="st32" d="M85.5,70.8c0,0,0.2,0,0.4-0.1l1.6-0.7c0.2-0.1,0.2-0.3,0-0.4L86.2,69
				c-0.2-0.1-0.6-0.1-0.8,0l-1.6,0.7c-0.2,0.1-0.2,0.3,0,0.4l1.3,0.6C85.2,70.8,85.5,70.8,85.5,70.8z"/>
		</g>
		<g id="XMLID_582_" class="st47">
			<path id="XMLID_277_" class="st32" d="M102.2,58.4c0,0,0.2-0.1,0.4-0.2l1.6-0.7c0.2-0.1,0.2-0.3,0-0.4l-1.1-0.5
				c-0.2-0.1-0.6-0.1-0.8,0l-1.6,0.7c-0.2,0.1-0.2,0.3,0,0.4l1.1,0.5C102,58.3,102.2,58.4,102.2,58.4z"/>
		</g>
		<g id="XMLID_580_" class="st47">
			<path id="XMLID_276_" class="st32" d="M91.9,63.1c0.2-0.1,0.2-0.3,0-0.4l-1.1-0.5c-0.2-0.1-0.6-0.1-0.8,0L88.3,63
				c-0.2,0.1-0.2,0.3,0,0.4l1.1,0.5c0.2,0.1,0.6,0.1,0.8,0L91.9,63.1z"/>
		</g>
		<g id="XMLID_578_" class="st47">
			<path id="XMLID_275_" class="st32" d="M109.9,59.4c0.2,0.1,0.6,0.1,0.8,0l1.9-0.9c0.2-0.1,0.2-0.3,0-0.4l-1.4-0.6
				c-0.2-0.1-0.6-0.1-0.8,0l-1.9,0.9c-0.2,0.1-0.2,0.3,0,0.4L109.9,59.4z"/>
		</g>
		<g id="XMLID_576_" class="st47">
			<path id="XMLID_274_" class="st32" d="M98,60.3c0.2-0.1,0.2-0.3,0-0.4l-1-0.5c-0.2-0.1-0.4-0.1-0.4-0.1c0,0-0.2,0-0.4,0.1
				l-1.7,0.8c-0.2,0.1-0.2,0.3,0,0.4l1.1,0.5c0.2,0.1,0.6,0.1,0.8,0L98,60.3z"/>
		</g>
		<g id="XMLID_574_" class="st47">
			<path id="XMLID_273_" class="st32" d="M94.8,61.8c0.2-0.1,0.2-0.3,0-0.4l-1.1-0.5c-0.2-0.1-0.4-0.1-0.4-0.1c0,0-0.2,0-0.4,0.1
				l-1.5,0.7c-0.2,0.1-0.2,0.3,0,0.4l1.1,0.5c0.2,0.1,0.6,0.1,0.8,0L94.8,61.8z"/>
		</g>
		<g id="XMLID_572_" class="st47">
			<path id="XMLID_272_" class="st32" d="M86.8,65.3c0,0,0.2,0,0.4-0.1l1.6-0.7c0.2-0.1,0.2-0.3,0-0.4l-1.1-0.5
				c-0.2-0.1-0.6-0.1-0.8,0l-1.6,0.7c-0.2,0.1-0.2,0.3,0,0.4l1.1,0.5C86.6,65.3,86.8,65.3,86.8,65.3z"/>
		</g>
		<g id="XMLID_570_" class="st47">
			<path id="XMLID_271_" class="st32" d="M101.1,58.9c0.2-0.1,0.2-0.3,0-0.4L100,58c-0.2-0.1-0.6-0.1-0.8,0l-1.6,0.7
				c-0.2,0.1-0.2,0.3,0,0.4l1.1,0.5c0.2,0.1,0.6,0.1,0.8,0L101.1,58.9z"/>
		</g>
		<g id="XMLID_568_" class="st47">
			<path id="XMLID_270_" class="st32" d="M108.7,57.7c0.2-0.1,0.2-0.3,0-0.4l-1-0.5c-0.2-0.1-0.6-0.1-0.8,0l-1.6,0.7
				c-0.2,0.1-0.2,0.3,0,0.4l1,0.5c0.2,0.1,0.6,0.1,0.8,0L108.7,57.7z"/>
		</g>
	</g>
	<g id="XMLID_452_" class="st48">
		<path id="XMLID_269_" class="st49" d="M82.6,76L82,76.3c-0.1,0-0.1,0.1,0,0.1l0.3,0.1c0,0,0,0,0.1,0l0.7-0.3c0.1,0,0.1-0.1,0-0.1
			L82.6,76C82.7,76,82.6,76,82.6,76z"/>
		<path id="XMLID_268_" class="st49" d="M107.7,54.8l-0.7,0.3c-0.1,0-0.1,0.1,0,0.1l0.3,0.1c0,0,0,0,0.1,0l0.7-0.3
			c0.1,0,0.1-0.1,0-0.1L107.7,54.8C107.7,54.8,107.7,54.8,107.7,54.8z"/>
		<path id="XMLID_267_" class="st49" d="M110.1,56.1l-0.7,0.3c-0.1,0-0.1,0.1,0,0.1l0.3,0.1c0,0,0,0,0.1,0l0.7-0.3
			c0.1,0,0.1-0.1,0-0.1L110.1,56.1C110.2,56.1,110.1,56.1,110.1,56.1z"/>
		<path id="XMLID_266_" class="st49" d="M77.3,73.6l-0.7,0.3c-0.1,0-0.1,0.1,0,0.1l0.3,0.1c0,0,0,0,0.1,0l0.7-0.3
			c0.1,0,0.1-0.1,0-0.1L77.3,73.6C77.4,73.6,77.4,73.6,77.3,73.6z"/>
		<path id="XMLID_263_" class="st49" d="M74.7,72.4l-0.7,0.3c-0.1,0-0.1,0.1,0,0.1l0.3,0.1c0,0,0,0,0.1,0l0.7-0.3
			c0.1,0,0.1-0.1,0-0.1L74.7,72.4C74.8,72.4,74.7,72.4,74.7,72.4z"/>
		<path id="XMLID_261_" class="st49" d="M70,70l-0.7,0.3c-0.1,0-0.1,0.1,0,0.1l0.3,0.1c0,0,0,0,0.1,0l0.7-0.3c0.1,0,0.1-0.1,0-0.1
			L70,70C70,69.9,70,69.9,70,70z"/>
		<path id="XMLID_259_" class="st49" d="M73.3,68.4l-0.7,0.3c-0.1,0-0.1,0.1,0,0.1l0.3,0.1c0,0,0,0,0.1,0l0.7-0.3
			c0.1,0,0.1-0.1,0-0.1L73.3,68.4C73.3,68.4,73.3,68.4,73.3,68.4z"/>
		<path id="XMLID_257_" class="st49" d="M76.5,66.9l-0.7,0.3c-0.1,0-0.1,0.1,0,0.1l0.3,0.1c0,0,0,0,0.1,0l0.7-0.3
			c0.1,0,0.1-0.1,0-0.1L76.5,66.9C76.6,66.9,76.5,66.9,76.5,66.9z"/>
		<path id="XMLID_256_" class="st49" d="M79.5,65.5l-0.7,0.3c-0.1,0-0.1,0.1,0,0.1l0.3,0.1c0,0,0,0,0.1,0l0.7-0.3
			c0.1,0,0.1-0.1,0-0.1L79.5,65.5C79.5,65.5,79.5,65.5,79.5,65.5z"/>
		<path id="XMLID_253_" class="st49" d="M82.7,64l-0.7,0.3c-0.1,0-0.1,0.1,0,0.1l0.3,0.1c0,0,0,0,0.1,0l0.7-0.3c0.1,0,0.1-0.1,0-0.1
			L82.7,64C82.8,64,82.7,64,82.7,64z"/>
		<path id="XMLID_251_" class="st49" d="M85.9,62.6l-0.7,0.3c-0.1,0-0.1,0.1,0,0.1l0.3,0.1c0,0,0,0,0.1,0l0.7-0.3
			c0.1,0,0.1-0.1,0-0.1L85.9,62.6C86,62.6,85.9,62.6,85.9,62.6z"/>
		<path id="XMLID_249_" class="st49" d="M89.2,61.2l-0.7,0.3c-0.1,0-0.1,0.1,0,0.1l0.3,0.1c0,0,0,0,0.1,0l0.7-0.3
			c0.1,0,0.1-0.1,0-0.1L89.2,61.2C89.2,61.2,89.2,61.2,89.2,61.2z"/>
		<path id="XMLID_247_" class="st49" d="M92.3,59.7L91.7,60c-0.1,0-0.1,0.1,0,0.1l0.3,0.1c0,0,0,0,0.1,0l0.7-0.3
			c0.1,0,0.1-0.1,0-0.1L92.3,59.7C92.4,59.7,92.4,59.7,92.3,59.7z"/>
		<path id="XMLID_246_" class="st49" d="M95.5,58.3l-0.7,0.3c-0.1,0-0.1,0.1,0,0.1l0.3,0.1c0,0,0,0,0.1,0l0.7-0.3
			c0.1,0,0.1-0.1,0-0.1L95.5,58.3C95.5,58.3,95.5,58.3,95.5,58.3z"/>
		<path id="XMLID_245_" class="st49" d="M98.9,56.7L98.2,57c-0.1,0-0.1,0.1,0,0.1l0.3,0.1c0,0,0,0,0.1,0l0.7-0.3
			c0.1,0,0.1-0.1,0-0.1L98.9,56.7C98.9,56.7,98.9,56.7,98.9,56.7z"/>
		<path id="XMLID_244_" class="st49" d="M102.1,55.2l-0.7,0.3c-0.1,0-0.1,0.1,0,0.1l0.3,0.1c0,0,0,0,0.1,0l0.7-0.3
			c0.1,0,0.1-0.1,0-0.1L102.1,55.2C102.2,55.2,102.2,55.2,102.1,55.2z"/>
		<path id="XMLID_243_" class="st49" d="M105.3,53.8l-0.7,0.3c-0.1,0-0.1,0.1,0,0.1l0.3,0.1c0,0,0,0,0.1,0l0.7-0.3
			c0.1,0,0.1-0.1,0-0.1L105.3,53.8C105.4,53.8,105.4,53.8,105.3,53.8z"/>
		<path id="XMLID_242_" class="st49" d="M80.3,74.9l-0.7,0.3c-0.1,0-0.1,0.1,0,0.1l0.3,0.1c0,0,0,0,0.1,0l0.7-0.3
			c0.1,0,0.1-0.1,0-0.1L80.3,74.9C80.3,74.9,80.3,74.9,80.3,74.9z"/>
		<g id="XMLID_547_">
			<path id="XMLID_241_" class="st26" d="M85.6,75.3C85.5,75.3,85.5,75.3,85.6,75.3l0.3,0.3c0.1,0,0.1,0,0.1,0c0,0,0.1,0,0.1,0
				l0.4-0.2c0.1,0,0.1-0.1,0-0.1l-0.4-0.2c-0.1,0-0.1,0-0.2,0L85.6,75.3z"/>
		</g>
		<g id="XMLID_545_">
			<path id="XMLID_240_" class="st26" d="M88.6,73.9C88.5,73.9,88.5,74,88.6,73.9l0.3,0.3c0.1,0,0.1,0,0.1,0c0,0,0.1,0,0.1,0
				l0.4-0.2c0.1,0,0.1-0.1,0-0.1l-0.4-0.2c-0.1,0-0.1,0-0.2,0L88.6,73.9z"/>
		</g>
		<g id="XMLID_543_">
			<path id="XMLID_239_" class="st26" d="M91.6,72.4C91.6,72.5,91.6,72.5,91.6,72.4l0.3,0.3c0.1,0,0.1,0,0.1,0c0,0,0.1,0,0.1,0
				l0.4-0.2c0.1,0,0.1-0.1,0-0.1l-0.4-0.2c-0.1,0-0.1,0-0.2,0L91.6,72.4z"/>
		</g>
		<g id="XMLID_541_">
			<path id="XMLID_238_" class="st26" d="M108.3,64.9C108.2,64.9,108.2,65,108.3,64.9l0.3,0.3c0.1,0,0.1,0,0.1,0c0,0,0.1,0,0.1,0
				l0.4-0.2c0.1,0,0.1-0.1,0-0.1l-0.4-0.2c-0.1,0-0.1,0-0.2,0L108.3,64.9z"/>
		</g>
		<g id="XMLID_539_">
			<path id="XMLID_237_" class="st26" d="M111.4,63.5C111.4,63.5,111.4,63.5,111.4,63.5l0.3,0.3c0.1,0,0.1,0,0.1,0c0,0,0.1,0,0.1,0
				l0.4-0.2c0.1,0,0.1-0.1,0-0.1l-0.4-0.2c-0.1,0-0.1,0-0.2,0L111.4,63.5z"/>
		</g>
		<g id="XMLID_537_">
			<path id="XMLID_236_" class="st26" d="M115.5,58.7C115.5,58.8,115.5,58.8,115.5,58.7l0.3,0.3c0.1,0,0.1,0,0.1,0c0,0,0.1,0,0.1,0
				l0.4-0.2c0.1,0,0.1-0.1,0-0.1l-0.4-0.2c-0.1,0-0.1,0-0.2,0L115.5,58.7z"/>
		</g>
		<g id="XMLID_535_">
			<path id="XMLID_235_" class="st26" d="M95.9,67.5C95.8,67.5,95.8,67.6,95.9,67.5l0.3,0.2c0,0,0.1,0,0.1,0c0,0,0,0,0.1,0l0.3-0.2
				c0,0,0-0.1,0-0.1l-0.3-0.1c0,0-0.1,0-0.2,0L95.9,67.5z"/>
		</g>
		<g id="XMLID_533_">
			<path id="XMLID_234_" class="st26" d="M83.6,73.1C83.6,73.1,83.6,73.2,83.6,73.1l0.3,0.2c0,0,0.1,0,0.1,0c0,0,0,0,0.1,0l0.3-0.2
				c0,0,0-0.1,0-0.1l-0.3-0.1c0,0-0.1,0-0.2,0L83.6,73.1z"/>
		</g>
		<g id="XMLID_531_">
			<path id="XMLID_233_" class="st26" d="M86.7,71.7C86.7,71.7,86.7,71.8,86.7,71.7l0.3,0.2c0,0,0.1,0,0.1,0c0,0,0,0,0.1,0l0.3-0.2
				c0,0,0-0.1,0-0.1l-0.3-0.1c0,0-0.1,0-0.2,0L86.7,71.7z"/>
		</g>
		<g id="XMLID_529_">
			<path id="XMLID_232_" class="st26" d="M89.8,70.3C89.7,70.3,89.7,70.4,89.8,70.3l0.3,0.2c0,0,0.1,0,0.1,0c0,0,0,0,0.1,0l0.3-0.2
				c0,0,0-0.1,0-0.1l-0.3-0.1c0,0-0.1,0-0.2,0L89.8,70.3z"/>
		</g>
		<g id="XMLID_527_">
			<path id="XMLID_231_" class="st26" d="M92.9,68.9C92.8,68.9,92.8,69,92.9,68.9l0.3,0.2c0,0,0.1,0,0.1,0c0,0,0,0,0.1,0l0.3-0.2
				c0,0,0-0.1,0-0.1l-0.3-0.1c0,0-0.1,0-0.2,0L92.9,68.9z"/>
		</g>
		<g id="XMLID_525_">
			<path id="XMLID_230_" class="st26" d="M99,66.1C99,66.1,99,66.2,99,66.1l0.3,0.2c0,0,0.1,0,0.1,0c0,0,0,0,0.1,0l0.3-0.2
				c0,0,0-0.1,0-0.1L99.5,66c0,0-0.1,0-0.2,0L99,66.1z"/>
		</g>
		<g id="XMLID_523_">
			<path id="XMLID_229_" class="st26" d="M102.1,64.7C102.1,64.7,102.1,64.8,102.1,64.7l0.3,0.2c0,0,0.1,0,0.1,0c0,0,0,0,0.1,0
				l0.3-0.2c0,0,0-0.1,0-0.1l-0.3-0.1c0,0-0.1,0-0.2,0L102.1,64.7z"/>
		</g>
		<g id="XMLID_521_">
			<path id="XMLID_228_" class="st26" d="M105.2,63.3C105.2,63.4,105.2,63.4,105.2,63.3l0.3,0.2c0,0,0.1,0,0.1,0c0,0,0,0,0.1,0
				l0.3-0.2c0,0,0-0.1,0-0.1l-0.3-0.1c0,0-0.1,0-0.2,0L105.2,63.3z"/>
		</g>
		<g id="XMLID_519_">
			<path id="XMLID_227_" class="st26" d="M108.3,61.9C108.2,62,108.2,62,108.3,61.9l0.3,0.2c0,0,0.1,0,0.1,0c0,0,0,0,0.1,0l0.3-0.2
				c0,0,0-0.1,0-0.1l-0.3-0.1c0,0-0.1,0-0.2,0L108.3,61.9z"/>
		</g>
		<g id="XMLID_517_">
			<path id="XMLID_226_" class="st26" d="M94.5,65.6C94.5,65.6,94.5,65.6,94.5,65.6l0.3,0.2c0,0,0.1,0,0.1,0c0,0,0,0,0.1,0l0.3-0.2
				c0,0,0-0.1,0-0.1L95,65.4c0,0-0.1,0-0.2,0L94.5,65.6z"/>
		</g>
		<g id="XMLID_515_">
			<path id="XMLID_225_" class="st26" d="M82.3,71.2C82.2,71.2,82.2,71.2,82.3,71.2l0.3,0.2c0,0,0.1,0,0.1,0c0,0,0,0,0.1,0l0.3-0.2
				c0,0,0-0.1,0-0.1L82.8,71c0,0-0.1,0-0.2,0L82.3,71.2z"/>
		</g>
		<g id="XMLID_513_">
			<path id="XMLID_220_" class="st26" d="M85.3,69.8C85.3,69.8,85.3,69.8,85.3,69.8l0.3,0.2c0,0,0.1,0,0.1,0c0,0,0,0,0.1,0l0.3-0.2
				c0,0,0-0.1,0-0.1l-0.3-0.1c0,0-0.1,0-0.2,0L85.3,69.8z"/>
		</g>
		<g id="XMLID_511_">
			<path id="XMLID_219_" class="st26" d="M88.4,68.4C88.4,68.4,88.4,68.4,88.4,68.4l0.3,0.2c0,0,0.1,0,0.1,0c0,0,0,0,0.1,0l0.3-0.2
				c0,0,0-0.1,0-0.1l-0.3-0.1c0,0-0.1,0-0.2,0L88.4,68.4z"/>
		</g>
		<g id="XMLID_509_">
			<path id="XMLID_211_" class="st26" d="M91.5,67C91.5,67,91.5,67,91.5,67l0.3,0.2c0,0,0.1,0,0.1,0c0,0,0,0,0.1,0l0.3-0.2
				c0,0,0-0.1,0-0.1L92,66.8c0,0-0.1,0-0.2,0L91.5,67z"/>
		</g>
		<g id="XMLID_507_">
			<path id="XMLID_210_" class="st26" d="M97.7,64.2C97.6,64.2,97.6,64.2,97.7,64.2l0.3,0.2c0,0,0.1,0,0.1,0c0,0,0,0,0.1,0l0.3-0.2
				c0,0,0-0.1,0-0.1L98.2,64c0,0-0.1,0-0.2,0L97.7,64.2z"/>
		</g>
		<g id="XMLID_505_">
			<path id="XMLID_191_" class="st26" d="M100.8,62.8C100.7,62.8,100.7,62.8,100.8,62.8L101,63c0,0,0.1,0,0.1,0s0,0,0.1,0l0.3-0.2
				c0,0,0-0.1,0-0.1l-0.3-0.1c0,0-0.1,0-0.2,0L100.8,62.8z"/>
		</g>
		<g id="XMLID_503_">
			<path id="XMLID_189_" class="st26" d="M103.8,61.4C103.8,61.4,103.8,61.4,103.8,61.4l0.3,0.2c0,0,0.1,0,0.1,0c0,0,0,0,0.1,0
				l0.3-0.2c0,0,0-0.1,0-0.1l-0.3-0.1c0,0-0.1,0-0.2,0L103.8,61.4z"/>
		</g>
		<g id="XMLID_501_">
			<path id="XMLID_188_" class="st26" d="M106.9,60C106.9,60,106.9,60,106.9,60l0.3,0.2c0,0,0.1,0,0.1,0c0,0,0,0,0.1,0l0.3-0.2
				c0,0,0-0.1,0-0.1l-0.3-0.1c0,0-0.1,0-0.2,0L106.9,60z"/>
		</g>
		<g id="XMLID_499_">
			<path id="XMLID_186_" class="st26" d="M110.2,58.5C110.2,58.5,110.2,58.5,110.2,58.5l0.3,0.2c0,0,0.1,0,0.1,0c0,0,0,0,0.1,0
				l0.3-0.2c0,0,0-0.1,0-0.1l-0.3-0.1c0,0-0.1,0-0.2,0L110.2,58.5z"/>
		</g>
		<g id="XMLID_497_">
			<path id="XMLID_185_" class="st26" d="M91.2,64.7C91.2,64.7,91.2,64.7,91.2,64.7l0.3,0.2c0,0,0.1,0,0.1,0c0,0,0,0,0.1,0l0.3-0.2
				c0,0,0-0.1,0-0.1l-0.3-0.1c0,0-0.1,0-0.2,0L91.2,64.7z"/>
		</g>
		<g id="XMLID_495_">
			<path id="XMLID_182_" class="st26" d="M79,70.2C78.9,70.3,78.9,70.3,79,70.2l0.3,0.2c0,0,0.1,0,0.1,0c0,0,0,0,0.1,0l0.3-0.2
				c0,0,0-0.1,0-0.1l-0.3-0.1c0,0-0.1,0-0.2,0L79,70.2z"/>
		</g>
		<g id="XMLID_493_">
			<path id="XMLID_181_" class="st26" d="M82,68.8C82,68.9,82,68.9,82,68.8l0.3,0.2c0,0,0.1,0,0.1,0c0,0,0,0,0.1,0l0.3-0.2
				c0,0,0-0.1,0-0.1l-0.3-0.1c0,0-0.1,0-0.2,0L82,68.8z"/>
		</g>
		<g id="XMLID_491_">
			<path id="XMLID_179_" class="st26" d="M85.1,67.4C85.1,67.5,85.1,67.5,85.1,67.4l0.3,0.2c0,0,0.1,0,0.1,0c0,0,0,0,0.1,0l0.3-0.2
				c0,0,0-0.1,0-0.1l-0.3-0.1c0,0-0.1,0-0.2,0L85.1,67.4z"/>
		</g>
		<g id="XMLID_489_">
			<path id="XMLID_178_" class="st26" d="M88.2,66C88.2,66.1,88.2,66.1,88.2,66l0.3,0.2c0,0,0.1,0,0.1,0c0,0,0,0,0.1,0l0.3-0.2
				c0,0,0-0.1,0-0.1l-0.3-0.1c0,0-0.1,0-0.2,0L88.2,66z"/>
		</g>
		<g id="XMLID_487_">
			<path id="XMLID_175_" class="st26" d="M94.4,63.3C94.3,63.3,94.3,63.3,94.4,63.3l0.3,0.2c0,0,0.1,0,0.1,0c0,0,0,0,0.1,0l0.3-0.2
				c0,0,0-0.1,0-0.1l-0.3-0.1c0,0-0.1,0-0.2,0L94.4,63.3z"/>
		</g>
		<g id="XMLID_485_">
			<path id="XMLID_174_" class="st26" d="M97.5,61.9C97.4,61.9,97.4,61.9,97.5,61.9l0.3,0.2c0,0,0.1,0,0.1,0c0,0,0,0,0.1,0l0.3-0.2
				c0,0,0-0.1,0-0.1L98,61.7c0,0-0.1,0-0.2,0L97.5,61.9z"/>
		</g>
		<g id="XMLID_483_">
			<path id="XMLID_172_" class="st26" d="M100.5,60.5C100.5,60.5,100.5,60.5,100.5,60.5l0.3,0.2c0,0,0.1,0,0.1,0c0,0,0,0,0.1,0
				l0.3-0.2c0,0,0-0.1,0-0.1l-0.3-0.1c0,0-0.1,0-0.2,0L100.5,60.5z"/>
		</g>
		<g id="XMLID_481_">
			<path id="XMLID_170_" class="st26" d="M103.6,59.1C103.6,59.1,103.6,59.1,103.6,59.1l0.3,0.2c0,0,0.1,0,0.1,0c0,0,0,0,0.1,0
				l0.3-0.2c0,0,0-0.1,0-0.1l-0.3-0.1c0,0-0.1,0-0.2,0L103.6,59.1z"/>
		</g>
		<g id="XMLID_479_">
			<path id="XMLID_167_" class="st26" d="M106.6,57.6C106.5,57.7,106.5,57.7,106.6,57.6l0.3,0.2c0,0,0.1,0,0.1,0c0,0,0,0,0.1,0
				l0.3-0.2c0,0,0-0.1,0-0.1l-0.3-0.1c0,0-0.1,0-0.2,0L106.6,57.6z"/>
		</g>
		<g id="XMLID_477_">
			<path id="XMLID_164_" class="st26" d="M83.5,65.8C83.5,65.9,83.5,65.9,83.5,65.8l0.3,0.2c0,0,0.1,0,0.1,0c0,0,0,0,0.1,0l0.3-0.2
				c0,0,0-0.1,0-0.1L84,65.7c0,0-0.1,0-0.2,0L83.5,65.8z"/>
		</g>
		<g id="XMLID_475_">
			<path id="XMLID_162_" class="st26" d="M71.3,71.4C71.2,71.4,71.2,71.5,71.3,71.4l0.3,0.2c0,0,0.1,0,0.1,0c0,0,0,0,0.1,0l0.3-0.2
				c0,0,0-0.1,0-0.1l-0.3-0.1c0,0-0.1,0-0.2,0L71.3,71.4z"/>
		</g>
		<g id="XMLID_473_">
			<path id="XMLID_159_" class="st26" d="M74.3,70C74.3,70,74.3,70.1,74.3,70l0.3,0.2c0,0,0.1,0,0.1,0c0,0,0,0,0.1,0l0.3-0.2
				c0,0,0-0.1,0-0.1l-0.3-0.1c0,0-0.1,0-0.2,0L74.3,70z"/>
		</g>
		<g id="XMLID_471_">
			<path id="XMLID_157_" class="st26" d="M77.4,68.6C77.4,68.6,77.4,68.7,77.4,68.6l0.3,0.2c0,0,0.1,0,0.1,0c0,0,0,0,0.1,0l0.3-0.2
				c0,0,0-0.1,0-0.1l-0.3-0.1c0,0-0.1,0-0.2,0L77.4,68.6z"/>
		</g>
		<g id="XMLID_469_">
			<path id="XMLID_155_" class="st26" d="M80.5,67.2C80.5,67.2,80.5,67.3,80.5,67.2l0.3,0.2c0,0,0.1,0,0.1,0c0,0,0,0,0.1,0l0.3-0.2
				c0,0,0-0.1,0-0.1L81,67.1c0,0-0.1,0-0.2,0L80.5,67.2z"/>
		</g>
		<g id="XMLID_467_">
			<path id="XMLID_151_" class="st26" d="M86.7,64.4C86.6,64.5,86.6,64.5,86.7,64.4l0.3,0.2c0,0,0.1,0,0.1,0c0,0,0,0,0.1,0l0.3-0.2
				c0,0,0-0.1,0-0.1l-0.3-0.1c0,0-0.1,0-0.2,0L86.7,64.4z"/>
		</g>
		<g id="XMLID_465_">
			<path id="XMLID_146_" class="st26" d="M89.8,63C89.7,63.1,89.7,63.1,89.8,63l0.3,0.2c0,0,0.1,0,0.1,0c0,0,0,0,0.1,0l0.3-0.2
				c0,0,0-0.1,0-0.1l-0.3-0.1c0,0-0.1,0-0.2,0L89.8,63z"/>
		</g>
		<g id="XMLID_463_">
			<path id="XMLID_137_" class="st26" d="M92.8,61.6C92.8,61.7,92.8,61.7,92.8,61.6l0.3,0.2c0,0,0.1,0,0.1,0c0,0,0,0,0.1,0l0.3-0.2
				c0,0,0-0.1,0-0.1l-0.3-0.1c0,0-0.1,0-0.2,0L92.8,61.6z"/>
		</g>
		<g id="XMLID_461_">
			<path id="XMLID_135_" class="st26" d="M95.9,60.2C95.9,60.3,95.9,60.3,95.9,60.2l0.3,0.2c0,0,0.1,0,0.1,0c0,0,0,0,0.1,0l0.3-0.2
				c0,0,0-0.1,0-0.1l-0.3-0.1c0,0-0.1,0-0.2,0L95.9,60.2z"/>
		</g>
		<g id="XMLID_459_">
			<path id="XMLID_134_" class="st26" d="M98.9,58.8C98.8,58.8,98.8,58.9,98.9,58.8l0.3,0.2c0,0,0.1,0,0.1,0c0,0,0,0,0.1,0l0.3-0.2
				c0,0,0-0.1,0-0.1l-0.3-0.1c0,0-0.1,0-0.2,0L98.9,58.8z"/>
		</g>
		<g id="XMLID_457_">
			<path id="XMLID_130_" class="st26" d="M102,57.4C101.9,57.4,101.9,57.4,102,57.4l0.3,0.2c0,0,0.1,0,0.1,0c0,0,0,0,0.1,0l0.3-0.2
				c0,0,0-0.1,0-0.1l-0.3-0.1c0,0-0.1,0-0.2,0L102,57.4z"/>
		</g>
		<path id="XMLID_127_" class="st26" d="M115.9,60.7l0.3,0.1c0,0,0,0,0,0.1L116,61c0,0,0,0,0,0L115.9,60.7
			C115.9,60.7,115.9,60.7,115.9,60.7z"/>
		<path id="XMLID_126_" class="st26" d="M116.8,61.4l0.2-0.1c0,0,0,0,0,0l0.1,0.2c0,0,0,0,0,0L116.8,61.4
			C116.8,61.4,116.8,61.4,116.8,61.4z"/>
		<path id="XMLID_125_" class="st26" d="M114.9,62.3C114.9,62.3,114.9,62.3,114.9,62.3l0.2,0.1c0,0,0,0,0,0l-0.3,0.1c0,0,0,0,0,0
			L114.9,62.3z"/>
		<path id="XMLID_1_" class="st26" d="M118.9,60.4C118.9,60.4,118.9,60.5,118.9,60.4l0.1,0.1c0,0,0.1,0,0.1,0l0.1-0.1c0,0,0,0,0,0
			L118.9,60.4z"/>
	</g>
</g>
<g id="XMLID_451_">
	<path id="XMLID_455_" class="st26" d="M270,68.5c-0.1-0.1-0.2-0.1-0.3-0.2c-1.4-8.9-7.6-18.7-15.1-23c-2.1-1.2-4.2-1.9-6-2.1
		c-1.1-3.7-2.7-7.5-4.8-11.2c-4.4-7.5-10.1-13.4-15.8-16.7c-5.7-3.3-11.5-4.1-15.9-1.6l-7.9,4.6c-1.9,1.1-3.4,2.7-4.5,4.8
		c-2.1-0.3-4,0-5.5,0.9l-7.9,4.6c0,0,0,0,0,0c-2.8,1.6-4.5,5-4.5,9.9c0,9.3,6.2,20.6,14.2,26l66,38.1c3.8,2.2,7.2,2.3,9.6,0.6
		c-0.1,0.1-0.3,0.2-0.4,0.3l7.9-4.6c2.3-1.3,3.7-4.2,3.8-8.3C282.8,82.5,277.1,72.6,270,68.5z"/>
	<g id="XMLID_453_">
		<path id="XMLID_454_" class="st2" d="M220,20c5.7,3.3,11.5,9.1,15.8,16.7c2.1,3.7,3.8,7.5,4.8,11.2c1.9,0.2,3.9,0.8,6,2.1
			c7.5,4.3,13.7,14,15.1,23c0.1,0.1,0.2,0.1,0.3,0.2c7.1,4.1,12.9,14.1,12.8,22.2c0,8.2-5.8,11.5-12.9,7.4l-66-38.1
			c-8-5.4-14.2-16.6-14.2-26c0-9.8,7-13.7,15.5-8.8c0.1,0.1,0.3,0.2,0.4,0.3c0.6-5.3,2.7-9.5,6.5-11.6C208.6,15.9,214.3,16.7,220,20
			z"/>
	</g>
</g>
</svg>
