<?xml version="1.0" encoding="utf-8"?>
<!-- Generator: Adobe Illustrator 19.0.0, SVG Export Plug-In . SVG Version: 6.00 Build 0)  -->
<svg version="1.1" id="Layer_1" xmlns="http://www.w3.org/2000/svg" xmlns:xlink="http://www.w3.org/1999/xlink" x="0px" y="0px"
	 viewBox="186 -70 600 200" style="enable-background:new 186 -70 600 200;" xml:space="preserve">
<style type="text/css">
	.st0{fill:#00202E;}
	.st1{fill:#FFFFFF;}
</style>
<path class="st0" d="M321.6,60.2c0,3.4-2.8,6.3-6.3,6.3H199.9c-3.4,0-6.3-2.8-6.3-6.3v-83.5c0-3.4,2.8-6.3,6.3-6.3h115.5
	c3.4,0,6.3,2.8,6.3,6.3v83.5H321.6z"/>
<g>
	<polygon class="st1" points="307.1,10.4 302.1,-1.7 298,7.4 298,6.6 302.4,-4.3 307.6,8.2 	"/>
	<path class="st1" d="M276.8,21.6l4.4-0.8c-0.8-0.3-1.8-0.5-2.8-0.6l0,0l0,0c-2.3-0.2-4.7,0.4-6,2.2c-0.1,2.2-0.5,4.4-0.3,6.6
		l4.4-0.8C276.3,26.1,276.6,23.9,276.8,21.6C276.8,21.7,276.8,21.7,276.8,21.6z"/>
	<path class="st1" d="M264.3,21.4l4.4-0.8c-0.9-0.3-1.8-0.5-2.8-0.6l0,0l0,0c-2.3-0.2-4.7,0.4-6,2.2c-0.1,2.2-0.5,4.4-0.3,6.6
		L264,28C263.8,25.9,264.1,23.7,264.3,21.4C264.3,21.5,264.3,21.5,264.3,21.4z"/>
	<path class="st1" d="M252,21.5l4.4-0.8c-0.8-0.3-1.8-0.5-2.8-0.6l0,0l0,0c-2.3-0.2-4.7,0.4-6,2.2c-0.1,2.2-0.5,4.4-0.3,6.6l4.4-0.8
		C251.4,26,251.7,23.8,252,21.5C252,21.6,252,21.6,252,21.5z"/>
	<path class="st1" d="M239.2,21.5l4.4-0.8c-0.8-0.3-1.8-0.5-2.8-0.6l0,0l0,0c-2.3-0.2-4.7,0.4-6,2.2c-0.1,2.2-0.5,4.4-0.3,6.6
		l4.4-0.8C238.6,26,238.9,23.8,239.2,21.5C239.2,21.6,239.2,21.6,239.2,21.5z"/>
	<path class="st1" d="M226.7,21.7l4.4-0.8c-0.9-0.3-1.8-0.5-2.8-0.6l0,0l0,0c-2.3-0.2-4.7,0.4-6,2.2c-0.1,2.2-0.5,4.4-0.3,6.6
		l4.4-0.8C226.1,26.2,226.4,24,226.7,21.7C226.7,21.8,226.7,21.8,226.7,21.7z"/>
	<path class="st1" d="M214.2,21.5l4.4-0.8c-0.9-0.3-1.8-0.5-2.8-0.6l0,0l0,0c-2.3-0.2-4.7,0.4-6,2.2c-0.1,2.2-0.5,4.4-0.3,6.6
		l4.4-0.8C213.6,26,213.9,23.8,214.2,21.5C214.2,21.6,214.2,21.5,214.2,21.5z"/>
	<polygon class="st1" points="233.1,-7.9 241.1,-11.5 248.9,-7.3 248.9,-5.9 251.4,-7.4 251.5,-9.1 244.1,-13.3 	"/>
	<path class="st1" d="M306.5,13.2c0,2.7,0,5.4,0,8.1c0,0.5-0.4,0.9-0.9,0.9s-0.9-0.4-0.9-0.9c0-2.7,0-5.4,0-8.1
		c0-0.5,0.4-0.9,0.9-0.9C306.1,12.3,306.5,12.7,306.5,13.2L306.5,13.2z"/>
	<path class="st1" d="M303.2,13.2c0,2.7,0,5.4,0,8.1c0,0.5-0.4,0.9-0.9,0.9s-0.9-0.4-0.9-0.9c0-2.7,0-5.4,0-8.1
		c0-0.5,0.4-0.9,0.9-0.9S303.2,12.6,303.2,13.2L303.2,13.2z"/>
	<path class="st1" d="M299.8,13.2c0,2.7,0,5.4,0,8.1c0,0.5-0.4,0.9-0.9,0.9s-0.9-0.4-0.9-0.9c0-2.7,0-5.4,0-8.1
		c0-0.5,0.4-0.9,0.9-0.9C299.4,12.2,299.8,12.6,299.8,13.2L299.8,13.2z"/>
	<polygon class="st1" points="309.9,50.2 309.9,11 308.9,7.8 307.9,11 308,50.2 	"/>
	<polygon class="st1" points="296.5,50.2 296.5,11 295.9,8 295.3,11 295.3,50.2 	"/>
	<path class="st1" d="M205.3,5.1c0,0,13.1-8.3,25.5-9.5c0,0,17.5-3.4,35.2,6.2c0,0,10.2,5,16.6,12.9h6.1v35.4h-2.4v-33h-5.6
		c0,0-11.7-12.9-28.3-17.7C228.5-7.5,206.1,4.7,205.3,5.1z"/>
</g>
<g>
	<path class="st0" d="M347.6,50V1.9h13.9c15.6,0,19.6,5.4,19.6,13.2c0,4.5-2.2,7.8-6.1,10c4.4,2.1,7,6.3,7,11.1
		c0,8.3-6.8,13.9-15.5,13.9L347.6,50L347.6,50z M357.2,21.5c7.1,0,13.9,0.8,13.9-5.8c0-6.9-7.1-6.1-13.9-6.1V21.5z M363.5,42.4
		c2.9,0,8.5,0.4,8.5-6.9c0-6.6-5.4-7.4-14.8-6.7v13.7L363.5,42.4L363.5,42.4z"/>
	<path class="st0" d="M415.5,10.1h-20.3v11.5H412v8.2h-16.8v12.1h21.5V50h-31.1V1.9h30L415.5,10.1L415.5,10.1z"/>
	<path class="st0" d="M439.5,1.9c11.1,0,15.4,7.9,15.4,14c0,5.3-3.3,10.2-8.2,12.1l9.6,22h-10.2l-8.7-20H430v20h-9.7V1.9H439.5z
		 M434.4,21.9c4.2,0,10.6,0.2,10.6-5.8c0-6.6-6.5-6.1-11.3-6.1h-3.6v11.8L434.4,21.9L434.4,21.9z"/>
	<path class="st0" d="M484.5,1.9h11.1l-14.4,18.8L497.4,50h-11l-11.6-20.9l-5,6.4V50h-9.7V1.9h9.7V22L484.5,1.9z"/>
	<path class="st0" d="M530,10.1h-20.3v11.5h16.8v8.2h-16.8v12.1h21.5V50H500V1.9h30V10.1z"/>
	<path class="st0" d="M545.6,41.9h20V50h-29.7V1.9h9.7V41.9z"/>
	<path class="st0" d="M600.3,10.1H580v11.5h16.8v8.2H580v12.1h21.5V50h-31.1V1.9h30v8.2H600.3z"/>
	<path class="st0" d="M629.1,30.6V50h-9.7V30.6L603.6,1.9H614l10.4,21.2l10.8-21.2h10L629.1,30.6z"/>
	<path class="st0" d="M676.9,41.9H697V50h-29.7V1.9h9.7L676.9,41.9L676.9,41.9z"/>
	<path class="st0" d="M740.6,50h-9.8l-3.2-12h-14.2l-3.2,12h-9.8l13.5-48.1h13L740.6,50z M720.6,10.2h-0.2l-5.1,20.2h10.4
		L720.6,10.2z"/>
	<path class="st0" d="M744.7,50V1.9h13.9c15.6,0,19.6,5.4,19.6,13.2c0,4.5-2.2,7.8-6.1,10c4.4,2.1,7,6.3,7,11.1
		c0,8.3-6.8,13.9-15.5,13.9L744.7,50L744.7,50z M754.3,21.5c7.1,0,13.9,0.8,13.9-5.8c0-6.9-7.1-6.1-13.9-6.1V21.5z M760.6,42.4
		c2.9,0,8.5,0.4,8.5-6.9c0-6.6-5.4-7.4-14.8-6.7v13.7L760.6,42.4L760.6,42.4z"/>
</g>
<g>
	<path class="st0" d="M347.6,67h6.2c2.1,0,3.7,0.5,4.8,1.4s1.6,2,1.6,3.2c0,0.8-0.3,1.6-0.8,2.3c-0.5,0.7-1.4,1.3-2.5,1.8
		c1.3,0.5,2.2,1.1,2.8,1.9s0.9,1.6,0.9,2.5c0,1.2-0.6,2.3-1.7,3.3c-1.2,1-2.8,1.5-4.8,1.5h-6.5V67z M349.3,68.5v6.4h3.2
		c2.1,0,3.6-0.3,4.4-0.9c0.8-0.6,1.2-1.4,1.2-2.3s-0.4-1.6-1.1-2.2s-1.8-0.9-3.3-0.9L349.3,68.5L349.3,68.5z M349.3,76.4v6.8h4.7
		c1.5,0,2.7-0.4,3.7-1.2c0.7-0.6,1-1.3,1-2.2c0-0.7-0.2-1.2-0.6-1.8c-0.4-0.5-1-0.9-1.8-1.2c-0.8-0.3-1.7-0.4-2.8-0.4
		C353.5,76.4,349.3,76.4,349.3,76.4z"/>
	<path class="st0" d="M365.5,75c0.7-1.1,1.5-1.9,2.2-2.4c0.8-0.5,1.7-0.8,2.7-0.8c0.1,0,0.3,0,0.5,0l-0.2,1.9h-0.6
		c-0.5,0-1,0.1-1.5,0.3c-0.6,0.2-1.1,0.6-1.5,1.1c-0.4,0.5-0.8,1.2-1,1.9c-0.3,0.8-0.4,1.5-0.4,2v5.6H364V71.9h1.7V75H365.5z"/>
	<path class="st0" d="M373.3,67.1h1.7v2.1h-1.7V67.1z M373.3,72.2h1.7v12.7h-1.7V72.2z"/>
	<path class="st0" d="M380.7,73.6c0.9-0.6,1.8-1,2.7-1.3s1.6-0.4,2.1-0.4c0.6,0,1.2,0.1,1.7,0.4s1,0.7,1.3,1.3
		c0.4,0.6,0.6,1.4,0.6,2.3v8.9h-1.7V76c0-0.9-0.2-1.5-0.6-1.9c-0.4-0.4-0.9-0.6-1.6-0.6c-0.6,0-1.3,0.1-2,0.4
		c-0.8,0.3-1.6,0.7-2.5,1.2v9.8H379V72.2h1.7V73.6z"/>
	<path class="st0" d="M393.9,79.8c-0.6-0.5-1-1-1.2-1.5c-0.3-0.5-0.4-1.1-0.4-1.8c0-1.3,0.5-2.4,1.4-3.3c0.9-0.9,2.2-1.3,3.8-1.3
		c0.7,0,1.3,0.1,1.9,0.3c0.6,0.2,1.1,0.4,1.6,0.8c0.9-0.5,1.9-0.8,3.2-0.8v1.5h-0.6c-0.7,0-1.3,0.1-1.7,0.3c0.4,0.7,0.6,1.5,0.6,2.4
		c0,1.3-0.5,2.4-1.4,3.3s-2.2,1.3-3.8,1.3c-0.5,0-1.1-0.1-1.7-0.2c-0.3-0.1-0.5-0.1-0.7-0.1c-0.4,0-0.6,0.1-0.9,0.3
		c-0.2,0.2-0.3,0.4-0.3,0.6c0,0.3,0.2,0.5,0.5,0.7c0.2,0.1,0.7,0.1,1.6,0.2c2.2,0.1,3.8,0.3,4.8,0.6s1.8,0.8,2.2,1.4
		s0.6,1.2,0.6,1.9c0,0.7-0.2,1.3-0.7,1.9c-0.4,0.6-1.1,1-2,1.3c-0.9,0.3-1.8,0.4-2.8,0.4c-1.4,0-2.6-0.2-3.7-0.6
		c-0.9-0.3-1.5-0.7-2-1.3c-0.5-0.6-0.7-1.2-0.7-1.8c0-0.5,0.1-1,0.4-1.4s0.6-0.9,1.2-1.3c-0.4-0.3-0.7-0.5-0.8-0.8
		c-0.2-0.2-0.2-0.5-0.2-0.8c0-0.4,0.1-0.8,0.4-1.2S393.2,80.1,393.9,79.8z M394.6,84.1c-0.5,0.3-1,0.6-1.2,1
		c-0.3,0.3-0.4,0.7-0.4,1.1c0,0.5,0.3,0.9,0.9,1.3c0.9,0.6,2.1,0.9,3.8,0.9c1.6,0,2.8-0.2,3.5-0.7c0.5-0.3,0.7-0.8,0.7-1.3
		c0-0.6-0.4-1.1-1.3-1.5C399.6,84.5,397.7,84.3,394.6,84.1z M397.3,79.4c1.1,0,1.9-0.3,2.6-0.9c0.6-0.6,1-1.3,1-2.2
		c0-0.8-0.3-1.5-0.9-2c-0.6-0.6-1.5-0.8-2.5-0.8c-1.1,0-2,0.3-2.7,0.8c-0.6,0.6-0.9,1.3-0.9,2.1c0,0.8,0.3,1.6,0.9,2.1
		C395.4,79.1,396.3,79.4,397.3,79.4z"/>
	<path class="st0" d="M406.5,67.1h1.7v2.1h-1.7V67.1z M406.5,72.2h1.7v12.7h-1.7V72.2z"/>
	<path class="st0" d="M413.8,73.6c0.9-0.6,1.8-1,2.7-1.3s1.6-0.4,2.1-0.4c0.6,0,1.2,0.1,1.7,0.4s1,0.7,1.3,1.3
		c0.4,0.6,0.6,1.4,0.6,2.3v8.9h-1.7V76c0-0.9-0.2-1.5-0.6-1.9c-0.4-0.4-0.9-0.6-1.6-0.6c-0.6,0-1.3,0.1-2,0.4
		c-0.8,0.3-1.6,0.7-2.5,1.2v9.8h-1.7V72.2h1.7V73.6z"/>
	<path class="st0" d="M427,79.8c-0.6-0.5-1-1-1.2-1.5c-0.3-0.5-0.4-1.1-0.4-1.8c0-1.3,0.5-2.4,1.4-3.3c0.9-0.9,2.2-1.3,3.8-1.3
		c0.7,0,1.3,0.1,1.9,0.3c0.6,0.2,1.1,0.4,1.6,0.8c0.9-0.5,1.9-0.8,3.2-0.8v1.5h-0.6c-0.7,0-1.3,0.1-1.7,0.3c0.4,0.7,0.6,1.5,0.6,2.4
		c0,1.3-0.5,2.4-1.4,3.3S432,81,430.4,81c-0.5,0-1.1-0.1-1.7-0.2c-0.3-0.1-0.5-0.1-0.7-0.1c-0.4,0-0.6,0.1-0.9,0.3
		c-0.2,0.2-0.3,0.4-0.3,0.6c0,0.3,0.2,0.5,0.5,0.7c0.2,0.1,0.7,0.1,1.6,0.2c2.2,0.1,3.8,0.3,4.8,0.6s1.8,0.8,2.2,1.4
		s0.6,1.2,0.6,1.9c0,0.7-0.2,1.3-0.7,1.9c-0.4,0.6-1.1,1-2,1.3c-0.9,0.3-1.8,0.4-2.8,0.4c-1.4,0-2.6-0.2-3.7-0.6
		c-0.9-0.3-1.5-0.7-2-1.3c-0.5-0.6-0.7-1.2-0.7-1.8c0-0.5,0.1-1,0.4-1.4c0.3-0.4,0.6-0.9,1.2-1.3c-0.4-0.3-0.7-0.5-0.8-0.8
		c-0.2-0.2-0.2-0.5-0.2-0.8c0-0.4,0.1-0.8,0.4-1.2S426.4,80.1,427,79.8z M427.8,84.1c-0.5,0.3-1,0.6-1.2,1s-0.4,0.7-0.4,1.1
		c0,0.5,0.3,0.9,0.9,1.3c0.9,0.6,2.1,0.9,3.8,0.9c1.6,0,2.8-0.2,3.5-0.7c0.5-0.3,0.7-0.8,0.7-1.3c0-0.6-0.4-1.1-1.3-1.5
		C432.8,84.5,430.9,84.3,427.8,84.1z M430.5,79.4c1.1,0,1.9-0.3,2.6-0.9c0.6-0.6,1-1.3,1-2.2c0-0.8-0.3-1.5-0.9-2
		c-0.6-0.6-1.5-0.8-2.5-0.8c-1.1,0-2,0.3-2.7,0.8c-0.6,0.6-0.9,1.3-0.9,2.1c0,0.8,0.3,1.6,0.9,2.1C428.6,79.1,429.4,79.4,430.5,79.4
		z"/>
	<path class="st0" d="M447.7,79.8c0.2,0.7,0.4,1.3,0.7,1.6c0.4,0.6,0.9,1.1,1.6,1.5s1.5,0.6,2.4,0.6c1.3,0,2.4-0.3,3.1-1
		c0.8-0.7,1.1-1.5,1.1-2.4c0-0.8-0.3-1.6-1-2.2c-0.5-0.4-1.6-0.9-3.2-1.4c-2.2-0.6-3.7-1.3-4.6-2.2c-0.9-0.8-1.4-1.8-1.4-3
		c0-1.3,0.5-2.4,1.5-3.4c1-0.9,2.4-1.4,4-1.4c1,0,2,0.2,2.9,0.6s1.6,0.9,2.3,1.7c0.4,0.5,0.7,1.2,1,2l-1.8,0.6
		c-0.3-1.1-0.8-1.9-1.6-2.4c-0.8-0.6-1.7-0.8-2.7-0.8c-1.1,0-2,0.3-2.7,0.9c-0.7,0.6-1,1.3-1,2.1c0,0.7,0.3,1.3,0.8,1.8
		c0.5,0.5,1.7,1.1,3.6,1.6c2.2,0.6,3.7,1.4,4.5,2.2c0.8,0.8,1.2,1.9,1.2,3.2c0,1.4-0.6,2.7-1.7,3.7s-2.6,1.5-4.5,1.5
		c-1.2,0-2.2-0.2-3.2-0.7s-1.8-1.1-2.4-1.9c-0.4-0.6-0.8-1.3-1-2.3L447.7,79.8z"/>
	<path class="st0" d="M471.4,81.8c-0.6,1-1.2,1.8-1.9,2.3c-0.9,0.7-1.9,1-3.1,1c-1,0-1.9-0.3-2.8-0.8s-1.5-1.3-2-2.3
		s-0.7-2.2-0.7-3.5c0-2,0.5-3.6,1.6-4.8c1.1-1.2,2.4-1.8,3.9-1.8c1,0,2,0.3,2.8,0.8s1.6,1.4,2.1,2.4l-1.5,0.8c-0.5-0.9-1-1.6-1.6-2
		s-1.2-0.7-1.9-0.7c-1,0-1.9,0.4-2.7,1.3c-0.8,0.9-1.1,2.2-1.1,3.9c0,1.5,0.4,2.8,1.1,3.7c0.8,0.9,1.6,1.3,2.6,1.3
		c1.5,0,2.7-0.9,3.5-2.7L471.4,81.8z"/>
	<path class="st0" d="M474.2,67.1h1.7v2.1h-1.7V67.1z M474.2,72.2h1.7v12.7h-1.7V72.2z"/>
	<path class="st0" d="M489.8,82c-0.8,1-1.6,1.8-2.5,2.3s-1.8,0.8-2.7,0.8c-1.5,0-2.8-0.6-3.9-1.8s-1.6-2.8-1.6-4.9
		c0-2,0.5-3.6,1.6-4.8c1.1-1.2,2.3-1.7,3.7-1.7c0.9,0,1.9,0.3,2.7,0.8c0.9,0.6,1.5,1.3,2,2.3c0.4,0.9,0.7,2.2,0.7,3.7h-9
		c0,1,0.2,1.8,0.5,2.5c0.4,0.9,0.8,1.5,1.4,1.9s1.2,0.6,1.7,0.6c1.4,0,2.7-0.9,3.9-2.6L489.8,82z M488.1,77.1
		c-0.1-1.2-0.5-2.1-1.2-2.8c-0.7-0.7-1.5-1-2.3-1c-1.1,0-1.9,0.4-2.5,1.2c-0.6,0.8-1,1.7-1,2.6C481.1,77.1,488.1,77.1,488.1,77.1z"
		/>
	<path class="st0" d="M494.5,73.6c0.9-0.6,1.8-1,2.7-1.3c0.9-0.3,1.6-0.4,2.1-0.4c0.6,0,1.2,0.1,1.7,0.4s1,0.7,1.3,1.3
		c0.4,0.6,0.6,1.4,0.6,2.3v8.9h-1.7V76c0-0.9-0.2-1.5-0.6-1.9s-0.9-0.6-1.6-0.6c-0.6,0-1.3,0.1-2,0.4c-0.8,0.3-1.6,0.7-2.5,1.2v9.8
		h-1.7V72.2h1.7V73.6z"/>
	<path class="st0" d="M516.2,81.8c-0.6,1-1.2,1.8-1.9,2.3c-0.9,0.7-1.9,1-3.1,1c-1,0-1.9-0.3-2.8-0.8s-1.5-1.3-2-2.3
		s-0.7-2.2-0.7-3.5c0-2,0.5-3.6,1.6-4.8c1.1-1.2,2.4-1.8,3.9-1.8c1,0,2,0.3,2.8,0.8s1.6,1.4,2.1,2.4l-1.5,0.8c-0.5-0.9-1-1.6-1.6-2
		s-1.2-0.7-1.9-0.7c-1,0-1.9,0.4-2.7,1.3c-0.8,0.9-1.1,2.2-1.1,3.9c0,1.5,0.4,2.8,1.1,3.7c0.8,0.9,1.6,1.3,2.6,1.3
		c1.5,0,2.7-0.9,3.5-2.7L516.2,81.8z"/>
	<path class="st0" d="M528.8,82c-0.8,1-1.6,1.8-2.5,2.3s-1.8,0.8-2.7,0.8c-1.5,0-2.8-0.6-3.9-1.8c-1.1-1.2-1.6-2.8-1.6-4.9
		c0-2,0.5-3.6,1.6-4.8c1.1-1.2,2.3-1.7,3.7-1.7c0.9,0,1.9,0.3,2.7,0.8c0.9,0.6,1.5,1.3,2,2.3c0.4,0.9,0.7,2.2,0.7,3.7h-9
		c0,1,0.2,1.8,0.5,2.5c0.4,0.9,0.8,1.5,1.4,1.9s1.2,0.6,1.7,0.6c1.4,0,2.7-0.9,3.9-2.6L528.8,82z M527,77.1
		c-0.1-1.2-0.5-2.1-1.2-2.8c-0.7-0.7-1.5-1-2.3-1c-1.1,0-1.9,0.4-2.5,1.2c-0.6,0.8-1,1.7-1,2.6C520,77.1,527,77.1,527,77.1z"/>
	<path class="st0" d="M540,79.8c0.2,0.7,0.4,1.3,0.7,1.6c0.4,0.6,0.9,1.1,1.6,1.5c0.7,0.4,1.5,0.6,2.4,0.6c1.3,0,2.4-0.3,3.1-1
		c0.8-0.7,1.1-1.5,1.1-2.4c0-0.8-0.3-1.6-1-2.2c-0.5-0.4-1.6-0.9-3.2-1.4c-2.2-0.6-3.7-1.3-4.6-2.2c-0.9-0.8-1.4-1.8-1.4-3
		c0-1.3,0.5-2.4,1.5-3.4c1-0.9,2.4-1.4,4-1.4c1,0,2,0.2,2.9,0.6c0.9,0.4,1.6,0.9,2.3,1.7c0.4,0.5,0.7,1.2,1,2l-1.8,0.6
		c-0.3-1.1-0.8-1.9-1.6-2.4c-0.8-0.6-1.7-0.8-2.7-0.8c-1.1,0-2,0.3-2.7,0.9s-1,1.3-1,2.1c0,0.7,0.3,1.3,0.8,1.8s1.7,1.1,3.6,1.6
		c2.2,0.6,3.7,1.4,4.5,2.2c0.8,0.8,1.2,1.9,1.2,3.2c0,1.4-0.6,2.7-1.7,3.7c-1.1,1-2.6,1.5-4.5,1.5c-1.2,0-2.2-0.2-3.2-0.7
		s-1.8-1.1-2.4-1.9c-0.4-0.6-0.8-1.3-1-2.3L540,79.8z"/>
	<path class="st0" d="M559,85.1c-1.6,0-3-0.6-4.1-1.8c-1.1-1.2-1.7-2.8-1.7-4.8c0-1.3,0.2-2.5,0.7-3.6c0.5-1,1.2-1.8,2.1-2.3
		s1.8-0.8,2.8-0.8s1.9,0.3,2.8,0.8s1.6,1.3,2.1,2.4s0.8,2.2,0.8,3.5c0,2-0.5,3.6-1.6,4.7C561.8,84.5,560.5,85.1,559,85.1z
		 M558.9,83.7c1,0,1.9-0.4,2.7-1.3c0.8-0.9,1.2-2.2,1.2-3.9c0-1.7-0.4-2.9-1.1-3.8s-1.6-1.3-2.7-1.3s-2.1,0.4-2.8,1.3
		c-0.8,0.9-1.1,2.1-1.1,3.8c0,1.7,0.4,3,1.1,3.9C556.9,83.2,557.8,83.7,558.9,83.7z"/>
	<path class="st0" d="M567.6,67h1.7v17.9h-1.7V67z"/>
	<path class="st0" d="M573.1,72.2h1.7v8.3c0,0.9,0.2,1.6,0.7,2.2c0.5,0.5,1,0.8,1.6,0.8s1.2-0.2,1.8-0.5c0.7-0.3,1.5-0.9,2.5-1.7
		v-9.1h1.7v12.7h-1.7v-2c-1,0.8-1.8,1.3-2.6,1.7c-0.8,0.4-1.5,0.6-2.2,0.6c-0.6,0-1.2-0.1-1.7-0.4s-1-0.7-1.3-1.4
		c-0.3-0.6-0.5-1.5-0.5-2.5V72.2z"/>
	<path class="st0" d="M587.9,67.5h1.7v4.6h3.2v1.6h-3.2v7.9c0,0.7,0.2,1.2,0.5,1.5c0.3,0.4,0.8,0.5,1.4,0.5c0.3,0,0.7-0.1,1.2-0.2
		v1.5c-0.6,0.1-1.1,0.1-1.5,0.1c-1.2,0-2.1-0.3-2.6-0.8s-0.8-1.3-0.8-2.5v-8.2h-2.2v-1.6h2.2L587.9,67.5L587.9,67.5z"/>
	<path class="st0" d="M595.4,67.1h1.7v2.1h-1.7V67.1z M595.4,72.2h1.7v12.7h-1.7V72.2z"/>
	<path class="st0" d="M606.1,85.1c-1.6,0-3-0.6-4.1-1.8c-1.1-1.2-1.7-2.8-1.7-4.8c0-1.3,0.2-2.5,0.7-3.6c0.5-1,1.2-1.8,2.1-2.3
		c0.9-0.5,1.8-0.8,2.8-0.8s1.9,0.3,2.8,0.8c0.9,0.5,1.6,1.3,2.1,2.4s0.8,2.2,0.8,3.5c0,2-0.5,3.6-1.6,4.7
		C608.9,84.5,607.6,85.1,606.1,85.1z M606,83.7c1,0,1.9-0.4,2.7-1.3s1.2-2.2,1.2-3.9c0-1.7-0.4-2.9-1.1-3.8
		c-0.7-0.9-1.6-1.3-2.7-1.3c-1.1,0-2.1,0.4-2.8,1.3c-0.8,0.9-1.1,2.1-1.1,3.8c0,1.7,0.4,3,1.1,3.9C603.9,83.2,604.9,83.7,606,83.7z"
		/>
	<path class="st0" d="M616.3,73.6c0.9-0.6,1.8-1,2.7-1.3s1.6-0.4,2.1-0.4c0.6,0,1.2,0.1,1.7,0.4s1,0.7,1.3,1.3
		c0.4,0.6,0.6,1.4,0.6,2.3v8.9H623V76c0-0.9-0.2-1.5-0.6-1.9c-0.4-0.4-0.9-0.6-1.6-0.6c-0.6,0-1.3,0.1-2,0.4
		c-0.8,0.3-1.6,0.7-2.5,1.2v9.8h-1.7V72.2h1.7V73.6z"/>
	<path class="st0" d="M628.5,77.5c-0.6-0.7-0.9-1.4-0.9-2.2c0-0.9,0.4-1.7,1.1-2.4c0.8-0.7,1.8-1,3.2-1c0.9,0,1.8,0.2,2.6,0.5
		c0.8,0.3,1.5,0.8,2.1,1.5l-1.3,1.1c-0.5-0.6-1-1-1.5-1.2c-0.5-0.3-1.1-0.4-1.8-0.4c-0.9,0-1.5,0.2-2,0.6c-0.4,0.4-0.7,0.8-0.7,1.3
		c0,0.4,0.2,0.8,0.5,1.1c0.3,0.3,1.1,0.7,2.4,1c1.9,0.5,3.2,1.1,3.9,1.8c0.7,0.7,1,1.5,1,2.3c0,1-0.4,1.9-1.2,2.6
		c-0.8,0.7-1.9,1.1-3.3,1.1c-1,0-1.9-0.2-2.8-0.6c-0.8-0.4-1.7-1-2.7-1.9l1.5-1c0.7,0.7,1.4,1.2,2,1.5s1.3,0.5,2,0.5
		c0.9,0,1.6-0.2,2-0.6c0.5-0.4,0.7-0.9,0.7-1.5c0-0.5-0.2-0.9-0.5-1.2c-0.5-0.5-1.5-0.9-3.1-1.3c-1-0.3-1.7-0.5-2.4-0.8
		C629.1,78,628.8,77.8,628.5,77.5z"/>
	<path class="st0" d="M648.3,67.5h1.7v4.6h3.2v1.6H650v7.9c0,0.7,0.2,1.2,0.5,1.5c0.3,0.4,0.8,0.5,1.4,0.5c0.3,0,0.7-0.1,1.2-0.2
		v1.5c-0.6,0.1-1.1,0.1-1.5,0.1c-1.2,0-2.1-0.3-2.6-0.8s-0.8-1.3-0.8-2.5v-8.2H646v-1.6h2.2L648.3,67.5L648.3,67.5z"/>
	<path class="st0" d="M660.4,85.1c-1.6,0-3-0.6-4.1-1.8c-1.1-1.2-1.7-2.8-1.7-4.8c0-1.3,0.2-2.5,0.7-3.6c0.5-1,1.2-1.8,2.1-2.3
		c0.9-0.5,1.8-0.8,2.8-0.8s1.9,0.3,2.8,0.8c0.9,0.5,1.6,1.3,2.1,2.4s0.8,2.2,0.8,3.5c0,2-0.5,3.6-1.6,4.7
		C663.2,84.5,661.9,85.1,660.4,85.1z M660.3,83.7c1,0,1.9-0.4,2.7-1.3c0.8-0.9,1.2-2.2,1.2-3.9c0-1.7-0.4-2.9-1.1-3.8
		c-0.7-0.9-1.6-1.3-2.7-1.3c-1.1,0-2.1,0.4-2.8,1.3c-0.8,0.9-1.1,2.1-1.1,3.8c0,1.7,0.4,3,1.1,3.9C658.2,83.2,659.2,83.7,660.3,83.7
		z"/>
	<path class="st0" d="M677.1,67.5h1.7v4.6h3.2v1.6h-3.2v7.9c0,0.7,0.2,1.2,0.5,1.5c0.3,0.4,0.8,0.5,1.4,0.5c0.3,0,0.7-0.1,1.2-0.2
		v1.5c-0.6,0.1-1.1,0.1-1.5,0.1c-1.2,0-2.1-0.3-2.6-0.8s-0.8-1.3-0.8-2.5v-8.2h-2.2v-1.6h2.2L677.1,67.5L677.1,67.5z"/>
	<path class="st0" d="M684.4,67h1.7v6.6c1.5-0.7,2.5-1.2,3.1-1.4c0.6-0.2,1.2-0.3,1.8-0.3c1,0,1.9,0.4,2.5,1.1s1,1.8,1,3.2v8.7h-1.7
		v-9.1c0-0.7-0.2-1.3-0.6-1.7c-0.4-0.4-0.9-0.6-1.6-0.6c-0.6,0-1.3,0.1-2,0.4s-1.6,0.6-2.4,1.2v9.8h-1.7L684.4,67L684.4,67z"/>
	<path class="st0" d="M708.1,82c-0.8,1-1.6,1.8-2.5,2.3s-1.8,0.8-2.7,0.8c-1.5,0-2.8-0.6-3.9-1.8c-1.1-1.2-1.6-2.8-1.6-4.9
		c0-2,0.5-3.6,1.6-4.8c1.1-1.2,2.3-1.7,3.7-1.7c0.9,0,1.9,0.3,2.7,0.8c0.9,0.6,1.5,1.3,2,2.3c0.4,0.9,0.7,2.2,0.7,3.7h-9
		c0,1,0.2,1.8,0.5,2.5c0.4,0.9,0.8,1.5,1.4,1.9c0.6,0.4,1.2,0.6,1.7,0.6c1.4,0,2.7-0.9,3.9-2.6L708.1,82z M706.3,77.1
		c-0.1-1.2-0.5-2.1-1.2-2.8c-0.7-0.7-1.5-1-2.3-1c-1.1,0-1.9,0.4-2.5,1.2c-0.6,0.8-1,1.7-1,2.6C699.3,77.1,706.3,77.1,706.3,77.1z"
		/>
	<path class="st0" d="M716.7,67h1.7l3.7,14.3l3.8-14.3h1.8l3.7,14.3l3.8-14.3h1.7l-4.7,17.9h-1.5l-3.9-14.7l-3.9,14.7h-1.6L716.7,67
		z"/>
	<path class="st0" d="M743.4,85.1c-1.6,0-3-0.6-4.1-1.8c-1.1-1.2-1.7-2.8-1.7-4.8c0-1.3,0.2-2.5,0.7-3.6c0.5-1,1.2-1.8,2.1-2.3
		c0.9-0.5,1.8-0.8,2.8-0.8s1.9,0.3,2.8,0.8c0.9,0.5,1.6,1.3,2.1,2.4s0.8,2.2,0.8,3.5c0,2-0.5,3.6-1.6,4.7
		C746.1,84.5,744.9,85.1,743.4,85.1z M743.2,83.7c1,0,1.9-0.4,2.7-1.3s1.2-2.2,1.2-3.9c0-1.7-0.4-2.9-1.1-3.8
		c-0.7-0.9-1.6-1.3-2.7-1.3c-1.1,0-2.1,0.4-2.8,1.3c-0.8,0.9-1.1,2.1-1.1,3.8c0,1.7,0.4,3,1.1,3.9C741.2,83.2,742.1,83.7,743.2,83.7
		z"/>
	<path class="st0" d="M753.6,75c0.7-1.1,1.5-1.9,2.2-2.4c0.8-0.5,1.7-0.8,2.7-0.8c0.1,0,0.3,0,0.5,0l-0.2,1.9h-0.6
		c-0.5,0-1,0.1-1.5,0.3c-0.6,0.2-1.1,0.6-1.5,1.1s-0.8,1.2-1,1.9c-0.3,0.8-0.4,1.5-0.4,2v5.6h-1.7V71.9h1.7V75H753.6z"/>
	<path class="st0" d="M761.4,67h1.7v17.9h-1.7V67z"/>
	<path class="st0" d="M775.9,67h1.7v13.9c0,0.7,0,1.5,0.1,2.3s0.2,1.3,0.3,1.7h-1.8c-0.2-0.7-0.3-1.2-0.3-1.8
		c-0.8,0.7-1.5,1.2-2.3,1.5c-0.7,0.3-1.5,0.5-2.2,0.5c-1.4,0-2.7-0.6-3.7-1.7s-1.5-2.8-1.5-4.8c0-2.1,0.5-3.7,1.6-4.9
		c1-1.2,2.3-1.7,3.7-1.7c0.7,0,1.4,0.2,2.1,0.5c0.7,0.3,1.4,0.8,2.2,1.5v-7H775.9z M775.9,75.3c-0.7-0.6-1.4-1.1-2.1-1.4
		c-0.7-0.3-1.4-0.5-2-0.5c-1.1,0-2,0.4-2.7,1.3c-0.7,0.8-1.1,2.1-1.1,3.7c0,1.7,0.4,3,1.1,3.9c0.7,0.9,1.6,1.3,2.7,1.3
		c0.6,0,1.3-0.2,2-0.5s1.4-0.8,2.1-1.4V75.3z"/>
</g>
</svg>
