<?xml version="1.0" encoding="utf-8"?>
<!-- Generator: Adobe Illustrator 19.0.0, SVG Export Plug-In . SVG Version: 6.00 Build 0)  -->
<svg version="1.1" id="Layer_1" xmlns="http://www.w3.org/2000/svg" xmlns:xlink="http://www.w3.org/1999/xlink" x="0px" y="0px"
	 viewBox="0 0 260 260" style="enable-background:new 0 0 260 260;" xml:space="preserve">
<style type="text/css">
	.st0{fill:#FFFFFF;}
	.st1{fill:#8CDBB3;}
	.st2{fill:#333333;}
	.st3{fill:#5A8C72;}
</style>
<g id="XMLID_9_">
	<path id="XMLID_13_" class="st0" d="M240.9,116.6c-8.9-9.6-20.8-11.2-28.2-12.8c-4.4-0.9-14.9-3.2-19.3-6.4
		c-6.7-4.8-29.7-24.1-40.1-28.9c-10.4-4.8-69.8-27.3-111.4,6.4S6.1,164.7,7.6,171.1c1.5,6.4,26.7,4.8,26.7,4.8l0.7,0
		c2.7,12.9,13.3,22.5,26.1,22.5c13.6,0,24.8-11,26.5-25.2c2.9,0,5,0,5.9,0.1c0.3,0,0.9-0.1,1.9-0.4c37.2,0.8,65.3,1.4,86,1.9
		c0.2,15.7,12.1,28.4,26.7,28.4c14.1,0,25.6-11.8,26.6-26.8c4.9,0.5,14.6-0.3,17.9-13.3C255.6,151.9,249.8,126.2,240.9,116.6z"/>
	<path id="XMLID_10_" class="st0" d="M208.2,210.3c-15.9,0-29.4-12.3-32.6-28.6c-19.9-0.4-45.9-1-79.3-1.8c-1.2,0.3-2.3,0.5-3.5,0.4
		c-4.3,14.7-17,25.1-31.7,25.1c-13.8,0-25.7-8.9-30.8-22.3c-26.5,0.8-28.4-7.5-29.1-10.4c-0.1-0.6-11.4-64.8,36.6-103.7
		c48-38.9,117.2-7.6,117.9-7.3c8.3,3.9,22.7,15.1,33.2,23.4c3.4,2.6,6.3,4.9,7.9,6.1c2.2,1.6,8,3.4,17,5.4c0.7,0.1,1.4,0.3,2.2,0.5
		c7.9,1.6,19.9,4.1,29.4,14.3l0,0c10.9,11.8,16.9,40.1,13.6,53.4c-2.7,10.6-9.5,17.1-18.7,18.4C236.6,198.9,223.5,210.3,208.2,210.3
		z M94.5,165.8l1.1,0c37.2,0.8,65.3,1.4,86,1.9l6.3,0.1l0.1,6.8c0.2,11.8,9.2,21.5,20.2,21.5c10.5,0,19.4-8.9,20.1-20.2l0.5-7.2
		l6.6,0.6c8.7,0.9,10.4-5.7,11-8.2c2.2-8.7-3-31.9-10.2-39.7l0,0c-6.6-7.2-15.5-9-22.6-10.4c-0.8-0.2-1.6-0.3-2.3-0.5
		c-8-1.7-16.8-4-21.7-7.5c-1.9-1.3-4.7-3.6-8.4-6.4c-8.9-7-23.7-18.6-30.7-21.8c-0.6-0.3-62.9-28.5-104.9,5.6
		C9,110.2,12.5,158,13.7,167.7c3.4,1.1,12.3,1.7,20.3,1.2l6.2-0.4l1.2,5.8c2.1,10,10.2,17,19.7,17c10.1,0,18.7-8.2,20-19l0.7-6.1
		l5.7-0.1c3,0,4.7,0,5.7,0.1c0.1,0,0.1,0,0.2-0.1L94.5,165.8z"/>
</g>
<path id="XMLID_8_" class="st1" d="M34.3,176c0,0-25.3,1.6-26.7-4.8c-1.5-6.4-7.4-62.6,34.2-96.3s101-11.2,111.4-6.4
	c10.4,4.8,33.5,24.1,40.1,28.9c4.5,3.2,14.9,5.5,19.3,6.4c7.4,1.6,19.3,3.2,28.2,12.8c8.9,9.6,14.7,35.4,11.9,46.5
	C248.3,180.8,232,176,232,176s-34.9-0.8-144.1-3.2L34.3,176z"/>
<ellipse id="XMLID_6_" class="st2" cx="208.2" cy="174.4" rx="26.7" ry="28.9"/>
<path id="XMLID_5_" class="st0" d="M75.9,78c0,0,26.7,32.1,53.5,35.3s55-6.4,55-6.4s-14.9-17.7-20.8-22.5
	c-5.9-4.8-17.8-11.2-23.8-12.8c-5.9-1.6-37.1-11.2-62.4,0c0,0,65.4,22.5,87.7,28.9C165.1,100.5,83.4,81.3,75.9,78z"/>
<path id="XMLID_4_" class="st3" d="M21.1,175.9c0,0-4.6-17.6-4.6-28.9s7.4-32.1,8.9-30.5c1.5,1.6,7.4,11.2,8.9,11.2
	c1.5,0,8.9,0,13.4-3.2s53.5-3.2,55,0s66.9,8,71.3,8S97.7,174,93.5,173.4c-4.2-0.6-37.4,1-37.4,1L34.3,176L21.1,175.9z"/>
<ellipse id="XMLID_7_" class="st2" cx="61.1" cy="169.5" rx="26.7" ry="28.9"/>
<ellipse id="XMLID_3_" class="st0" cx="61.8" cy="170.3" rx="12.6" ry="13.6"/>
<ellipse id="XMLID_2_" class="st0" cx="208.9" cy="175.2" rx="12.6" ry="13.6"/>
</svg>
