<?xml version="1.0" standalone="no"?>
<!DOCTYPE svg PUBLIC "-//W3C//DTD SVG 20010904//EN"
 "http://www.w3.org/TR/2001/REC-SVG-20010904/DTD/svg10.dtd">
<svg version="1.0" xmlns="http://www.w3.org/2000/svg"
 width="700.000000pt" height="700.000000pt" viewBox="0 0 700.000000 700.000000"
 preserveAspectRatio="xMidYMid meet">
<metadata>
Created by potrace 1.11, written by Peter Selinger 2001-2013
</metadata>
<g transform="translate(0.000000,700.000000) scale(0.100000,-0.100000)"
fill="#000000" stroke="none">
<path d="M2458 5665 c-2 -2 -48 -6 -103 -9 -55 -4 -109 -9 -120 -11 -11 -3
-38 -7 -60 -10 -38 -5 -128 -21 -170 -29 -45 -9 -255 -66 -277 -75 -12 -5 -59
-23 -103 -40 -537 -200 -1029 -661 -1302 -1221 -72 -149 -101 -215 -143 -335
-57 -163 -132 -481 -146 -620 -3 -27 -7 -61 -10 -75 -19 -112 -26 -529 -12
-710 16 -203 34 -257 105 -320 44 -38 159 -93 218 -104 180 -32 210 -34 365
-35 l115 -1 24 -52 c59 -131 159 -262 271 -356 76 -63 236 -143 335 -168 112
-28 279 -27 395 1 290 72 520 283 634 582 26 70 28 71 64 73 93 5 258 2 1022
-15 334 -8 625 -15 900 -21 146 -3 266 -7 268 -9 2 -1 5 -15 8 -31 15 -90 88
-252 158 -354 41 -61 171 -190 226 -226 79 -50 182 -104 200 -104 6 0 18 -4
28 -10 74 -42 350 -48 480 -11 288 84 517 313 618 618 28 86 25 83 100 97 42
8 151 64 200 103 113 90 208 262 240 433 9 52 11 261 3 333 -4 34 -10 85 -13
112 -26 230 -136 574 -243 757 -156 269 -434 458 -783 533 -41 9 -82 18 -90
20 -8 1 -33 8 -55 13 -22 6 -51 13 -65 16 -149 26 -421 115 -450 146 -3 3 -75
59 -160 125 -85 66 -157 122 -160 125 -19 22 -403 303 -528 387 -208 139 -291
178 -577 270 -60 19 -119 39 -130 43 -20 8 -242 63 -300 74 -57 12 -70 14
-115 24 -25 6 -67 13 -95 17 -27 3 -77 10 -110 15 -153 22 -282 32 -492 34
-90 2 -164 2 -165 1z"/>
</g>
</svg>
